G04 #@! TF.GenerationSoftware,KiCad,Pcbnew,(5.0.0-3-g5ebb6b6)*
G04 #@! TF.CreationDate,2018-08-14T19:07:29+02:00*
G04 #@! TF.ProjectId,TecladoEB,5465636C61646F45422E6B696361645F,rev?*
G04 #@! TF.SameCoordinates,Original*
G04 #@! TF.FileFunction,Legend,Bot*
G04 #@! TF.FilePolarity,Positive*
%FSLAX46Y46*%
G04 Gerber Fmt 4.6, Leading zero omitted, Abs format (unit mm)*
G04 Created by KiCad (PCBNEW (5.0.0-3-g5ebb6b6)) date Tuesday, 14 August 2018 at 19:07:29*
%MOMM*%
%LPD*%
G01*
G04 APERTURE LIST*
%ADD10C,0.200000*%
%ADD11C,0.350000*%
%ADD12C,0.120000*%
%ADD13C,0.010000*%
%ADD14C,0.150000*%
G04 APERTURE END LIST*
D10*
X112800000Y-144000000D02*
X112800000Y-118700000D01*
X135509427Y-144014000D02*
X112801600Y-144014000D01*
X135500000Y-118700000D02*
X135509200Y-144014000D01*
X112800000Y-118700000D02*
X135500000Y-118700000D01*
X130044285Y-139087514D02*
X130044285Y-137737514D01*
X129272857Y-139087514D02*
X129851428Y-138316085D01*
X129272857Y-137737514D02*
X130044285Y-138508942D01*
X128180000Y-139023228D02*
X128308571Y-139087514D01*
X128565714Y-139087514D01*
X128694285Y-139023228D01*
X128758571Y-138894657D01*
X128758571Y-138380371D01*
X128694285Y-138251800D01*
X128565714Y-138187514D01*
X128308571Y-138187514D01*
X128180000Y-138251800D01*
X128115714Y-138380371D01*
X128115714Y-138508942D01*
X128758571Y-138637514D01*
X127665714Y-138187514D02*
X127344285Y-139087514D01*
X127022857Y-138187514D02*
X127344285Y-139087514D01*
X127472857Y-139408942D01*
X127537142Y-139473228D01*
X127665714Y-139537514D01*
X126508571Y-138187514D02*
X126508571Y-139537514D01*
X126508571Y-138251800D02*
X126380000Y-138187514D01*
X126122857Y-138187514D01*
X125994285Y-138251800D01*
X125930000Y-138316085D01*
X125865714Y-138444657D01*
X125865714Y-138830371D01*
X125930000Y-138958942D01*
X125994285Y-139023228D01*
X126122857Y-139087514D01*
X126380000Y-139087514D01*
X126508571Y-139023228D01*
X124708571Y-139087514D02*
X124708571Y-138380371D01*
X124772857Y-138251800D01*
X124901428Y-138187514D01*
X125158571Y-138187514D01*
X125287142Y-138251800D01*
X124708571Y-139023228D02*
X124837142Y-139087514D01*
X125158571Y-139087514D01*
X125287142Y-139023228D01*
X125351428Y-138894657D01*
X125351428Y-138766085D01*
X125287142Y-138637514D01*
X125158571Y-138573228D01*
X124837142Y-138573228D01*
X124708571Y-138508942D01*
X123487142Y-139087514D02*
X123487142Y-137737514D01*
X123487142Y-139023228D02*
X123615714Y-139087514D01*
X123872857Y-139087514D01*
X124001428Y-139023228D01*
X124065714Y-138958942D01*
X124130000Y-138830371D01*
X124130000Y-138444657D01*
X124065714Y-138316085D01*
X124001428Y-138251800D01*
X123872857Y-138187514D01*
X123615714Y-138187514D01*
X123487142Y-138251800D01*
X121944285Y-138187514D02*
X121622857Y-139087514D01*
X121301428Y-138187514D01*
X120080000Y-139087514D02*
X120851428Y-139087514D01*
X120465714Y-139087514D02*
X120465714Y-137737514D01*
X120594285Y-137930371D01*
X120722857Y-138058942D01*
X120851428Y-138123228D01*
X119501428Y-138958942D02*
X119437142Y-139023228D01*
X119501428Y-139087514D01*
X119565714Y-139023228D01*
X119501428Y-138958942D01*
X119501428Y-139087514D01*
X118922857Y-137866085D02*
X118858571Y-137801800D01*
X118730000Y-137737514D01*
X118408571Y-137737514D01*
X118280000Y-137801800D01*
X118215714Y-137866085D01*
X118151428Y-137994657D01*
X118151428Y-138123228D01*
X118215714Y-138316085D01*
X118987142Y-139087514D01*
X118151428Y-139087514D01*
X133508971Y-122942271D02*
X133058971Y-122942271D01*
X132866114Y-123649414D02*
X133508971Y-123649414D01*
X133508971Y-122299414D01*
X132866114Y-122299414D01*
X132351828Y-123585128D02*
X132223257Y-123649414D01*
X131966114Y-123649414D01*
X131837542Y-123585128D01*
X131773257Y-123456557D01*
X131773257Y-123392271D01*
X131837542Y-123263700D01*
X131966114Y-123199414D01*
X132158971Y-123199414D01*
X132287542Y-123135128D01*
X132351828Y-123006557D01*
X132351828Y-122942271D01*
X132287542Y-122813700D01*
X132158971Y-122749414D01*
X131966114Y-122749414D01*
X131837542Y-122813700D01*
X130616114Y-123585128D02*
X130744685Y-123649414D01*
X131001828Y-123649414D01*
X131130400Y-123585128D01*
X131194685Y-123520842D01*
X131258971Y-123392271D01*
X131258971Y-123006557D01*
X131194685Y-122877985D01*
X131130400Y-122813700D01*
X131001828Y-122749414D01*
X130744685Y-122749414D01*
X130616114Y-122813700D01*
X129844685Y-123649414D02*
X129973257Y-123585128D01*
X130037542Y-123520842D01*
X130101828Y-123392271D01*
X130101828Y-123006557D01*
X130037542Y-122877985D01*
X129973257Y-122813700D01*
X129844685Y-122749414D01*
X129651828Y-122749414D01*
X129523257Y-122813700D01*
X129458971Y-122877985D01*
X129394685Y-123006557D01*
X129394685Y-123392271D01*
X129458971Y-123520842D01*
X129523257Y-123585128D01*
X129651828Y-123649414D01*
X129844685Y-123649414D01*
X128816114Y-123649414D02*
X128816114Y-122749414D01*
X128816114Y-123006557D02*
X128751828Y-122877985D01*
X128687542Y-122813700D01*
X128558971Y-122749414D01*
X128430400Y-122749414D01*
X127980400Y-122749414D02*
X127980400Y-123649414D01*
X127980400Y-122877985D02*
X127916114Y-122813700D01*
X127787542Y-122749414D01*
X127594685Y-122749414D01*
X127466114Y-122813700D01*
X127401828Y-122942271D01*
X127401828Y-123649414D01*
X126180400Y-123649414D02*
X126180400Y-122942271D01*
X126244685Y-122813700D01*
X126373257Y-122749414D01*
X126630400Y-122749414D01*
X126758971Y-122813700D01*
X126180400Y-123585128D02*
X126308971Y-123649414D01*
X126630400Y-123649414D01*
X126758971Y-123585128D01*
X126823257Y-123456557D01*
X126823257Y-123327985D01*
X126758971Y-123199414D01*
X126630400Y-123135128D01*
X126308971Y-123135128D01*
X126180400Y-123070842D01*
X125537542Y-123649414D02*
X125537542Y-122299414D01*
X125537542Y-122813700D02*
X125408971Y-122749414D01*
X125151828Y-122749414D01*
X125023257Y-122813700D01*
X124958971Y-122877985D01*
X124894685Y-123006557D01*
X124894685Y-123392271D01*
X124958971Y-123520842D01*
X125023257Y-123585128D01*
X125151828Y-123649414D01*
X125408971Y-123649414D01*
X125537542Y-123585128D01*
X124123257Y-123649414D02*
X124251828Y-123585128D01*
X124316114Y-123520842D01*
X124380400Y-123392271D01*
X124380400Y-123006557D01*
X124316114Y-122877985D01*
X124251828Y-122813700D01*
X124123257Y-122749414D01*
X123930400Y-122749414D01*
X123801828Y-122813700D01*
X123737542Y-122877985D01*
X123673257Y-123006557D01*
X123673257Y-123392271D01*
X123737542Y-123520842D01*
X123801828Y-123585128D01*
X123930400Y-123649414D01*
X124123257Y-123649414D01*
X123287542Y-122749414D02*
X122773257Y-122749414D01*
X123094685Y-122299414D02*
X123094685Y-123456557D01*
X123030400Y-123585128D01*
X122901828Y-123649414D01*
X122773257Y-123649414D01*
X121294685Y-123649414D02*
X121294685Y-122299414D01*
X120780400Y-122299414D01*
X120651828Y-122363700D01*
X120587542Y-122427985D01*
X120523257Y-122556557D01*
X120523257Y-122749414D01*
X120587542Y-122877985D01*
X120651828Y-122942271D01*
X120780400Y-123006557D01*
X121294685Y-123006557D01*
X119944685Y-123649414D02*
X119944685Y-122749414D01*
X119944685Y-123006557D02*
X119880400Y-122877985D01*
X119816114Y-122813700D01*
X119687542Y-122749414D01*
X119558971Y-122749414D01*
X118916114Y-123649414D02*
X119044685Y-123585128D01*
X119108971Y-123520842D01*
X119173257Y-123392271D01*
X119173257Y-123006557D01*
X119108971Y-122877985D01*
X119044685Y-122813700D01*
X118916114Y-122749414D01*
X118723257Y-122749414D01*
X118594685Y-122813700D01*
X118530400Y-122877985D01*
X118466114Y-123006557D01*
X118466114Y-123392271D01*
X118530400Y-123520842D01*
X118594685Y-123585128D01*
X118723257Y-123649414D01*
X118916114Y-123649414D01*
X117887542Y-122749414D02*
X117887542Y-123906557D01*
X117951828Y-124035128D01*
X118080400Y-124099414D01*
X118144685Y-124099414D01*
X117887542Y-122299414D02*
X117951828Y-122363700D01*
X117887542Y-122427985D01*
X117823257Y-122363700D01*
X117887542Y-122299414D01*
X117887542Y-122427985D01*
X116730400Y-123585128D02*
X116858971Y-123649414D01*
X117116114Y-123649414D01*
X117244685Y-123585128D01*
X117308971Y-123456557D01*
X117308971Y-122942271D01*
X117244685Y-122813700D01*
X117116114Y-122749414D01*
X116858971Y-122749414D01*
X116730400Y-122813700D01*
X116666114Y-122942271D01*
X116666114Y-123070842D01*
X117308971Y-123199414D01*
X115508971Y-123585128D02*
X115637542Y-123649414D01*
X115894685Y-123649414D01*
X116023257Y-123585128D01*
X116087542Y-123520842D01*
X116151828Y-123392271D01*
X116151828Y-123006557D01*
X116087542Y-122877985D01*
X116023257Y-122813700D01*
X115894685Y-122749414D01*
X115637542Y-122749414D01*
X115508971Y-122813700D01*
X115123257Y-122749414D02*
X114608971Y-122749414D01*
X114930400Y-122299414D02*
X114930400Y-123456557D01*
X114866114Y-123585128D01*
X114737542Y-123649414D01*
X114608971Y-123649414D01*
X126405400Y-124524414D02*
X126148257Y-124524414D01*
X126019685Y-124588700D01*
X125891114Y-124717271D01*
X125826828Y-124974414D01*
X125826828Y-125424414D01*
X125891114Y-125681557D01*
X126019685Y-125810128D01*
X126148257Y-125874414D01*
X126405400Y-125874414D01*
X126533971Y-125810128D01*
X126662542Y-125681557D01*
X126726828Y-125424414D01*
X126726828Y-124974414D01*
X126662542Y-124717271D01*
X126533971Y-124588700D01*
X126405400Y-124524414D01*
X125312542Y-125810128D02*
X125119685Y-125874414D01*
X124798257Y-125874414D01*
X124669685Y-125810128D01*
X124605400Y-125745842D01*
X124541114Y-125617271D01*
X124541114Y-125488700D01*
X124605400Y-125360128D01*
X124669685Y-125295842D01*
X124798257Y-125231557D01*
X125055400Y-125167271D01*
X125183971Y-125102985D01*
X125248257Y-125038700D01*
X125312542Y-124910128D01*
X125312542Y-124781557D01*
X125248257Y-124652985D01*
X125183971Y-124588700D01*
X125055400Y-124524414D01*
X124733971Y-124524414D01*
X124541114Y-124588700D01*
X123962542Y-125874414D02*
X123962542Y-124524414D01*
X123962542Y-125167271D02*
X123191114Y-125167271D01*
X123191114Y-125874414D02*
X123191114Y-124524414D01*
X122676828Y-124524414D02*
X122355400Y-125874414D01*
X122098257Y-124910128D01*
X121841114Y-125874414D01*
X121519685Y-124524414D01*
D11*
G04 #@! TO.C,REF\002A\002A*
X108680000Y-105600000D02*
G75*
G03X108680000Y-105600000I-3600000J0D01*
G01*
X146780000Y-105600000D02*
G75*
G03X146780000Y-105600000I-3600000J0D01*
G01*
X146780000Y-141220000D02*
G75*
G03X146780000Y-141220000I-3600000J0D01*
G01*
X108680000Y-141220000D02*
G75*
G03X108680000Y-141220000I-3600000J0D01*
G01*
D12*
G04 #@! TO.C,J1*
X138795000Y-110468400D02*
X133595000Y-110468400D01*
X133595000Y-110468400D02*
X133595000Y-107808400D01*
X133595000Y-107808400D02*
X138795000Y-107808400D01*
X138795000Y-107808400D02*
X138795000Y-110468400D01*
X137845000Y-107808400D02*
X137845000Y-101808400D01*
X137845000Y-101808400D02*
X137085000Y-101808400D01*
X137085000Y-101808400D02*
X137085000Y-107808400D01*
X137785000Y-107808400D02*
X137785000Y-101808400D01*
X137665000Y-107808400D02*
X137665000Y-101808400D01*
X137545000Y-107808400D02*
X137545000Y-101808400D01*
X137425000Y-107808400D02*
X137425000Y-101808400D01*
X137305000Y-107808400D02*
X137305000Y-101808400D01*
X137185000Y-107808400D02*
X137185000Y-101808400D01*
X137845000Y-110798400D02*
X137845000Y-110468400D01*
X137085000Y-110798400D02*
X137085000Y-110468400D01*
X136195000Y-110468400D02*
X136195000Y-107808400D01*
X135305000Y-107808400D02*
X135305000Y-101808400D01*
X135305000Y-101808400D02*
X134545000Y-101808400D01*
X134545000Y-101808400D02*
X134545000Y-107808400D01*
X135305000Y-110865471D02*
X135305000Y-110468400D01*
X134545000Y-110865471D02*
X134545000Y-110468400D01*
X137465000Y-113178400D02*
X138735000Y-113178400D01*
X138735000Y-113178400D02*
X138735000Y-111908400D01*
D13*
G04 #@! TO.C,G\002A\002A\002A*
G36*
X128427075Y-127343913D02*
X127797422Y-127346722D01*
X127304985Y-127352271D01*
X126933709Y-127361267D01*
X126667538Y-127374418D01*
X126490416Y-127392433D01*
X126386287Y-127416021D01*
X126339094Y-127445889D01*
X126331333Y-127470134D01*
X126348994Y-127504674D01*
X126412680Y-127532453D01*
X126538448Y-127554178D01*
X126742353Y-127570558D01*
X127040450Y-127582301D01*
X127448797Y-127590115D01*
X127983448Y-127594709D01*
X128660460Y-127596791D01*
X129210000Y-127597134D01*
X129992925Y-127596354D01*
X130622578Y-127593545D01*
X131115015Y-127587996D01*
X131486291Y-127579000D01*
X131752462Y-127565849D01*
X131929584Y-127547834D01*
X132033714Y-127524246D01*
X132080906Y-127494378D01*
X132088667Y-127470134D01*
X132071006Y-127435593D01*
X132007320Y-127407814D01*
X131881552Y-127386089D01*
X131677648Y-127369709D01*
X131379550Y-127357966D01*
X130971203Y-127350152D01*
X130436552Y-127345558D01*
X129759540Y-127343476D01*
X129210000Y-127343134D01*
X128427075Y-127343913D01*
X128427075Y-127343913D01*
G37*
X128427075Y-127343913D02*
X127797422Y-127346722D01*
X127304985Y-127352271D01*
X126933709Y-127361267D01*
X126667538Y-127374418D01*
X126490416Y-127392433D01*
X126386287Y-127416021D01*
X126339094Y-127445889D01*
X126331333Y-127470134D01*
X126348994Y-127504674D01*
X126412680Y-127532453D01*
X126538448Y-127554178D01*
X126742353Y-127570558D01*
X127040450Y-127582301D01*
X127448797Y-127590115D01*
X127983448Y-127594709D01*
X128660460Y-127596791D01*
X129210000Y-127597134D01*
X129992925Y-127596354D01*
X130622578Y-127593545D01*
X131115015Y-127587996D01*
X131486291Y-127579000D01*
X131752462Y-127565849D01*
X131929584Y-127547834D01*
X132033714Y-127524246D01*
X132080906Y-127494378D01*
X132088667Y-127470134D01*
X132071006Y-127435593D01*
X132007320Y-127407814D01*
X131881552Y-127386089D01*
X131677648Y-127369709D01*
X131379550Y-127357966D01*
X130971203Y-127350152D01*
X130436552Y-127345558D01*
X129759540Y-127343476D01*
X129210000Y-127343134D01*
X128427075Y-127343913D01*
G36*
X126102543Y-129466470D02*
X126054282Y-129503285D01*
X126022722Y-129595458D01*
X126004324Y-129768198D01*
X125995545Y-130046717D01*
X125992844Y-130456225D01*
X125992667Y-130729800D01*
X125994970Y-131226854D01*
X126003450Y-131578155D01*
X126020460Y-131807239D01*
X126048354Y-131937643D01*
X126089485Y-131992903D01*
X126119667Y-131999800D01*
X126234192Y-131965217D01*
X126249508Y-131936300D01*
X126281020Y-131225114D01*
X126304238Y-130665041D01*
X126318590Y-130238035D01*
X126323506Y-129926053D01*
X126318412Y-129711049D01*
X126302738Y-129574979D01*
X126275911Y-129499798D01*
X126237360Y-129467461D01*
X126186514Y-129459924D01*
X126171046Y-129459800D01*
X126102543Y-129466470D01*
X126102543Y-129466470D01*
G37*
X126102543Y-129466470D02*
X126054282Y-129503285D01*
X126022722Y-129595458D01*
X126004324Y-129768198D01*
X125995545Y-130046717D01*
X125992844Y-130456225D01*
X125992667Y-130729800D01*
X125994970Y-131226854D01*
X126003450Y-131578155D01*
X126020460Y-131807239D01*
X126048354Y-131937643D01*
X126089485Y-131992903D01*
X126119667Y-131999800D01*
X126234192Y-131965217D01*
X126249508Y-131936300D01*
X126281020Y-131225114D01*
X126304238Y-130665041D01*
X126318590Y-130238035D01*
X126323506Y-129926053D01*
X126318412Y-129711049D01*
X126302738Y-129574979D01*
X126275911Y-129499798D01*
X126237360Y-129467461D01*
X126186514Y-129459924D01*
X126171046Y-129459800D01*
X126102543Y-129466470D01*
G36*
X132249889Y-129567836D02*
X132214485Y-129653871D01*
X132191651Y-129826464D01*
X132178914Y-130109504D01*
X132173804Y-130526884D01*
X132173333Y-130772134D01*
X132175751Y-131259765D01*
X132184651Y-131602002D01*
X132202506Y-131822735D01*
X132231786Y-131945855D01*
X132274963Y-131995254D01*
X132300333Y-131999800D01*
X132350778Y-131976431D01*
X132386182Y-131890396D01*
X132409016Y-131717803D01*
X132421753Y-131434763D01*
X132426863Y-131017383D01*
X132427333Y-130772134D01*
X132424916Y-130284502D01*
X132416016Y-129942265D01*
X132398161Y-129721532D01*
X132368881Y-129598412D01*
X132325704Y-129549013D01*
X132300333Y-129544467D01*
X132249889Y-129567836D01*
X132249889Y-129567836D01*
G37*
X132249889Y-129567836D02*
X132214485Y-129653871D01*
X132191651Y-129826464D01*
X132178914Y-130109504D01*
X132173804Y-130526884D01*
X132173333Y-130772134D01*
X132175751Y-131259765D01*
X132184651Y-131602002D01*
X132202506Y-131822735D01*
X132231786Y-131945855D01*
X132274963Y-131995254D01*
X132300333Y-131999800D01*
X132350778Y-131976431D01*
X132386182Y-131890396D01*
X132409016Y-131717803D01*
X132421753Y-131434763D01*
X132426863Y-131017383D01*
X132427333Y-130772134D01*
X132424916Y-130284502D01*
X132416016Y-129942265D01*
X132398161Y-129721532D01*
X132368881Y-129598412D01*
X132325704Y-129549013D01*
X132300333Y-129544467D01*
X132249889Y-129567836D01*
G36*
X127632778Y-128000805D02*
X127194440Y-128112906D01*
X126901734Y-128222126D01*
X126740162Y-128315706D01*
X126676047Y-128416873D01*
X126670000Y-128474615D01*
X126751644Y-128746015D01*
X126986996Y-129029486D01*
X127361687Y-129316513D01*
X127861348Y-129598582D01*
X128471611Y-129867176D01*
X129178105Y-130113782D01*
X129678079Y-130257183D01*
X130776333Y-130547433D01*
X130131023Y-130553950D01*
X129612352Y-130592896D01*
X129025732Y-130690910D01*
X128429618Y-130833853D01*
X127882467Y-131007582D01*
X127442734Y-131197959D01*
X127421386Y-131209415D01*
X127147407Y-131388435D01*
X126874148Y-131615856D01*
X126637371Y-131855698D01*
X126472837Y-132071980D01*
X126416000Y-132220941D01*
X126493827Y-132367993D01*
X126705684Y-132532456D01*
X127019136Y-132700711D01*
X127401750Y-132859135D01*
X127821088Y-132994107D01*
X128244718Y-133092004D01*
X128596648Y-133136756D01*
X128978955Y-133145734D01*
X129372633Y-133130033D01*
X129614039Y-133103989D01*
X130178024Y-132955650D01*
X130712669Y-132704998D01*
X131187267Y-132375594D01*
X131571111Y-131990997D01*
X131833495Y-131574768D01*
X131915587Y-131338086D01*
X131975329Y-130757741D01*
X131869748Y-130200950D01*
X131598108Y-129666334D01*
X131159671Y-129152517D01*
X130553699Y-128658122D01*
X130437667Y-128578389D01*
X129796099Y-128240006D01*
X129087104Y-128026978D01*
X128352168Y-127945260D01*
X127632778Y-128000805D01*
X127632778Y-128000805D01*
G37*
X127632778Y-128000805D02*
X127194440Y-128112906D01*
X126901734Y-128222126D01*
X126740162Y-128315706D01*
X126676047Y-128416873D01*
X126670000Y-128474615D01*
X126751644Y-128746015D01*
X126986996Y-129029486D01*
X127361687Y-129316513D01*
X127861348Y-129598582D01*
X128471611Y-129867176D01*
X129178105Y-130113782D01*
X129678079Y-130257183D01*
X130776333Y-130547433D01*
X130131023Y-130553950D01*
X129612352Y-130592896D01*
X129025732Y-130690910D01*
X128429618Y-130833853D01*
X127882467Y-131007582D01*
X127442734Y-131197959D01*
X127421386Y-131209415D01*
X127147407Y-131388435D01*
X126874148Y-131615856D01*
X126637371Y-131855698D01*
X126472837Y-132071980D01*
X126416000Y-132220941D01*
X126493827Y-132367993D01*
X126705684Y-132532456D01*
X127019136Y-132700711D01*
X127401750Y-132859135D01*
X127821088Y-132994107D01*
X128244718Y-133092004D01*
X128596648Y-133136756D01*
X128978955Y-133145734D01*
X129372633Y-133130033D01*
X129614039Y-133103989D01*
X130178024Y-132955650D01*
X130712669Y-132704998D01*
X131187267Y-132375594D01*
X131571111Y-131990997D01*
X131833495Y-131574768D01*
X131915587Y-131338086D01*
X131975329Y-130757741D01*
X131869748Y-130200950D01*
X131598108Y-129666334D01*
X131159671Y-129152517D01*
X130553699Y-128658122D01*
X130437667Y-128578389D01*
X129796099Y-128240006D01*
X129087104Y-128026978D01*
X128352168Y-127945260D01*
X127632778Y-128000805D01*
G36*
X129407163Y-133329669D02*
X129379333Y-133439134D01*
X129439202Y-133580638D01*
X129548667Y-133608467D01*
X129690171Y-133548598D01*
X129718000Y-133439134D01*
X129658132Y-133297629D01*
X129548667Y-133269800D01*
X129407163Y-133329669D01*
X129407163Y-133329669D01*
G37*
X129407163Y-133329669D02*
X129379333Y-133439134D01*
X129439202Y-133580638D01*
X129548667Y-133608467D01*
X129690171Y-133548598D01*
X129718000Y-133439134D01*
X129658132Y-133297629D01*
X129548667Y-133269800D01*
X129407163Y-133329669D01*
G36*
X128477776Y-133313257D02*
X128463278Y-133453668D01*
X128537255Y-133630972D01*
X128664335Y-133661599D01*
X128781249Y-133572662D01*
X128843100Y-133412297D01*
X128757442Y-133300044D01*
X128606448Y-133269800D01*
X128477776Y-133313257D01*
X128477776Y-133313257D01*
G37*
X128477776Y-133313257D02*
X128463278Y-133453668D01*
X128537255Y-133630972D01*
X128664335Y-133661599D01*
X128781249Y-133572662D01*
X128843100Y-133412297D01*
X128757442Y-133300044D01*
X128606448Y-133269800D01*
X128477776Y-133313257D01*
G36*
X129683184Y-133838625D02*
X128893045Y-133842889D01*
X127948637Y-133849737D01*
X127834167Y-133850634D01*
X127287191Y-133856812D01*
X126887805Y-133866794D01*
X126614274Y-133882589D01*
X126444865Y-133906204D01*
X126357843Y-133939647D01*
X126331475Y-133984926D01*
X126331333Y-133989467D01*
X126348994Y-134024008D01*
X126412680Y-134051786D01*
X126538448Y-134073512D01*
X126742353Y-134089891D01*
X127040450Y-134101634D01*
X127448797Y-134109448D01*
X127983448Y-134114042D01*
X128660460Y-134116124D01*
X129210000Y-134116467D01*
X129992925Y-134115688D01*
X130622578Y-134112878D01*
X131115015Y-134107329D01*
X131486291Y-134098334D01*
X131752462Y-134085182D01*
X131929584Y-134067167D01*
X132033714Y-134043579D01*
X132080906Y-134013711D01*
X132088667Y-133989467D01*
X132077041Y-133950580D01*
X132033127Y-133918256D01*
X131943372Y-133892054D01*
X131794222Y-133871531D01*
X131572124Y-133856245D01*
X131263525Y-133845754D01*
X130854871Y-133839615D01*
X130332608Y-133837386D01*
X129683184Y-133838625D01*
X129683184Y-133838625D01*
G37*
X129683184Y-133838625D02*
X128893045Y-133842889D01*
X127948637Y-133849737D01*
X127834167Y-133850634D01*
X127287191Y-133856812D01*
X126887805Y-133866794D01*
X126614274Y-133882589D01*
X126444865Y-133906204D01*
X126357843Y-133939647D01*
X126331475Y-133984926D01*
X126331333Y-133989467D01*
X126348994Y-134024008D01*
X126412680Y-134051786D01*
X126538448Y-134073512D01*
X126742353Y-134089891D01*
X127040450Y-134101634D01*
X127448797Y-134109448D01*
X127983448Y-134114042D01*
X128660460Y-134116124D01*
X129210000Y-134116467D01*
X129992925Y-134115688D01*
X130622578Y-134112878D01*
X131115015Y-134107329D01*
X131486291Y-134098334D01*
X131752462Y-134085182D01*
X131929584Y-134067167D01*
X132033714Y-134043579D01*
X132080906Y-134013711D01*
X132088667Y-133989467D01*
X132077041Y-133950580D01*
X132033127Y-133918256D01*
X131943372Y-133892054D01*
X131794222Y-133871531D01*
X131572124Y-133856245D01*
X131263525Y-133845754D01*
X130854871Y-133839615D01*
X130332608Y-133837386D01*
X129683184Y-133838625D01*
G36*
X118671354Y-127707015D02*
X118618545Y-128015687D01*
X118543845Y-128206059D01*
X118414112Y-128328792D01*
X118196206Y-128434546D01*
X118195112Y-128435003D01*
X118026059Y-128497956D01*
X117894641Y-128505957D01*
X117747055Y-128445690D01*
X117529503Y-128303839D01*
X117454460Y-128251687D01*
X117012429Y-127943599D01*
X116618897Y-128337131D01*
X116225364Y-128730663D01*
X116837324Y-129604841D01*
X116694829Y-129913320D01*
X116582398Y-130136731D01*
X116470649Y-130264601D01*
X116305307Y-130333278D01*
X116032097Y-130379110D01*
X115991159Y-130384579D01*
X115578667Y-130439298D01*
X115578667Y-131599288D01*
X116039423Y-131656856D01*
X116306893Y-131697242D01*
X116460982Y-131759039D01*
X116556693Y-131881578D01*
X116643044Y-132088508D01*
X116785908Y-132462593D01*
X116261410Y-133268903D01*
X116615000Y-133629184D01*
X116818342Y-133822073D01*
X116983034Y-133952819D01*
X117058308Y-133989466D01*
X117177706Y-133945081D01*
X117374482Y-133833080D01*
X117469100Y-133771290D01*
X117696305Y-133636848D01*
X117867555Y-133600208D01*
X118025054Y-133634994D01*
X118129761Y-133666191D01*
X118210365Y-133657539D01*
X118285651Y-133584326D01*
X118374401Y-133421842D01*
X118495402Y-133145376D01*
X118613371Y-132861062D01*
X118966808Y-132005250D01*
X118714109Y-131807483D01*
X118459547Y-131518158D01*
X118341985Y-131184807D01*
X118349843Y-130841802D01*
X118471543Y-130523518D01*
X118695504Y-130264327D01*
X119010150Y-130098604D01*
X119304000Y-130056315D01*
X119683090Y-130130831D01*
X119989229Y-130332169D01*
X120197152Y-130627010D01*
X120281592Y-130982038D01*
X120241575Y-131292688D01*
X120108949Y-131561666D01*
X119913307Y-131791594D01*
X119893892Y-131807483D01*
X119641192Y-132005250D01*
X119994630Y-132861062D01*
X120150581Y-133235156D01*
X120260724Y-133477432D01*
X120343842Y-133612600D01*
X120418721Y-133665371D01*
X120504145Y-133660456D01*
X120582947Y-133634994D01*
X120761485Y-133600023D01*
X120936037Y-133648159D01*
X121138900Y-133771290D01*
X121350688Y-133902801D01*
X121511090Y-133980501D01*
X121549693Y-133989466D01*
X121653043Y-133933102D01*
X121828959Y-133787031D01*
X121993000Y-133629184D01*
X122346590Y-133268903D01*
X121822092Y-132462593D01*
X121964956Y-132088508D01*
X122056035Y-131872495D01*
X122153550Y-131754368D01*
X122312502Y-131694796D01*
X122568577Y-131656856D01*
X123029333Y-131599288D01*
X123029333Y-130439298D01*
X122616842Y-130384579D01*
X122327689Y-130339044D01*
X122152669Y-130274859D01*
X122037505Y-130155676D01*
X121927923Y-129945148D01*
X121913172Y-129913320D01*
X121770676Y-129604841D01*
X122382636Y-128730663D01*
X121991165Y-128339193D01*
X121599695Y-127947722D01*
X121144837Y-128249730D01*
X120893491Y-128411122D01*
X120728381Y-128489360D01*
X120596326Y-128497391D01*
X120444142Y-128448165D01*
X120401889Y-128430605D01*
X120189140Y-128326234D01*
X120062187Y-128203555D01*
X119988581Y-128012103D01*
X119936646Y-127707015D01*
X119880777Y-127300800D01*
X118727223Y-127300800D01*
X118671354Y-127707015D01*
X118671354Y-127707015D01*
G37*
X118671354Y-127707015D02*
X118618545Y-128015687D01*
X118543845Y-128206059D01*
X118414112Y-128328792D01*
X118196206Y-128434546D01*
X118195112Y-128435003D01*
X118026059Y-128497956D01*
X117894641Y-128505957D01*
X117747055Y-128445690D01*
X117529503Y-128303839D01*
X117454460Y-128251687D01*
X117012429Y-127943599D01*
X116618897Y-128337131D01*
X116225364Y-128730663D01*
X116837324Y-129604841D01*
X116694829Y-129913320D01*
X116582398Y-130136731D01*
X116470649Y-130264601D01*
X116305307Y-130333278D01*
X116032097Y-130379110D01*
X115991159Y-130384579D01*
X115578667Y-130439298D01*
X115578667Y-131599288D01*
X116039423Y-131656856D01*
X116306893Y-131697242D01*
X116460982Y-131759039D01*
X116556693Y-131881578D01*
X116643044Y-132088508D01*
X116785908Y-132462593D01*
X116261410Y-133268903D01*
X116615000Y-133629184D01*
X116818342Y-133822073D01*
X116983034Y-133952819D01*
X117058308Y-133989466D01*
X117177706Y-133945081D01*
X117374482Y-133833080D01*
X117469100Y-133771290D01*
X117696305Y-133636848D01*
X117867555Y-133600208D01*
X118025054Y-133634994D01*
X118129761Y-133666191D01*
X118210365Y-133657539D01*
X118285651Y-133584326D01*
X118374401Y-133421842D01*
X118495402Y-133145376D01*
X118613371Y-132861062D01*
X118966808Y-132005250D01*
X118714109Y-131807483D01*
X118459547Y-131518158D01*
X118341985Y-131184807D01*
X118349843Y-130841802D01*
X118471543Y-130523518D01*
X118695504Y-130264327D01*
X119010150Y-130098604D01*
X119304000Y-130056315D01*
X119683090Y-130130831D01*
X119989229Y-130332169D01*
X120197152Y-130627010D01*
X120281592Y-130982038D01*
X120241575Y-131292688D01*
X120108949Y-131561666D01*
X119913307Y-131791594D01*
X119893892Y-131807483D01*
X119641192Y-132005250D01*
X119994630Y-132861062D01*
X120150581Y-133235156D01*
X120260724Y-133477432D01*
X120343842Y-133612600D01*
X120418721Y-133665371D01*
X120504145Y-133660456D01*
X120582947Y-133634994D01*
X120761485Y-133600023D01*
X120936037Y-133648159D01*
X121138900Y-133771290D01*
X121350688Y-133902801D01*
X121511090Y-133980501D01*
X121549693Y-133989466D01*
X121653043Y-133933102D01*
X121828959Y-133787031D01*
X121993000Y-133629184D01*
X122346590Y-133268903D01*
X121822092Y-132462593D01*
X121964956Y-132088508D01*
X122056035Y-131872495D01*
X122153550Y-131754368D01*
X122312502Y-131694796D01*
X122568577Y-131656856D01*
X123029333Y-131599288D01*
X123029333Y-130439298D01*
X122616842Y-130384579D01*
X122327689Y-130339044D01*
X122152669Y-130274859D01*
X122037505Y-130155676D01*
X121927923Y-129945148D01*
X121913172Y-129913320D01*
X121770676Y-129604841D01*
X122382636Y-128730663D01*
X121991165Y-128339193D01*
X121599695Y-127947722D01*
X121144837Y-128249730D01*
X120893491Y-128411122D01*
X120728381Y-128489360D01*
X120596326Y-128497391D01*
X120444142Y-128448165D01*
X120401889Y-128430605D01*
X120189140Y-128326234D01*
X120062187Y-128203555D01*
X119988581Y-128012103D01*
X119936646Y-127707015D01*
X119880777Y-127300800D01*
X118727223Y-127300800D01*
X118671354Y-127707015D01*
G04 #@! TO.C,J1*
D14*
X132896133Y-108642980D02*
X132896133Y-109357266D01*
X132943752Y-109500123D01*
X133038990Y-109595361D01*
X133181847Y-109642980D01*
X133277085Y-109642980D01*
X131896133Y-109642980D02*
X132467561Y-109642980D01*
X132181847Y-109642980D02*
X132181847Y-108642980D01*
X132277085Y-108785838D01*
X132372323Y-108881076D01*
X132467561Y-108928695D01*
X139044238Y-114202400D02*
X139139476Y-114154780D01*
X139282333Y-114154780D01*
X139425190Y-114202400D01*
X139520428Y-114297638D01*
X139568047Y-114392876D01*
X139615666Y-114583352D01*
X139615666Y-114726209D01*
X139568047Y-114916685D01*
X139520428Y-115011923D01*
X139425190Y-115107161D01*
X139282333Y-115154780D01*
X139187095Y-115154780D01*
X139044238Y-115107161D01*
X138996619Y-115059542D01*
X138996619Y-114726209D01*
X139187095Y-114726209D01*
X138568047Y-115154780D02*
X138568047Y-114154780D01*
X137996619Y-115154780D01*
X137996619Y-114154780D01*
X137520428Y-115154780D02*
X137520428Y-114154780D01*
X137282333Y-114154780D01*
X137139476Y-114202400D01*
X137044238Y-114297638D01*
X136996619Y-114392876D01*
X136949000Y-114583352D01*
X136949000Y-114726209D01*
X136996619Y-114916685D01*
X137044238Y-115011923D01*
X137139476Y-115107161D01*
X137282333Y-115154780D01*
X137520428Y-115154780D01*
X136520428Y-114773828D02*
X135758523Y-114773828D01*
X135329952Y-115107161D02*
X135187095Y-115154780D01*
X134949000Y-115154780D01*
X134853761Y-115107161D01*
X134806142Y-115059542D01*
X134758523Y-114964304D01*
X134758523Y-114869066D01*
X134806142Y-114773828D01*
X134853761Y-114726209D01*
X134949000Y-114678590D01*
X135139476Y-114630971D01*
X135234714Y-114583352D01*
X135282333Y-114535733D01*
X135329952Y-114440495D01*
X135329952Y-114345257D01*
X135282333Y-114250019D01*
X135234714Y-114202400D01*
X135139476Y-114154780D01*
X134901380Y-114154780D01*
X134758523Y-114202400D01*
X134329952Y-115154780D02*
X134329952Y-114154780D01*
X133329952Y-114202400D02*
X133425190Y-114154780D01*
X133568047Y-114154780D01*
X133710904Y-114202400D01*
X133806142Y-114297638D01*
X133853761Y-114392876D01*
X133901380Y-114583352D01*
X133901380Y-114726209D01*
X133853761Y-114916685D01*
X133806142Y-115011923D01*
X133710904Y-115107161D01*
X133568047Y-115154780D01*
X133472809Y-115154780D01*
X133329952Y-115107161D01*
X133282333Y-115059542D01*
X133282333Y-114726209D01*
X133472809Y-114726209D01*
G04 #@! TD*
M02*
