M48
; DRILL file {KiCad (5.1.10-1-10_14)} date Saturday, May 22, 2021 at 11:57:07 AM
; FORMAT={-:-/ absolute / inch / decimal}
; #@! TF.CreationDate,2021-05-22T11:57:07+02:00
; #@! TF.GenerationSoftware,Kicad,Pcbnew,(5.1.10-1-10_14)
; #@! TF.FileFunction,Plated,1,2,PTH
FMAT,2
INCH
T1C0.0315
T2C0.0394
T3C0.0492
%
G90
G05
T1
X0.43Y1.59
X0.43Y1.29
X0.555Y1.59
X0.555Y1.29
X0.56Y0.53
X0.56Y0.23
X1.34Y0.53
X1.34Y0.23
X1.47Y0.53
X1.47Y0.23
T2
X1.375Y1.354
X1.475Y1.354
T3
X0.2516Y1.1575
X0.2516Y0.6654
X0.4484Y1.1575
X0.4484Y0.6654
X0.7039Y1.6098
X0.7039Y1.413
X0.7039Y1.0098
X0.7039Y0.813
X0.7039Y0.4098
X0.7039Y0.213
X1.1961Y1.6098
X1.1961Y1.413
X1.1961Y1.0098
X1.1961Y0.813
X1.1961Y0.4098
X1.1961Y0.213
X1.4516Y1.1575
X1.4516Y0.6654
X1.6484Y1.1575
X1.6484Y0.6654
T0
M30
