G04 #@! TF.GenerationSoftware,KiCad,Pcbnew,(5.1.10-1-10_14)*
G04 #@! TF.CreationDate,2021-05-22T11:57:34+02:00*
G04 #@! TF.ProjectId,TecladoEB,5465636c-6164-46f4-9542-2e6b69636164,v1.3*
G04 #@! TF.SameCoordinates,PX5f5e100PY8b85c60*
G04 #@! TF.FileFunction,Legend,Bot*
G04 #@! TF.FilePolarity,Positive*
%FSLAX46Y46*%
G04 Gerber Fmt 4.6, Leading zero omitted, Abs format (unit mm)*
G04 Created by KiCad (PCBNEW (5.1.10-1-10_14)) date 2021-05-22 11:57:34*
%MOMM*%
%LPD*%
G01*
G04 APERTURE LIST*
%ADD10C,0.200000*%
%ADD11C,0.350000*%
%ADD12C,0.120000*%
%ADD13C,0.010000*%
%ADD14C,0.150000*%
G04 APERTURE END LIST*
D10*
X12800000Y2300000D02*
X12800000Y27600000D01*
X35509427Y2286000D02*
X12801600Y2286000D01*
X35500000Y27600000D02*
X35509200Y2286000D01*
X12800000Y27600000D02*
X35500000Y27600000D01*
X29916361Y7225696D02*
X29916361Y8546496D01*
X29161619Y7225696D02*
X29727676Y7980439D01*
X29161619Y8546496D02*
X29916361Y7791753D01*
X28092400Y7288591D02*
X28218190Y7225696D01*
X28469771Y7225696D01*
X28595561Y7288591D01*
X28658457Y7414381D01*
X28658457Y7917543D01*
X28595561Y8043334D01*
X28469771Y8106229D01*
X28218190Y8106229D01*
X28092400Y8043334D01*
X28029504Y7917543D01*
X28029504Y7791753D01*
X28658457Y7665962D01*
X27589238Y8106229D02*
X27274761Y7225696D01*
X26960285Y8106229D02*
X27274761Y7225696D01*
X27400552Y6911220D01*
X27463447Y6848324D01*
X27589238Y6785429D01*
X26457123Y8106229D02*
X26457123Y6785429D01*
X26457123Y8043334D02*
X26331333Y8106229D01*
X26079752Y8106229D01*
X25953961Y8043334D01*
X25891066Y7980439D01*
X25828171Y7854648D01*
X25828171Y7477277D01*
X25891066Y7351486D01*
X25953961Y7288591D01*
X26079752Y7225696D01*
X26331333Y7225696D01*
X26457123Y7288591D01*
X24696057Y7225696D02*
X24696057Y7917543D01*
X24758952Y8043334D01*
X24884742Y8106229D01*
X25136323Y8106229D01*
X25262114Y8043334D01*
X24696057Y7288591D02*
X24821847Y7225696D01*
X25136323Y7225696D01*
X25262114Y7288591D01*
X25325009Y7414381D01*
X25325009Y7540172D01*
X25262114Y7665962D01*
X25136323Y7728858D01*
X24821847Y7728858D01*
X24696057Y7791753D01*
X23501047Y7225696D02*
X23501047Y8546496D01*
X23501047Y7288591D02*
X23626838Y7225696D01*
X23878419Y7225696D01*
X24004209Y7288591D01*
X24067104Y7351486D01*
X24130000Y7477277D01*
X24130000Y7854648D01*
X24067104Y7980439D01*
X24004209Y8043334D01*
X23878419Y8106229D01*
X23626838Y8106229D01*
X23501047Y8043334D01*
X21991561Y8106229D02*
X21677085Y7225696D01*
X21362609Y8106229D01*
X20167600Y7225696D02*
X20922342Y7225696D01*
X20544971Y7225696D02*
X20544971Y8546496D01*
X20670761Y8357810D01*
X20796552Y8232020D01*
X20922342Y8169124D01*
X19601542Y7351486D02*
X19538647Y7288591D01*
X19601542Y7225696D01*
X19664438Y7288591D01*
X19601542Y7351486D01*
X19601542Y7225696D01*
X19098380Y8546496D02*
X18280742Y8546496D01*
X18721009Y8043334D01*
X18532323Y8043334D01*
X18406533Y7980439D01*
X18343638Y7917543D01*
X18280742Y7791753D01*
X18280742Y7477277D01*
X18343638Y7351486D01*
X18406533Y7288591D01*
X18532323Y7225696D01*
X18909695Y7225696D01*
X19035485Y7288591D01*
X19098380Y7351486D01*
X32954685Y23368215D02*
X32531352Y23368215D01*
X32349923Y22702977D02*
X32954685Y22702977D01*
X32954685Y23972977D01*
X32349923Y23972977D01*
X31866114Y22763453D02*
X31745161Y22702977D01*
X31503257Y22702977D01*
X31382304Y22763453D01*
X31321828Y22884405D01*
X31321828Y22944881D01*
X31382304Y23065834D01*
X31503257Y23126310D01*
X31684685Y23126310D01*
X31805638Y23186786D01*
X31866114Y23307739D01*
X31866114Y23368215D01*
X31805638Y23489167D01*
X31684685Y23549643D01*
X31503257Y23549643D01*
X31382304Y23489167D01*
X30233257Y22763453D02*
X30354209Y22702977D01*
X30596114Y22702977D01*
X30717066Y22763453D01*
X30777542Y22823929D01*
X30838019Y22944881D01*
X30838019Y23307739D01*
X30777542Y23428691D01*
X30717066Y23489167D01*
X30596114Y23549643D01*
X30354209Y23549643D01*
X30233257Y23489167D01*
X29507542Y22702977D02*
X29628495Y22763453D01*
X29688971Y22823929D01*
X29749447Y22944881D01*
X29749447Y23307739D01*
X29688971Y23428691D01*
X29628495Y23489167D01*
X29507542Y23549643D01*
X29326114Y23549643D01*
X29205161Y23489167D01*
X29144685Y23428691D01*
X29084209Y23307739D01*
X29084209Y22944881D01*
X29144685Y22823929D01*
X29205161Y22763453D01*
X29326114Y22702977D01*
X29507542Y22702977D01*
X28539923Y22702977D02*
X28539923Y23549643D01*
X28539923Y23307739D02*
X28479447Y23428691D01*
X28418971Y23489167D01*
X28298019Y23549643D01*
X28177066Y23549643D01*
X27753733Y23549643D02*
X27753733Y22702977D01*
X27753733Y23428691D02*
X27693257Y23489167D01*
X27572304Y23549643D01*
X27390876Y23549643D01*
X27269923Y23489167D01*
X27209447Y23368215D01*
X27209447Y22702977D01*
X26060400Y22702977D02*
X26060400Y23368215D01*
X26120876Y23489167D01*
X26241828Y23549643D01*
X26483733Y23549643D01*
X26604685Y23489167D01*
X26060400Y22763453D02*
X26181352Y22702977D01*
X26483733Y22702977D01*
X26604685Y22763453D01*
X26665161Y22884405D01*
X26665161Y23005358D01*
X26604685Y23126310D01*
X26483733Y23186786D01*
X26181352Y23186786D01*
X26060400Y23247262D01*
X25455638Y22702977D02*
X25455638Y23972977D01*
X25455638Y23489167D02*
X25334685Y23549643D01*
X25092780Y23549643D01*
X24971828Y23489167D01*
X24911352Y23428691D01*
X24850876Y23307739D01*
X24850876Y22944881D01*
X24911352Y22823929D01*
X24971828Y22763453D01*
X25092780Y22702977D01*
X25334685Y22702977D01*
X25455638Y22763453D01*
X24125161Y22702977D02*
X24246114Y22763453D01*
X24306590Y22823929D01*
X24367066Y22944881D01*
X24367066Y23307739D01*
X24306590Y23428691D01*
X24246114Y23489167D01*
X24125161Y23549643D01*
X23943733Y23549643D01*
X23822780Y23489167D01*
X23762304Y23428691D01*
X23701828Y23307739D01*
X23701828Y22944881D01*
X23762304Y22823929D01*
X23822780Y22763453D01*
X23943733Y22702977D01*
X24125161Y22702977D01*
X23338971Y23549643D02*
X22855161Y23549643D01*
X23157542Y23972977D02*
X23157542Y22884405D01*
X23097066Y22763453D01*
X22976114Y22702977D01*
X22855161Y22702977D01*
X21464209Y22702977D02*
X21464209Y23972977D01*
X20980400Y23972977D01*
X20859447Y23912500D01*
X20798971Y23852024D01*
X20738495Y23731072D01*
X20738495Y23549643D01*
X20798971Y23428691D01*
X20859447Y23368215D01*
X20980400Y23307739D01*
X21464209Y23307739D01*
X20194209Y22702977D02*
X20194209Y23549643D01*
X20194209Y23307739D02*
X20133733Y23428691D01*
X20073257Y23489167D01*
X19952304Y23549643D01*
X19831352Y23549643D01*
X19226590Y22702977D02*
X19347542Y22763453D01*
X19408019Y22823929D01*
X19468495Y22944881D01*
X19468495Y23307739D01*
X19408019Y23428691D01*
X19347542Y23489167D01*
X19226590Y23549643D01*
X19045161Y23549643D01*
X18924209Y23489167D01*
X18863733Y23428691D01*
X18803257Y23307739D01*
X18803257Y22944881D01*
X18863733Y22823929D01*
X18924209Y22763453D01*
X19045161Y22702977D01*
X19226590Y22702977D01*
X18258971Y23549643D02*
X18258971Y22461072D01*
X18319447Y22340120D01*
X18440400Y22279643D01*
X18500876Y22279643D01*
X18258971Y23972977D02*
X18319447Y23912500D01*
X18258971Y23852024D01*
X18198495Y23912500D01*
X18258971Y23972977D01*
X18258971Y23852024D01*
X17170400Y22763453D02*
X17291352Y22702977D01*
X17533257Y22702977D01*
X17654209Y22763453D01*
X17714685Y22884405D01*
X17714685Y23368215D01*
X17654209Y23489167D01*
X17533257Y23549643D01*
X17291352Y23549643D01*
X17170400Y23489167D01*
X17109923Y23368215D01*
X17109923Y23247262D01*
X17714685Y23126310D01*
X16021352Y22763453D02*
X16142304Y22702977D01*
X16384209Y22702977D01*
X16505161Y22763453D01*
X16565638Y22823929D01*
X16626114Y22944881D01*
X16626114Y23307739D01*
X16565638Y23428691D01*
X16505161Y23489167D01*
X16384209Y23549643D01*
X16142304Y23549643D01*
X16021352Y23489167D01*
X15658495Y23549643D02*
X15174685Y23549643D01*
X15477066Y23972977D02*
X15477066Y22884405D01*
X15416590Y22763453D01*
X15295638Y22702977D01*
X15174685Y22702977D01*
X26272066Y21867977D02*
X26030161Y21867977D01*
X25909209Y21807500D01*
X25788257Y21686548D01*
X25727780Y21444643D01*
X25727780Y21021310D01*
X25788257Y20779405D01*
X25909209Y20658453D01*
X26030161Y20597977D01*
X26272066Y20597977D01*
X26393019Y20658453D01*
X26513971Y20779405D01*
X26574447Y21021310D01*
X26574447Y21444643D01*
X26513971Y21686548D01*
X26393019Y21807500D01*
X26272066Y21867977D01*
X25243971Y20658453D02*
X25062542Y20597977D01*
X24760161Y20597977D01*
X24639209Y20658453D01*
X24578733Y20718929D01*
X24518257Y20839881D01*
X24518257Y20960834D01*
X24578733Y21081786D01*
X24639209Y21142262D01*
X24760161Y21202739D01*
X25002066Y21263215D01*
X25123019Y21323691D01*
X25183495Y21384167D01*
X25243971Y21505120D01*
X25243971Y21626072D01*
X25183495Y21747024D01*
X25123019Y21807500D01*
X25002066Y21867977D01*
X24699685Y21867977D01*
X24518257Y21807500D01*
X23973971Y20597977D02*
X23973971Y21867977D01*
X23973971Y21263215D02*
X23248257Y21263215D01*
X23248257Y20597977D02*
X23248257Y21867977D01*
X22764447Y21867977D02*
X22462066Y20597977D01*
X22220161Y21505120D01*
X21978257Y20597977D01*
X21675876Y21867977D01*
D11*
X8680000Y5080000D02*
G75*
G03*
X8680000Y5080000I-3600000J0D01*
G01*
X46780000Y40700000D02*
G75*
G03*
X46780000Y40700000I-3600000J0D01*
G01*
X46780000Y5080000D02*
G75*
G03*
X46780000Y5080000I-3600000J0D01*
G01*
X8680000Y40700000D02*
G75*
G03*
X8680000Y40700000I-3600000J0D01*
G01*
D12*
X38735000Y33121600D02*
X38735000Y34391600D01*
X37465000Y33121600D02*
X38735000Y33121600D01*
X34545000Y35434529D02*
X34545000Y35831600D01*
X35305000Y35434529D02*
X35305000Y35831600D01*
X34545000Y44491600D02*
X34545000Y38491600D01*
X35305000Y44491600D02*
X34545000Y44491600D01*
X35305000Y38491600D02*
X35305000Y44491600D01*
X36195000Y35831600D02*
X36195000Y38491600D01*
X37085000Y35501600D02*
X37085000Y35831600D01*
X37845000Y35501600D02*
X37845000Y35831600D01*
X37185000Y38491600D02*
X37185000Y44491600D01*
X37305000Y38491600D02*
X37305000Y44491600D01*
X37425000Y38491600D02*
X37425000Y44491600D01*
X37545000Y38491600D02*
X37545000Y44491600D01*
X37665000Y38491600D02*
X37665000Y44491600D01*
X37785000Y38491600D02*
X37785000Y44491600D01*
X37085000Y44491600D02*
X37085000Y38491600D01*
X37845000Y44491600D02*
X37085000Y44491600D01*
X37845000Y38491600D02*
X37845000Y44491600D01*
X38795000Y38491600D02*
X38795000Y35831600D01*
X33595000Y38491600D02*
X38795000Y38491600D01*
X33595000Y35831600D02*
X33595000Y38491600D01*
X38795000Y35831600D02*
X33595000Y35831600D01*
D13*
G36*
X29683184Y12461375D02*
G01*
X28893045Y12457111D01*
X27948637Y12450263D01*
X27834167Y12449366D01*
X27287191Y12443188D01*
X26887805Y12433206D01*
X26614274Y12417411D01*
X26444865Y12393796D01*
X26357843Y12360353D01*
X26331475Y12315074D01*
X26331333Y12310533D01*
X26348994Y12275992D01*
X26412680Y12248214D01*
X26538448Y12226488D01*
X26742353Y12210109D01*
X27040450Y12198366D01*
X27448797Y12190552D01*
X27983448Y12185958D01*
X28660460Y12183876D01*
X29210000Y12183533D01*
X29992925Y12184312D01*
X30622578Y12187122D01*
X31115015Y12192671D01*
X31486291Y12201666D01*
X31752462Y12214818D01*
X31929584Y12232833D01*
X32033714Y12256421D01*
X32080906Y12286289D01*
X32088667Y12310533D01*
X32077041Y12349420D01*
X32033127Y12381744D01*
X31943372Y12407946D01*
X31794222Y12428469D01*
X31572124Y12443755D01*
X31263525Y12454246D01*
X30854871Y12460385D01*
X30332608Y12462614D01*
X29683184Y12461375D01*
G37*
X29683184Y12461375D02*
X28893045Y12457111D01*
X27948637Y12450263D01*
X27834167Y12449366D01*
X27287191Y12443188D01*
X26887805Y12433206D01*
X26614274Y12417411D01*
X26444865Y12393796D01*
X26357843Y12360353D01*
X26331475Y12315074D01*
X26331333Y12310533D01*
X26348994Y12275992D01*
X26412680Y12248214D01*
X26538448Y12226488D01*
X26742353Y12210109D01*
X27040450Y12198366D01*
X27448797Y12190552D01*
X27983448Y12185958D01*
X28660460Y12183876D01*
X29210000Y12183533D01*
X29992925Y12184312D01*
X30622578Y12187122D01*
X31115015Y12192671D01*
X31486291Y12201666D01*
X31752462Y12214818D01*
X31929584Y12232833D01*
X32033714Y12256421D01*
X32080906Y12286289D01*
X32088667Y12310533D01*
X32077041Y12349420D01*
X32033127Y12381744D01*
X31943372Y12407946D01*
X31794222Y12428469D01*
X31572124Y12443755D01*
X31263525Y12454246D01*
X30854871Y12460385D01*
X30332608Y12462614D01*
X29683184Y12461375D01*
G36*
X28477776Y12986743D02*
G01*
X28463278Y12846332D01*
X28537255Y12669028D01*
X28664335Y12638401D01*
X28781249Y12727338D01*
X28843100Y12887703D01*
X28757442Y12999956D01*
X28606448Y13030200D01*
X28477776Y12986743D01*
G37*
X28477776Y12986743D02*
X28463278Y12846332D01*
X28537255Y12669028D01*
X28664335Y12638401D01*
X28781249Y12727338D01*
X28843100Y12887703D01*
X28757442Y12999956D01*
X28606448Y13030200D01*
X28477776Y12986743D01*
G36*
X29407163Y12970331D02*
G01*
X29379333Y12860866D01*
X29439202Y12719362D01*
X29548667Y12691533D01*
X29690171Y12751402D01*
X29718000Y12860866D01*
X29658132Y13002371D01*
X29548667Y13030200D01*
X29407163Y12970331D01*
G37*
X29407163Y12970331D02*
X29379333Y12860866D01*
X29439202Y12719362D01*
X29548667Y12691533D01*
X29690171Y12751402D01*
X29718000Y12860866D01*
X29658132Y13002371D01*
X29548667Y13030200D01*
X29407163Y12970331D01*
G36*
X27632778Y18299195D02*
G01*
X27194440Y18187094D01*
X26901734Y18077874D01*
X26740162Y17984294D01*
X26676047Y17883127D01*
X26670000Y17825385D01*
X26751644Y17553985D01*
X26986996Y17270514D01*
X27361687Y16983487D01*
X27861348Y16701418D01*
X28471611Y16432824D01*
X29178105Y16186218D01*
X29678079Y16042817D01*
X30776333Y15752567D01*
X30131023Y15746050D01*
X29612352Y15707104D01*
X29025732Y15609090D01*
X28429618Y15466147D01*
X27882467Y15292418D01*
X27442734Y15102041D01*
X27421386Y15090585D01*
X27147407Y14911565D01*
X26874148Y14684144D01*
X26637371Y14444302D01*
X26472837Y14228020D01*
X26416000Y14079059D01*
X26493827Y13932007D01*
X26705684Y13767544D01*
X27019136Y13599289D01*
X27401750Y13440865D01*
X27821088Y13305893D01*
X28244718Y13207996D01*
X28596648Y13163244D01*
X28978955Y13154266D01*
X29372633Y13169967D01*
X29614039Y13196011D01*
X30178024Y13344350D01*
X30712669Y13595002D01*
X31187267Y13924406D01*
X31571111Y14309003D01*
X31833495Y14725232D01*
X31915587Y14961914D01*
X31975329Y15542259D01*
X31869748Y16099050D01*
X31598108Y16633666D01*
X31159671Y17147483D01*
X30553699Y17641878D01*
X30437667Y17721611D01*
X29796099Y18059994D01*
X29087104Y18273022D01*
X28352168Y18354740D01*
X27632778Y18299195D01*
G37*
X27632778Y18299195D02*
X27194440Y18187094D01*
X26901734Y18077874D01*
X26740162Y17984294D01*
X26676047Y17883127D01*
X26670000Y17825385D01*
X26751644Y17553985D01*
X26986996Y17270514D01*
X27361687Y16983487D01*
X27861348Y16701418D01*
X28471611Y16432824D01*
X29178105Y16186218D01*
X29678079Y16042817D01*
X30776333Y15752567D01*
X30131023Y15746050D01*
X29612352Y15707104D01*
X29025732Y15609090D01*
X28429618Y15466147D01*
X27882467Y15292418D01*
X27442734Y15102041D01*
X27421386Y15090585D01*
X27147407Y14911565D01*
X26874148Y14684144D01*
X26637371Y14444302D01*
X26472837Y14228020D01*
X26416000Y14079059D01*
X26493827Y13932007D01*
X26705684Y13767544D01*
X27019136Y13599289D01*
X27401750Y13440865D01*
X27821088Y13305893D01*
X28244718Y13207996D01*
X28596648Y13163244D01*
X28978955Y13154266D01*
X29372633Y13169967D01*
X29614039Y13196011D01*
X30178024Y13344350D01*
X30712669Y13595002D01*
X31187267Y13924406D01*
X31571111Y14309003D01*
X31833495Y14725232D01*
X31915587Y14961914D01*
X31975329Y15542259D01*
X31869748Y16099050D01*
X31598108Y16633666D01*
X31159671Y17147483D01*
X30553699Y17641878D01*
X30437667Y17721611D01*
X29796099Y18059994D01*
X29087104Y18273022D01*
X28352168Y18354740D01*
X27632778Y18299195D01*
G36*
X32249889Y16732164D02*
G01*
X32214485Y16646129D01*
X32191651Y16473536D01*
X32178914Y16190496D01*
X32173804Y15773116D01*
X32173333Y15527866D01*
X32175751Y15040235D01*
X32184651Y14697998D01*
X32202506Y14477265D01*
X32231786Y14354145D01*
X32274963Y14304746D01*
X32300333Y14300200D01*
X32350778Y14323569D01*
X32386182Y14409604D01*
X32409016Y14582197D01*
X32421753Y14865237D01*
X32426863Y15282617D01*
X32427333Y15527866D01*
X32424916Y16015498D01*
X32416016Y16357735D01*
X32398161Y16578468D01*
X32368881Y16701588D01*
X32325704Y16750987D01*
X32300333Y16755533D01*
X32249889Y16732164D01*
G37*
X32249889Y16732164D02*
X32214485Y16646129D01*
X32191651Y16473536D01*
X32178914Y16190496D01*
X32173804Y15773116D01*
X32173333Y15527866D01*
X32175751Y15040235D01*
X32184651Y14697998D01*
X32202506Y14477265D01*
X32231786Y14354145D01*
X32274963Y14304746D01*
X32300333Y14300200D01*
X32350778Y14323569D01*
X32386182Y14409604D01*
X32409016Y14582197D01*
X32421753Y14865237D01*
X32426863Y15282617D01*
X32427333Y15527866D01*
X32424916Y16015498D01*
X32416016Y16357735D01*
X32398161Y16578468D01*
X32368881Y16701588D01*
X32325704Y16750987D01*
X32300333Y16755533D01*
X32249889Y16732164D01*
G36*
X26102543Y16833530D02*
G01*
X26054282Y16796715D01*
X26022722Y16704542D01*
X26004324Y16531802D01*
X25995545Y16253283D01*
X25992844Y15843775D01*
X25992667Y15570200D01*
X25994970Y15073146D01*
X26003450Y14721845D01*
X26020460Y14492761D01*
X26048354Y14362357D01*
X26089485Y14307097D01*
X26119667Y14300200D01*
X26234192Y14334783D01*
X26249508Y14363700D01*
X26281020Y15074886D01*
X26304238Y15634959D01*
X26318590Y16061965D01*
X26323506Y16373947D01*
X26318412Y16588951D01*
X26302738Y16725021D01*
X26275911Y16800202D01*
X26237360Y16832539D01*
X26186514Y16840076D01*
X26171046Y16840200D01*
X26102543Y16833530D01*
G37*
X26102543Y16833530D02*
X26054282Y16796715D01*
X26022722Y16704542D01*
X26004324Y16531802D01*
X25995545Y16253283D01*
X25992844Y15843775D01*
X25992667Y15570200D01*
X25994970Y15073146D01*
X26003450Y14721845D01*
X26020460Y14492761D01*
X26048354Y14362357D01*
X26089485Y14307097D01*
X26119667Y14300200D01*
X26234192Y14334783D01*
X26249508Y14363700D01*
X26281020Y15074886D01*
X26304238Y15634959D01*
X26318590Y16061965D01*
X26323506Y16373947D01*
X26318412Y16588951D01*
X26302738Y16725021D01*
X26275911Y16800202D01*
X26237360Y16832539D01*
X26186514Y16840076D01*
X26171046Y16840200D01*
X26102543Y16833530D01*
G36*
X28427075Y18956087D02*
G01*
X27797422Y18953278D01*
X27304985Y18947729D01*
X26933709Y18938733D01*
X26667538Y18925582D01*
X26490416Y18907567D01*
X26386287Y18883979D01*
X26339094Y18854111D01*
X26331333Y18829866D01*
X26348994Y18795326D01*
X26412680Y18767547D01*
X26538448Y18745822D01*
X26742353Y18729442D01*
X27040450Y18717699D01*
X27448797Y18709885D01*
X27983448Y18705291D01*
X28660460Y18703209D01*
X29210000Y18702866D01*
X29992925Y18703646D01*
X30622578Y18706455D01*
X31115015Y18712004D01*
X31486291Y18721000D01*
X31752462Y18734151D01*
X31929584Y18752166D01*
X32033714Y18775754D01*
X32080906Y18805622D01*
X32088667Y18829866D01*
X32071006Y18864407D01*
X32007320Y18892186D01*
X31881552Y18913911D01*
X31677648Y18930291D01*
X31379550Y18942034D01*
X30971203Y18949848D01*
X30436552Y18954442D01*
X29759540Y18956524D01*
X29210000Y18956866D01*
X28427075Y18956087D01*
G37*
X28427075Y18956087D02*
X27797422Y18953278D01*
X27304985Y18947729D01*
X26933709Y18938733D01*
X26667538Y18925582D01*
X26490416Y18907567D01*
X26386287Y18883979D01*
X26339094Y18854111D01*
X26331333Y18829866D01*
X26348994Y18795326D01*
X26412680Y18767547D01*
X26538448Y18745822D01*
X26742353Y18729442D01*
X27040450Y18717699D01*
X27448797Y18709885D01*
X27983448Y18705291D01*
X28660460Y18703209D01*
X29210000Y18702866D01*
X29992925Y18703646D01*
X30622578Y18706455D01*
X31115015Y18712004D01*
X31486291Y18721000D01*
X31752462Y18734151D01*
X31929584Y18752166D01*
X32033714Y18775754D01*
X32080906Y18805622D01*
X32088667Y18829866D01*
X32071006Y18864407D01*
X32007320Y18892186D01*
X31881552Y18913911D01*
X31677648Y18930291D01*
X31379550Y18942034D01*
X30971203Y18949848D01*
X30436552Y18954442D01*
X29759540Y18956524D01*
X29210000Y18956866D01*
X28427075Y18956087D01*
G36*
X18671354Y18592985D02*
G01*
X18618545Y18284313D01*
X18543845Y18093941D01*
X18414112Y17971208D01*
X18196206Y17865454D01*
X18195112Y17864997D01*
X18026059Y17802044D01*
X17894641Y17794043D01*
X17747055Y17854310D01*
X17529503Y17996161D01*
X17454460Y18048313D01*
X17012429Y18356401D01*
X16618897Y17962869D01*
X16225364Y17569337D01*
X16837324Y16695159D01*
X16694829Y16386680D01*
X16582398Y16163269D01*
X16470649Y16035399D01*
X16305307Y15966722D01*
X16032097Y15920890D01*
X15991159Y15915421D01*
X15578667Y15860702D01*
X15578667Y14700712D01*
X16039423Y14643144D01*
X16306893Y14602758D01*
X16460982Y14540961D01*
X16556693Y14418422D01*
X16643044Y14211492D01*
X16785908Y13837407D01*
X16261410Y13031097D01*
X16615000Y12670816D01*
X16818342Y12477927D01*
X16983034Y12347181D01*
X17058308Y12310534D01*
X17177706Y12354919D01*
X17374482Y12466920D01*
X17469100Y12528710D01*
X17696305Y12663152D01*
X17867555Y12699792D01*
X18025054Y12665006D01*
X18129761Y12633809D01*
X18210365Y12642461D01*
X18285651Y12715674D01*
X18374401Y12878158D01*
X18495402Y13154624D01*
X18613371Y13438938D01*
X18966808Y14294750D01*
X18714109Y14492517D01*
X18459547Y14781842D01*
X18341985Y15115193D01*
X18349843Y15458198D01*
X18471543Y15776482D01*
X18695504Y16035673D01*
X19010150Y16201396D01*
X19304000Y16243685D01*
X19683090Y16169169D01*
X19989229Y15967831D01*
X20197152Y15672990D01*
X20281592Y15317962D01*
X20241575Y15007312D01*
X20108949Y14738334D01*
X19913307Y14508406D01*
X19893892Y14492517D01*
X19641192Y14294750D01*
X19994630Y13438938D01*
X20150581Y13064844D01*
X20260724Y12822568D01*
X20343842Y12687400D01*
X20418721Y12634629D01*
X20504145Y12639544D01*
X20582947Y12665006D01*
X20761485Y12699977D01*
X20936037Y12651841D01*
X21138900Y12528710D01*
X21350688Y12397199D01*
X21511090Y12319499D01*
X21549693Y12310534D01*
X21653043Y12366898D01*
X21828959Y12512969D01*
X21993000Y12670816D01*
X22346590Y13031097D01*
X21822092Y13837407D01*
X21964956Y14211492D01*
X22056035Y14427505D01*
X22153550Y14545632D01*
X22312502Y14605204D01*
X22568577Y14643144D01*
X23029333Y14700712D01*
X23029333Y15860702D01*
X22616842Y15915421D01*
X22327689Y15960956D01*
X22152669Y16025141D01*
X22037505Y16144324D01*
X21927923Y16354852D01*
X21913172Y16386680D01*
X21770676Y16695159D01*
X22382636Y17569337D01*
X21991165Y17960807D01*
X21599695Y18352278D01*
X21144837Y18050270D01*
X20893491Y17888878D01*
X20728381Y17810640D01*
X20596326Y17802609D01*
X20444142Y17851835D01*
X20401889Y17869395D01*
X20189140Y17973766D01*
X20062187Y18096445D01*
X19988581Y18287897D01*
X19936646Y18592985D01*
X19880777Y18999200D01*
X18727223Y18999200D01*
X18671354Y18592985D01*
G37*
X18671354Y18592985D02*
X18618545Y18284313D01*
X18543845Y18093941D01*
X18414112Y17971208D01*
X18196206Y17865454D01*
X18195112Y17864997D01*
X18026059Y17802044D01*
X17894641Y17794043D01*
X17747055Y17854310D01*
X17529503Y17996161D01*
X17454460Y18048313D01*
X17012429Y18356401D01*
X16618897Y17962869D01*
X16225364Y17569337D01*
X16837324Y16695159D01*
X16694829Y16386680D01*
X16582398Y16163269D01*
X16470649Y16035399D01*
X16305307Y15966722D01*
X16032097Y15920890D01*
X15991159Y15915421D01*
X15578667Y15860702D01*
X15578667Y14700712D01*
X16039423Y14643144D01*
X16306893Y14602758D01*
X16460982Y14540961D01*
X16556693Y14418422D01*
X16643044Y14211492D01*
X16785908Y13837407D01*
X16261410Y13031097D01*
X16615000Y12670816D01*
X16818342Y12477927D01*
X16983034Y12347181D01*
X17058308Y12310534D01*
X17177706Y12354919D01*
X17374482Y12466920D01*
X17469100Y12528710D01*
X17696305Y12663152D01*
X17867555Y12699792D01*
X18025054Y12665006D01*
X18129761Y12633809D01*
X18210365Y12642461D01*
X18285651Y12715674D01*
X18374401Y12878158D01*
X18495402Y13154624D01*
X18613371Y13438938D01*
X18966808Y14294750D01*
X18714109Y14492517D01*
X18459547Y14781842D01*
X18341985Y15115193D01*
X18349843Y15458198D01*
X18471543Y15776482D01*
X18695504Y16035673D01*
X19010150Y16201396D01*
X19304000Y16243685D01*
X19683090Y16169169D01*
X19989229Y15967831D01*
X20197152Y15672990D01*
X20281592Y15317962D01*
X20241575Y15007312D01*
X20108949Y14738334D01*
X19913307Y14508406D01*
X19893892Y14492517D01*
X19641192Y14294750D01*
X19994630Y13438938D01*
X20150581Y13064844D01*
X20260724Y12822568D01*
X20343842Y12687400D01*
X20418721Y12634629D01*
X20504145Y12639544D01*
X20582947Y12665006D01*
X20761485Y12699977D01*
X20936037Y12651841D01*
X21138900Y12528710D01*
X21350688Y12397199D01*
X21511090Y12319499D01*
X21549693Y12310534D01*
X21653043Y12366898D01*
X21828959Y12512969D01*
X21993000Y12670816D01*
X22346590Y13031097D01*
X21822092Y13837407D01*
X21964956Y14211492D01*
X22056035Y14427505D01*
X22153550Y14545632D01*
X22312502Y14605204D01*
X22568577Y14643144D01*
X23029333Y14700712D01*
X23029333Y15860702D01*
X22616842Y15915421D01*
X22327689Y15960956D01*
X22152669Y16025141D01*
X22037505Y16144324D01*
X21927923Y16354852D01*
X21913172Y16386680D01*
X21770676Y16695159D01*
X22382636Y17569337D01*
X21991165Y17960807D01*
X21599695Y18352278D01*
X21144837Y18050270D01*
X20893491Y17888878D01*
X20728381Y17810640D01*
X20596326Y17802609D01*
X20444142Y17851835D01*
X20401889Y17869395D01*
X20189140Y17973766D01*
X20062187Y18096445D01*
X19988581Y18287897D01*
X19936646Y18592985D01*
X19880777Y18999200D01*
X18727223Y18999200D01*
X18671354Y18592985D01*
D14*
X40211333Y37377620D02*
X40211333Y36663334D01*
X40258952Y36520477D01*
X40354190Y36425239D01*
X40497047Y36377620D01*
X40592285Y36377620D01*
X39211333Y36377620D02*
X39782761Y36377620D01*
X39497047Y36377620D02*
X39497047Y37377620D01*
X39592285Y37234762D01*
X39687523Y37139524D01*
X39782761Y37091905D01*
X38089857Y32404000D02*
X38161285Y32442096D01*
X38268428Y32442096D01*
X38375571Y32404000D01*
X38447000Y32327810D01*
X38482714Y32251620D01*
X38518428Y32099239D01*
X38518428Y31984953D01*
X38482714Y31832572D01*
X38447000Y31756381D01*
X38375571Y31680191D01*
X38268428Y31642096D01*
X38197000Y31642096D01*
X38089857Y31680191D01*
X38054142Y31718286D01*
X38054142Y31984953D01*
X38197000Y31984953D01*
X37732714Y31642096D02*
X37732714Y32442096D01*
X37304142Y31642096D01*
X37304142Y32442096D01*
X36947000Y31642096D02*
X36947000Y32442096D01*
X36768428Y32442096D01*
X36661285Y32404000D01*
X36589857Y32327810D01*
X36554142Y32251620D01*
X36518428Y32099239D01*
X36518428Y31984953D01*
X36554142Y31832572D01*
X36589857Y31756381D01*
X36661285Y31680191D01*
X36768428Y31642096D01*
X36947000Y31642096D01*
X35661285Y31680191D02*
X35554142Y31642096D01*
X35375571Y31642096D01*
X35304142Y31680191D01*
X35268428Y31718286D01*
X35232714Y31794477D01*
X35232714Y31870667D01*
X35268428Y31946858D01*
X35304142Y31984953D01*
X35375571Y32023048D01*
X35518428Y32061143D01*
X35589857Y32099239D01*
X35625571Y32137334D01*
X35661285Y32213524D01*
X35661285Y32289715D01*
X35625571Y32365905D01*
X35589857Y32404000D01*
X35518428Y32442096D01*
X35339857Y32442096D01*
X35232714Y32404000D01*
X34911285Y31642096D02*
X34911285Y32442096D01*
X34161285Y32404000D02*
X34232714Y32442096D01*
X34339857Y32442096D01*
X34447000Y32404000D01*
X34518428Y32327810D01*
X34554142Y32251620D01*
X34589857Y32099239D01*
X34589857Y31984953D01*
X34554142Y31832572D01*
X34518428Y31756381D01*
X34447000Y31680191D01*
X34339857Y31642096D01*
X34268428Y31642096D01*
X34161285Y31680191D01*
X34125571Y31718286D01*
X34125571Y31984953D01*
X34268428Y31984953D01*
M02*
