G04 #@! TF.GenerationSoftware,KiCad,Pcbnew,(5.1.10-1-10_14)*
G04 #@! TF.CreationDate,2021-05-21T10:43:49+02:00*
G04 #@! TF.ProjectId,TecladoEB,5465636c-6164-46f4-9542-2e6b69636164,v1.3*
G04 #@! TF.SameCoordinates,PX5f5e100PY8b85c60*
G04 #@! TF.FileFunction,Soldermask,Bot*
G04 #@! TF.FilePolarity,Negative*
%FSLAX46Y46*%
G04 Gerber Fmt 4.6, Leading zero omitted, Abs format (unit mm)*
G04 Created by KiCad (PCBNEW (5.1.10-1-10_14)) date 2021-05-21 10:43:49*
%MOMM*%
%LPD*%
G01*
G04 APERTURE LIST*
%ADD10C,2.000000*%
%ADD11O,2.000000X2.000000*%
%ADD12C,1.850200*%
%ADD13C,2.400000*%
%ADD14C,3.199800*%
%ADD15O,2.100000X2.100000*%
G04 APERTURE END LIST*
D10*
X34036000Y13462000D03*
D11*
X34036000Y5842000D03*
D10*
X37338000Y5842000D03*
D11*
X37338000Y13462000D03*
D10*
X14224000Y5842000D03*
D11*
X14224000Y13462000D03*
D10*
X10922000Y32766000D03*
D11*
X10922000Y40386000D03*
D10*
X14097000Y32766000D03*
D11*
X14097000Y40386000D03*
D12*
X24130000Y27650000D03*
X24130000Y18650000D03*
D13*
X30380000Y20650000D03*
X17880000Y20650000D03*
X30380000Y25650000D03*
X17880000Y25650000D03*
D12*
X43870000Y23150000D03*
X34870000Y23150000D03*
D13*
X36870000Y16900000D03*
X36870000Y29400000D03*
X41870000Y16900000D03*
X41870000Y29400000D03*
D12*
X24130000Y3410000D03*
X24130000Y12410000D03*
D13*
X17880000Y10410000D03*
X30380000Y10410000D03*
X17880000Y5410000D03*
X30380000Y5410000D03*
D12*
X24130000Y42890000D03*
X24130000Y33890000D03*
D13*
X30380000Y35890000D03*
X17880000Y35890000D03*
X30380000Y40890000D03*
X17880000Y40890000D03*
D12*
X4390000Y23150000D03*
X13390000Y23150000D03*
D13*
X11390000Y29400000D03*
X11390000Y16900000D03*
X6390000Y29400000D03*
X6390000Y16900000D03*
D14*
X5080000Y5080000D03*
X43180000Y40700000D03*
X43180000Y5080000D03*
X5080000Y40700000D03*
D15*
X34925000Y34391600D03*
G36*
G01*
X38315000Y33341600D02*
X36615000Y33341600D01*
G75*
G02*
X36415000Y33541600I0J200000D01*
G01*
X36415000Y35241600D01*
G75*
G02*
X36615000Y35441600I200000J0D01*
G01*
X38315000Y35441600D01*
G75*
G02*
X38515000Y35241600I0J-200000D01*
G01*
X38515000Y33541600D01*
G75*
G02*
X38315000Y33341600I-200000J0D01*
G01*
G37*
M02*
