G04 #@! TF.GenerationSoftware,KiCad,Pcbnew,(5.0.0-3-g5ebb6b6)*
G04 #@! TF.CreationDate,2018-08-14T19:07:29+02:00*
G04 #@! TF.ProjectId,TecladoEB,5465636C61646F45422E6B696361645F,rev?*
G04 #@! TF.SameCoordinates,Original*
G04 #@! TF.FileFunction,Soldermask,Bot*
G04 #@! TF.FilePolarity,Negative*
%FSLAX46Y46*%
G04 Gerber Fmt 4.6, Leading zero omitted, Abs format (unit mm)*
G04 Created by KiCad (PCBNEW (5.0.0-3-g5ebb6b6)) date Tuesday, 14 August 2018 at 19:07:29*
%MOMM*%
%LPD*%
G01*
G04 APERTURE LIST*
%ADD10C,3.199800*%
%ADD11C,1.850200*%
%ADD12C,2.400000*%
%ADD13C,2.000000*%
%ADD14O,2.000000X2.000000*%
%ADD15R,2.100000X2.100000*%
%ADD16O,2.100000X2.100000*%
G04 APERTURE END LIST*
D10*
G04 #@! TO.C,REF\002A\002A*
X105080000Y-105600000D03*
G04 #@! TD*
G04 #@! TO.C,REF\002A\002A*
X143180000Y-105600000D03*
G04 #@! TD*
G04 #@! TO.C,REF\002A\002A*
X143180000Y-141220000D03*
G04 #@! TD*
G04 #@! TO.C,REF\002A\002A*
X105080000Y-141220000D03*
G04 #@! TD*
D11*
G04 #@! TO.C,S1*
X124130000Y-112410000D03*
X124130000Y-103410000D03*
D12*
X117880000Y-105410000D03*
X130380000Y-105410000D03*
X117880000Y-110410000D03*
X130380000Y-110410000D03*
G04 #@! TD*
D11*
G04 #@! TO.C,S2*
X113390000Y-123150000D03*
X104390000Y-123150000D03*
D12*
X106390000Y-129400000D03*
X106390000Y-116900000D03*
X111390000Y-129400000D03*
X111390000Y-116900000D03*
G04 #@! TD*
D11*
G04 #@! TO.C,S3*
X124130000Y-133890000D03*
X124130000Y-142890000D03*
D12*
X130380000Y-140890000D03*
X117880000Y-140890000D03*
X130380000Y-135890000D03*
X117880000Y-135890000D03*
G04 #@! TD*
D11*
G04 #@! TO.C,S4*
X134870000Y-123150000D03*
X143870000Y-123150000D03*
D12*
X141870000Y-116900000D03*
X141870000Y-129400000D03*
X136870000Y-116900000D03*
X136870000Y-129400000D03*
G04 #@! TD*
D11*
G04 #@! TO.C,S5*
X124130000Y-127650000D03*
X124130000Y-118650000D03*
D12*
X117880000Y-120650000D03*
X130380000Y-120650000D03*
X117880000Y-125650000D03*
X130380000Y-125650000D03*
G04 #@! TD*
D13*
G04 #@! TO.C,R1*
X114097000Y-113589000D03*
D14*
X114097000Y-105969000D03*
G04 #@! TD*
D13*
G04 #@! TO.C,R2*
X111049000Y-113589000D03*
D14*
X111049000Y-105969000D03*
G04 #@! TD*
G04 #@! TO.C,R3*
X114097000Y-140331000D03*
D13*
X114097000Y-132711000D03*
G04 #@! TD*
G04 #@! TO.C,R4*
X137211000Y-140331000D03*
D14*
X137211000Y-132711000D03*
G04 #@! TD*
G04 #@! TO.C,R5*
X134163000Y-140331000D03*
D13*
X134163000Y-132711000D03*
G04 #@! TD*
D15*
G04 #@! TO.C,J1*
X137465000Y-111908400D03*
D16*
X134925000Y-111908400D03*
G04 #@! TD*
M02*
