G04 #@! TF.GenerationSoftware,KiCad,Pcbnew,(5.0.0-3-g5ebb6b6)*
G04 #@! TF.CreationDate,2018-08-14T19:07:29+02:00*
G04 #@! TF.ProjectId,TecladoEB,5465636C61646F45422E6B696361645F,rev?*
G04 #@! TF.SameCoordinates,Original*
G04 #@! TF.FileFunction,Copper,L1,Top,Signal*
G04 #@! TF.FilePolarity,Positive*
%FSLAX46Y46*%
G04 Gerber Fmt 4.6, Leading zero omitted, Abs format (unit mm)*
G04 Created by KiCad (PCBNEW (5.0.0-3-g5ebb6b6)) date Tuesday, 14 August 2018 at 19:07:29*
%MOMM*%
%LPD*%
G01*
G04 APERTURE LIST*
G04 #@! TA.AperFunction,ComponentPad*
%ADD10C,2.000000*%
G04 #@! TD*
G04 #@! TA.AperFunction,ComponentPad*
%ADD11C,1.600000*%
G04 #@! TD*
G04 #@! TA.AperFunction,ComponentPad*
%ADD12O,1.600000X1.600000*%
G04 #@! TD*
G04 #@! TA.AperFunction,ComponentPad*
%ADD13R,1.700000X1.700000*%
G04 #@! TD*
G04 #@! TA.AperFunction,ComponentPad*
%ADD14O,1.700000X1.700000*%
G04 #@! TD*
G04 #@! TA.AperFunction,Conductor*
%ADD15C,0.254000*%
G04 #@! TD*
G04 APERTURE END LIST*
D10*
G04 #@! TO.P,S1,4*
G04 #@! TO.N,GND*
X117880000Y-105410000D03*
G04 #@! TO.P,S1,3*
X130380000Y-105410000D03*
G04 #@! TO.P,S1,2*
G04 #@! TO.N,Net-(R1-Pad1)*
X117880000Y-110410000D03*
G04 #@! TO.P,S1,1*
X130380000Y-110410000D03*
G04 #@! TD*
G04 #@! TO.P,S2,4*
G04 #@! TO.N,GND*
X106390000Y-129400000D03*
G04 #@! TO.P,S2,3*
X106390000Y-116900000D03*
G04 #@! TO.P,S2,2*
G04 #@! TO.N,Net-(R2-Pad1)*
X111390000Y-129400000D03*
G04 #@! TO.P,S2,1*
X111390000Y-116900000D03*
G04 #@! TD*
G04 #@! TO.P,S3,4*
G04 #@! TO.N,GND*
X130380000Y-140890000D03*
G04 #@! TO.P,S3,3*
X117880000Y-140890000D03*
G04 #@! TO.P,S3,2*
G04 #@! TO.N,Net-(R3-Pad1)*
X130380000Y-135890000D03*
G04 #@! TO.P,S3,1*
X117880000Y-135890000D03*
G04 #@! TD*
G04 #@! TO.P,S4,4*
G04 #@! TO.N,GND*
X141870000Y-116900000D03*
G04 #@! TO.P,S4,3*
X141870000Y-129400000D03*
G04 #@! TO.P,S4,2*
G04 #@! TO.N,Net-(R4-Pad1)*
X136870000Y-116900000D03*
G04 #@! TO.P,S4,1*
X136870000Y-129400000D03*
G04 #@! TD*
G04 #@! TO.P,S5,4*
G04 #@! TO.N,GND*
X117880000Y-120650000D03*
G04 #@! TO.P,S5,3*
X130380000Y-120650000D03*
G04 #@! TO.P,S5,2*
G04 #@! TO.N,Net-(R5-Pad1)*
X117880000Y-125650000D03*
G04 #@! TO.P,S5,1*
X130380000Y-125650000D03*
G04 #@! TD*
D11*
G04 #@! TO.P,R1,1*
G04 #@! TO.N,Net-(R1-Pad1)*
X114097000Y-113589000D03*
D12*
G04 #@! TO.P,R1,2*
G04 #@! TO.N,Net-(J1-Pad2)*
X114097000Y-105969000D03*
G04 #@! TD*
D11*
G04 #@! TO.P,R2,1*
G04 #@! TO.N,Net-(R2-Pad1)*
X111049000Y-113589000D03*
D12*
G04 #@! TO.P,R2,2*
G04 #@! TO.N,Net-(R1-Pad1)*
X111049000Y-105969000D03*
G04 #@! TD*
G04 #@! TO.P,R3,2*
G04 #@! TO.N,Net-(R2-Pad1)*
X114097000Y-140331000D03*
D11*
G04 #@! TO.P,R3,1*
G04 #@! TO.N,Net-(R3-Pad1)*
X114097000Y-132711000D03*
G04 #@! TD*
G04 #@! TO.P,R4,1*
G04 #@! TO.N,Net-(R4-Pad1)*
X137211000Y-140331000D03*
D12*
G04 #@! TO.P,R4,2*
G04 #@! TO.N,Net-(R3-Pad1)*
X137211000Y-132711000D03*
G04 #@! TD*
G04 #@! TO.P,R5,2*
G04 #@! TO.N,Net-(R4-Pad1)*
X134163000Y-140331000D03*
D11*
G04 #@! TO.P,R5,1*
G04 #@! TO.N,Net-(R5-Pad1)*
X134163000Y-132711000D03*
G04 #@! TD*
D13*
G04 #@! TO.P,J1,1*
G04 #@! TO.N,GND*
X137465000Y-111908400D03*
D14*
G04 #@! TO.P,J1,2*
G04 #@! TO.N,Net-(J1-Pad2)*
X134925000Y-111908400D03*
G04 #@! TD*
D15*
G04 #@! TO.N,GND*
G36*
X144146192Y-100780578D02*
X144881389Y-100981705D01*
X145569351Y-101309846D01*
X146188331Y-101754628D01*
X146718761Y-102301988D01*
X147143884Y-102934639D01*
X147450251Y-103632561D01*
X147629499Y-104379183D01*
X147677000Y-105026030D01*
X147677001Y-141264570D01*
X147606362Y-142056066D01*
X147405056Y-142791919D01*
X147076626Y-143480485D01*
X146631451Y-144100011D01*
X146083600Y-144630916D01*
X145450393Y-145056413D01*
X144751849Y-145363053D01*
X144004574Y-145542458D01*
X143357169Y-145590000D01*
X105010018Y-145590000D01*
X104222930Y-145519754D01*
X103491337Y-145319613D01*
X102806743Y-144993079D01*
X102190805Y-144550482D01*
X101662970Y-144005801D01*
X101239934Y-143376256D01*
X100935068Y-142681752D01*
X100756693Y-141938766D01*
X100710000Y-141302925D01*
X100710000Y-140478654D01*
X101353000Y-140478654D01*
X101353000Y-141961346D01*
X101920402Y-143331176D01*
X102968824Y-144379598D01*
X104338654Y-144947000D01*
X105821346Y-144947000D01*
X107191176Y-144379598D01*
X108239598Y-143331176D01*
X108558450Y-142561397D01*
X122478000Y-142561397D01*
X122478000Y-143218603D01*
X122729502Y-143825783D01*
X123194217Y-144290498D01*
X123801397Y-144542000D01*
X124458603Y-144542000D01*
X125065783Y-144290498D01*
X125530498Y-143825783D01*
X125782000Y-143218603D01*
X125782000Y-142561397D01*
X125567080Y-142042532D01*
X129407073Y-142042532D01*
X129505736Y-142309387D01*
X130115461Y-142535908D01*
X130765460Y-142511856D01*
X131254264Y-142309387D01*
X131352927Y-142042532D01*
X130380000Y-141069605D01*
X129407073Y-142042532D01*
X125567080Y-142042532D01*
X125530498Y-141954217D01*
X125065783Y-141489502D01*
X124458603Y-141238000D01*
X123801397Y-141238000D01*
X123194217Y-141489502D01*
X122729502Y-141954217D01*
X122478000Y-142561397D01*
X108558450Y-142561397D01*
X108773371Y-142042532D01*
X116907073Y-142042532D01*
X117005736Y-142309387D01*
X117615461Y-142535908D01*
X118265460Y-142511856D01*
X118754264Y-142309387D01*
X118852927Y-142042532D01*
X117880000Y-141069605D01*
X116907073Y-142042532D01*
X108773371Y-142042532D01*
X108807000Y-141961346D01*
X108807000Y-140478654D01*
X108745840Y-140331000D01*
X112540085Y-140331000D01*
X112658598Y-140926806D01*
X112996095Y-141431905D01*
X113501194Y-141769402D01*
X113946607Y-141858000D01*
X114247393Y-141858000D01*
X114692806Y-141769402D01*
X115197905Y-141431905D01*
X115535402Y-140926806D01*
X115595343Y-140625461D01*
X116234092Y-140625461D01*
X116258144Y-141275460D01*
X116460613Y-141764264D01*
X116727468Y-141862927D01*
X117700395Y-140890000D01*
X118059605Y-140890000D01*
X119032532Y-141862927D01*
X119299387Y-141764264D01*
X119525908Y-141154539D01*
X119506331Y-140625461D01*
X128734092Y-140625461D01*
X128758144Y-141275460D01*
X128960613Y-141764264D01*
X129227468Y-141862927D01*
X130200395Y-140890000D01*
X130559605Y-140890000D01*
X131532532Y-141862927D01*
X131799387Y-141764264D01*
X132025908Y-141154539D01*
X132001856Y-140504540D01*
X131929974Y-140331000D01*
X132606085Y-140331000D01*
X132724598Y-140926806D01*
X133062095Y-141431905D01*
X133567194Y-141769402D01*
X134012607Y-141858000D01*
X134313393Y-141858000D01*
X134758806Y-141769402D01*
X135263905Y-141431905D01*
X135601402Y-140926806D01*
X135684000Y-140511557D01*
X135684000Y-140634739D01*
X135916472Y-141195976D01*
X136346024Y-141625528D01*
X136907261Y-141858000D01*
X137514739Y-141858000D01*
X138075976Y-141625528D01*
X138505528Y-141195976D01*
X138738000Y-140634739D01*
X138738000Y-140478654D01*
X139453000Y-140478654D01*
X139453000Y-141961346D01*
X140020402Y-143331176D01*
X141068824Y-144379598D01*
X142438654Y-144947000D01*
X143921346Y-144947000D01*
X145291176Y-144379598D01*
X146339598Y-143331176D01*
X146907000Y-141961346D01*
X146907000Y-140478654D01*
X146339598Y-139108824D01*
X145291176Y-138060402D01*
X143921346Y-137493000D01*
X142438654Y-137493000D01*
X141068824Y-138060402D01*
X140020402Y-139108824D01*
X139453000Y-140478654D01*
X138738000Y-140478654D01*
X138738000Y-140027261D01*
X138505528Y-139466024D01*
X138075976Y-139036472D01*
X137514739Y-138804000D01*
X136907261Y-138804000D01*
X136346024Y-139036472D01*
X135916472Y-139466024D01*
X135684000Y-140027261D01*
X135684000Y-140150443D01*
X135601402Y-139735194D01*
X135263905Y-139230095D01*
X134758806Y-138892598D01*
X134313393Y-138804000D01*
X134012607Y-138804000D01*
X133567194Y-138892598D01*
X133062095Y-139230095D01*
X132724598Y-139735194D01*
X132606085Y-140331000D01*
X131929974Y-140331000D01*
X131799387Y-140015736D01*
X131532532Y-139917073D01*
X130559605Y-140890000D01*
X130200395Y-140890000D01*
X129227468Y-139917073D01*
X128960613Y-140015736D01*
X128734092Y-140625461D01*
X119506331Y-140625461D01*
X119501856Y-140504540D01*
X119299387Y-140015736D01*
X119032532Y-139917073D01*
X118059605Y-140890000D01*
X117700395Y-140890000D01*
X116727468Y-139917073D01*
X116460613Y-140015736D01*
X116234092Y-140625461D01*
X115595343Y-140625461D01*
X115653915Y-140331000D01*
X115535855Y-139737468D01*
X116907073Y-139737468D01*
X117880000Y-140710395D01*
X118852927Y-139737468D01*
X129407073Y-139737468D01*
X130380000Y-140710395D01*
X131352927Y-139737468D01*
X131254264Y-139470613D01*
X130644539Y-139244092D01*
X129994540Y-139268144D01*
X129505736Y-139470613D01*
X129407073Y-139737468D01*
X118852927Y-139737468D01*
X118754264Y-139470613D01*
X118144539Y-139244092D01*
X117494540Y-139268144D01*
X117005736Y-139470613D01*
X116907073Y-139737468D01*
X115535855Y-139737468D01*
X115535402Y-139735194D01*
X115197905Y-139230095D01*
X114692806Y-138892598D01*
X114247393Y-138804000D01*
X113946607Y-138804000D01*
X113501194Y-138892598D01*
X112996095Y-139230095D01*
X112658598Y-139735194D01*
X112540085Y-140331000D01*
X108745840Y-140331000D01*
X108239598Y-139108824D01*
X107191176Y-138060402D01*
X105821346Y-137493000D01*
X104338654Y-137493000D01*
X102968824Y-138060402D01*
X101920402Y-139108824D01*
X101353000Y-140478654D01*
X100710000Y-140478654D01*
X100710000Y-135546478D01*
X116153000Y-135546478D01*
X116153000Y-136233522D01*
X116415920Y-136868267D01*
X116901733Y-137354080D01*
X117536478Y-137617000D01*
X118223522Y-137617000D01*
X118858267Y-137354080D01*
X119344080Y-136868267D01*
X119607000Y-136233522D01*
X119607000Y-135546478D01*
X128653000Y-135546478D01*
X128653000Y-136233522D01*
X128915920Y-136868267D01*
X129401733Y-137354080D01*
X130036478Y-137617000D01*
X130723522Y-137617000D01*
X131358267Y-137354080D01*
X131844080Y-136868267D01*
X132107000Y-136233522D01*
X132107000Y-135546478D01*
X131844080Y-134911733D01*
X131358267Y-134425920D01*
X130723522Y-134163000D01*
X130036478Y-134163000D01*
X129401733Y-134425920D01*
X128915920Y-134911733D01*
X128653000Y-135546478D01*
X119607000Y-135546478D01*
X119344080Y-134911733D01*
X118858267Y-134425920D01*
X118223522Y-134163000D01*
X117536478Y-134163000D01*
X116901733Y-134425920D01*
X116415920Y-134911733D01*
X116153000Y-135546478D01*
X100710000Y-135546478D01*
X100710000Y-132407261D01*
X112570000Y-132407261D01*
X112570000Y-133014739D01*
X112802472Y-133575976D01*
X113232024Y-134005528D01*
X113793261Y-134238000D01*
X114400739Y-134238000D01*
X114961976Y-134005528D01*
X115391528Y-133575976D01*
X115397566Y-133561397D01*
X122478000Y-133561397D01*
X122478000Y-134218603D01*
X122729502Y-134825783D01*
X123194217Y-135290498D01*
X123801397Y-135542000D01*
X124458603Y-135542000D01*
X125065783Y-135290498D01*
X125530498Y-134825783D01*
X125782000Y-134218603D01*
X125782000Y-133561397D01*
X125530498Y-132954217D01*
X125065783Y-132489502D01*
X124867236Y-132407261D01*
X132636000Y-132407261D01*
X132636000Y-133014739D01*
X132868472Y-133575976D01*
X133298024Y-134005528D01*
X133859261Y-134238000D01*
X134466739Y-134238000D01*
X135027976Y-134005528D01*
X135457528Y-133575976D01*
X135690000Y-133014739D01*
X135690000Y-132891557D01*
X135772598Y-133306806D01*
X136110095Y-133811905D01*
X136615194Y-134149402D01*
X137060607Y-134238000D01*
X137361393Y-134238000D01*
X137806806Y-134149402D01*
X138311905Y-133811905D01*
X138649402Y-133306806D01*
X138767915Y-132711000D01*
X138649402Y-132115194D01*
X138311905Y-131610095D01*
X137806806Y-131272598D01*
X137361393Y-131184000D01*
X137060607Y-131184000D01*
X136615194Y-131272598D01*
X136110095Y-131610095D01*
X135772598Y-132115194D01*
X135690000Y-132530443D01*
X135690000Y-132407261D01*
X135457528Y-131846024D01*
X135027976Y-131416472D01*
X134466739Y-131184000D01*
X133859261Y-131184000D01*
X133298024Y-131416472D01*
X132868472Y-131846024D01*
X132636000Y-132407261D01*
X124867236Y-132407261D01*
X124458603Y-132238000D01*
X123801397Y-132238000D01*
X123194217Y-132489502D01*
X122729502Y-132954217D01*
X122478000Y-133561397D01*
X115397566Y-133561397D01*
X115624000Y-133014739D01*
X115624000Y-132407261D01*
X115391528Y-131846024D01*
X114961976Y-131416472D01*
X114400739Y-131184000D01*
X113793261Y-131184000D01*
X113232024Y-131416472D01*
X112802472Y-131846024D01*
X112570000Y-132407261D01*
X100710000Y-132407261D01*
X100710000Y-130552532D01*
X105417073Y-130552532D01*
X105515736Y-130819387D01*
X106125461Y-131045908D01*
X106775460Y-131021856D01*
X107264264Y-130819387D01*
X107362927Y-130552532D01*
X106390000Y-129579605D01*
X105417073Y-130552532D01*
X100710000Y-130552532D01*
X100710000Y-129135461D01*
X104744092Y-129135461D01*
X104768144Y-129785460D01*
X104970613Y-130274264D01*
X105237468Y-130372927D01*
X106210395Y-129400000D01*
X106569605Y-129400000D01*
X107542532Y-130372927D01*
X107809387Y-130274264D01*
X108035908Y-129664539D01*
X108013408Y-129056478D01*
X109663000Y-129056478D01*
X109663000Y-129743522D01*
X109925920Y-130378267D01*
X110411733Y-130864080D01*
X111046478Y-131127000D01*
X111733522Y-131127000D01*
X112368267Y-130864080D01*
X112854080Y-130378267D01*
X113117000Y-129743522D01*
X113117000Y-129056478D01*
X112854080Y-128421733D01*
X112368267Y-127935920D01*
X111733522Y-127673000D01*
X111046478Y-127673000D01*
X110411733Y-127935920D01*
X109925920Y-128421733D01*
X109663000Y-129056478D01*
X108013408Y-129056478D01*
X108011856Y-129014540D01*
X107809387Y-128525736D01*
X107542532Y-128427073D01*
X106569605Y-129400000D01*
X106210395Y-129400000D01*
X105237468Y-128427073D01*
X104970613Y-128525736D01*
X104744092Y-129135461D01*
X100710000Y-129135461D01*
X100710000Y-128247468D01*
X105417073Y-128247468D01*
X106390000Y-129220395D01*
X107362927Y-128247468D01*
X107264264Y-127980613D01*
X106654539Y-127754092D01*
X106004540Y-127778144D01*
X105515736Y-127980613D01*
X105417073Y-128247468D01*
X100710000Y-128247468D01*
X100710000Y-125306478D01*
X116153000Y-125306478D01*
X116153000Y-125993522D01*
X116415920Y-126628267D01*
X116901733Y-127114080D01*
X117536478Y-127377000D01*
X118223522Y-127377000D01*
X118357759Y-127321397D01*
X122478000Y-127321397D01*
X122478000Y-127978603D01*
X122729502Y-128585783D01*
X123194217Y-129050498D01*
X123801397Y-129302000D01*
X124458603Y-129302000D01*
X125051345Y-129056478D01*
X135143000Y-129056478D01*
X135143000Y-129743522D01*
X135405920Y-130378267D01*
X135891733Y-130864080D01*
X136526478Y-131127000D01*
X137213522Y-131127000D01*
X137848267Y-130864080D01*
X138159815Y-130552532D01*
X140897073Y-130552532D01*
X140995736Y-130819387D01*
X141605461Y-131045908D01*
X142255460Y-131021856D01*
X142744264Y-130819387D01*
X142842927Y-130552532D01*
X141870000Y-129579605D01*
X140897073Y-130552532D01*
X138159815Y-130552532D01*
X138334080Y-130378267D01*
X138597000Y-129743522D01*
X138597000Y-129135461D01*
X140224092Y-129135461D01*
X140248144Y-129785460D01*
X140450613Y-130274264D01*
X140717468Y-130372927D01*
X141690395Y-129400000D01*
X142049605Y-129400000D01*
X143022532Y-130372927D01*
X143289387Y-130274264D01*
X143515908Y-129664539D01*
X143491856Y-129014540D01*
X143289387Y-128525736D01*
X143022532Y-128427073D01*
X142049605Y-129400000D01*
X141690395Y-129400000D01*
X140717468Y-128427073D01*
X140450613Y-128525736D01*
X140224092Y-129135461D01*
X138597000Y-129135461D01*
X138597000Y-129056478D01*
X138334080Y-128421733D01*
X138159815Y-128247468D01*
X140897073Y-128247468D01*
X141870000Y-129220395D01*
X142842927Y-128247468D01*
X142744264Y-127980613D01*
X142134539Y-127754092D01*
X141484540Y-127778144D01*
X140995736Y-127980613D01*
X140897073Y-128247468D01*
X138159815Y-128247468D01*
X137848267Y-127935920D01*
X137213522Y-127673000D01*
X136526478Y-127673000D01*
X135891733Y-127935920D01*
X135405920Y-128421733D01*
X135143000Y-129056478D01*
X125051345Y-129056478D01*
X125065783Y-129050498D01*
X125530498Y-128585783D01*
X125782000Y-127978603D01*
X125782000Y-127321397D01*
X125530498Y-126714217D01*
X125065783Y-126249502D01*
X124458603Y-125998000D01*
X123801397Y-125998000D01*
X123194217Y-126249502D01*
X122729502Y-126714217D01*
X122478000Y-127321397D01*
X118357759Y-127321397D01*
X118858267Y-127114080D01*
X119344080Y-126628267D01*
X119607000Y-125993522D01*
X119607000Y-125306478D01*
X128653000Y-125306478D01*
X128653000Y-125993522D01*
X128915920Y-126628267D01*
X129401733Y-127114080D01*
X130036478Y-127377000D01*
X130723522Y-127377000D01*
X131358267Y-127114080D01*
X131844080Y-126628267D01*
X132107000Y-125993522D01*
X132107000Y-125306478D01*
X131844080Y-124671733D01*
X131358267Y-124185920D01*
X130723522Y-123923000D01*
X130036478Y-123923000D01*
X129401733Y-124185920D01*
X128915920Y-124671733D01*
X128653000Y-125306478D01*
X119607000Y-125306478D01*
X119344080Y-124671733D01*
X118858267Y-124185920D01*
X118223522Y-123923000D01*
X117536478Y-123923000D01*
X116901733Y-124185920D01*
X116415920Y-124671733D01*
X116153000Y-125306478D01*
X100710000Y-125306478D01*
X100710000Y-122821397D01*
X102738000Y-122821397D01*
X102738000Y-123478603D01*
X102989502Y-124085783D01*
X103454217Y-124550498D01*
X104061397Y-124802000D01*
X104718603Y-124802000D01*
X105325783Y-124550498D01*
X105790498Y-124085783D01*
X106042000Y-123478603D01*
X106042000Y-122821397D01*
X111738000Y-122821397D01*
X111738000Y-123478603D01*
X111989502Y-124085783D01*
X112454217Y-124550498D01*
X113061397Y-124802000D01*
X113718603Y-124802000D01*
X114325783Y-124550498D01*
X114790498Y-124085783D01*
X115042000Y-123478603D01*
X115042000Y-122821397D01*
X133218000Y-122821397D01*
X133218000Y-123478603D01*
X133469502Y-124085783D01*
X133934217Y-124550498D01*
X134541397Y-124802000D01*
X135198603Y-124802000D01*
X135805783Y-124550498D01*
X136270498Y-124085783D01*
X136522000Y-123478603D01*
X136522000Y-122821397D01*
X142218000Y-122821397D01*
X142218000Y-123478603D01*
X142469502Y-124085783D01*
X142934217Y-124550498D01*
X143541397Y-124802000D01*
X144198603Y-124802000D01*
X144805783Y-124550498D01*
X145270498Y-124085783D01*
X145522000Y-123478603D01*
X145522000Y-122821397D01*
X145270498Y-122214217D01*
X144805783Y-121749502D01*
X144198603Y-121498000D01*
X143541397Y-121498000D01*
X142934217Y-121749502D01*
X142469502Y-122214217D01*
X142218000Y-122821397D01*
X136522000Y-122821397D01*
X136270498Y-122214217D01*
X135805783Y-121749502D01*
X135198603Y-121498000D01*
X134541397Y-121498000D01*
X133934217Y-121749502D01*
X133469502Y-122214217D01*
X133218000Y-122821397D01*
X115042000Y-122821397D01*
X114790498Y-122214217D01*
X114378813Y-121802532D01*
X116907073Y-121802532D01*
X117005736Y-122069387D01*
X117615461Y-122295908D01*
X118265460Y-122271856D01*
X118754264Y-122069387D01*
X118852927Y-121802532D01*
X129407073Y-121802532D01*
X129505736Y-122069387D01*
X130115461Y-122295908D01*
X130765460Y-122271856D01*
X131254264Y-122069387D01*
X131352927Y-121802532D01*
X130380000Y-120829605D01*
X129407073Y-121802532D01*
X118852927Y-121802532D01*
X117880000Y-120829605D01*
X116907073Y-121802532D01*
X114378813Y-121802532D01*
X114325783Y-121749502D01*
X113718603Y-121498000D01*
X113061397Y-121498000D01*
X112454217Y-121749502D01*
X111989502Y-122214217D01*
X111738000Y-122821397D01*
X106042000Y-122821397D01*
X105790498Y-122214217D01*
X105325783Y-121749502D01*
X104718603Y-121498000D01*
X104061397Y-121498000D01*
X103454217Y-121749502D01*
X102989502Y-122214217D01*
X102738000Y-122821397D01*
X100710000Y-122821397D01*
X100710000Y-120385461D01*
X116234092Y-120385461D01*
X116258144Y-121035460D01*
X116460613Y-121524264D01*
X116727468Y-121622927D01*
X117700395Y-120650000D01*
X118059605Y-120650000D01*
X119032532Y-121622927D01*
X119299387Y-121524264D01*
X119525908Y-120914539D01*
X119506331Y-120385461D01*
X128734092Y-120385461D01*
X128758144Y-121035460D01*
X128960613Y-121524264D01*
X129227468Y-121622927D01*
X130200395Y-120650000D01*
X130559605Y-120650000D01*
X131532532Y-121622927D01*
X131799387Y-121524264D01*
X132025908Y-120914539D01*
X132001856Y-120264540D01*
X131799387Y-119775736D01*
X131532532Y-119677073D01*
X130559605Y-120650000D01*
X130200395Y-120650000D01*
X129227468Y-119677073D01*
X128960613Y-119775736D01*
X128734092Y-120385461D01*
X119506331Y-120385461D01*
X119501856Y-120264540D01*
X119299387Y-119775736D01*
X119032532Y-119677073D01*
X118059605Y-120650000D01*
X117700395Y-120650000D01*
X116727468Y-119677073D01*
X116460613Y-119775736D01*
X116234092Y-120385461D01*
X100710000Y-120385461D01*
X100710000Y-119497468D01*
X116907073Y-119497468D01*
X117880000Y-120470395D01*
X118852927Y-119497468D01*
X118754264Y-119230613D01*
X118144539Y-119004092D01*
X117494540Y-119028144D01*
X117005736Y-119230613D01*
X116907073Y-119497468D01*
X100710000Y-119497468D01*
X100710000Y-118052532D01*
X105417073Y-118052532D01*
X105515736Y-118319387D01*
X106125461Y-118545908D01*
X106775460Y-118521856D01*
X107264264Y-118319387D01*
X107362927Y-118052532D01*
X106390000Y-117079605D01*
X105417073Y-118052532D01*
X100710000Y-118052532D01*
X100710000Y-116635461D01*
X104744092Y-116635461D01*
X104768144Y-117285460D01*
X104970613Y-117774264D01*
X105237468Y-117872927D01*
X106210395Y-116900000D01*
X106569605Y-116900000D01*
X107542532Y-117872927D01*
X107809387Y-117774264D01*
X108035908Y-117164539D01*
X108013408Y-116556478D01*
X109663000Y-116556478D01*
X109663000Y-117243522D01*
X109925920Y-117878267D01*
X110411733Y-118364080D01*
X111046478Y-118627000D01*
X111733522Y-118627000D01*
X112368267Y-118364080D01*
X112410950Y-118321397D01*
X122478000Y-118321397D01*
X122478000Y-118978603D01*
X122729502Y-119585783D01*
X123194217Y-120050498D01*
X123801397Y-120302000D01*
X124458603Y-120302000D01*
X125065783Y-120050498D01*
X125530498Y-119585783D01*
X125567079Y-119497468D01*
X129407073Y-119497468D01*
X130380000Y-120470395D01*
X131352927Y-119497468D01*
X131254264Y-119230613D01*
X130644539Y-119004092D01*
X129994540Y-119028144D01*
X129505736Y-119230613D01*
X129407073Y-119497468D01*
X125567079Y-119497468D01*
X125782000Y-118978603D01*
X125782000Y-118321397D01*
X125530498Y-117714217D01*
X125065783Y-117249502D01*
X124458603Y-116998000D01*
X123801397Y-116998000D01*
X123194217Y-117249502D01*
X122729502Y-117714217D01*
X122478000Y-118321397D01*
X112410950Y-118321397D01*
X112854080Y-117878267D01*
X113117000Y-117243522D01*
X113117000Y-116556478D01*
X135143000Y-116556478D01*
X135143000Y-117243522D01*
X135405920Y-117878267D01*
X135891733Y-118364080D01*
X136526478Y-118627000D01*
X137213522Y-118627000D01*
X137848267Y-118364080D01*
X138159815Y-118052532D01*
X140897073Y-118052532D01*
X140995736Y-118319387D01*
X141605461Y-118545908D01*
X142255460Y-118521856D01*
X142744264Y-118319387D01*
X142842927Y-118052532D01*
X141870000Y-117079605D01*
X140897073Y-118052532D01*
X138159815Y-118052532D01*
X138334080Y-117878267D01*
X138597000Y-117243522D01*
X138597000Y-116635461D01*
X140224092Y-116635461D01*
X140248144Y-117285460D01*
X140450613Y-117774264D01*
X140717468Y-117872927D01*
X141690395Y-116900000D01*
X142049605Y-116900000D01*
X143022532Y-117872927D01*
X143289387Y-117774264D01*
X143515908Y-117164539D01*
X143491856Y-116514540D01*
X143289387Y-116025736D01*
X143022532Y-115927073D01*
X142049605Y-116900000D01*
X141690395Y-116900000D01*
X140717468Y-115927073D01*
X140450613Y-116025736D01*
X140224092Y-116635461D01*
X138597000Y-116635461D01*
X138597000Y-116556478D01*
X138334080Y-115921733D01*
X138159815Y-115747468D01*
X140897073Y-115747468D01*
X141870000Y-116720395D01*
X142842927Y-115747468D01*
X142744264Y-115480613D01*
X142134539Y-115254092D01*
X141484540Y-115278144D01*
X140995736Y-115480613D01*
X140897073Y-115747468D01*
X138159815Y-115747468D01*
X137848267Y-115435920D01*
X137213522Y-115173000D01*
X136526478Y-115173000D01*
X135891733Y-115435920D01*
X135405920Y-115921733D01*
X135143000Y-116556478D01*
X113117000Y-116556478D01*
X112854080Y-115921733D01*
X112368267Y-115435920D01*
X111733522Y-115173000D01*
X111046478Y-115173000D01*
X110411733Y-115435920D01*
X109925920Y-115921733D01*
X109663000Y-116556478D01*
X108013408Y-116556478D01*
X108011856Y-116514540D01*
X107809387Y-116025736D01*
X107542532Y-115927073D01*
X106569605Y-116900000D01*
X106210395Y-116900000D01*
X105237468Y-115927073D01*
X104970613Y-116025736D01*
X104744092Y-116635461D01*
X100710000Y-116635461D01*
X100710000Y-115747468D01*
X105417073Y-115747468D01*
X106390000Y-116720395D01*
X107362927Y-115747468D01*
X107264264Y-115480613D01*
X106654539Y-115254092D01*
X106004540Y-115278144D01*
X105515736Y-115480613D01*
X105417073Y-115747468D01*
X100710000Y-115747468D01*
X100710000Y-113285261D01*
X109522000Y-113285261D01*
X109522000Y-113892739D01*
X109754472Y-114453976D01*
X110184024Y-114883528D01*
X110745261Y-115116000D01*
X111352739Y-115116000D01*
X111913976Y-114883528D01*
X112343528Y-114453976D01*
X112573000Y-113899982D01*
X112802472Y-114453976D01*
X113232024Y-114883528D01*
X113793261Y-115116000D01*
X114400739Y-115116000D01*
X114961976Y-114883528D01*
X115391528Y-114453976D01*
X115624000Y-113892739D01*
X115624000Y-113285261D01*
X115391528Y-112724024D01*
X114961976Y-112294472D01*
X114400739Y-112062000D01*
X113793261Y-112062000D01*
X113232024Y-112294472D01*
X112802472Y-112724024D01*
X112573000Y-113278018D01*
X112343528Y-112724024D01*
X111913976Y-112294472D01*
X111352739Y-112062000D01*
X110745261Y-112062000D01*
X110184024Y-112294472D01*
X109754472Y-112724024D01*
X109522000Y-113285261D01*
X100710000Y-113285261D01*
X100710000Y-110066478D01*
X116153000Y-110066478D01*
X116153000Y-110753522D01*
X116415920Y-111388267D01*
X116901733Y-111874080D01*
X117536478Y-112137000D01*
X118223522Y-112137000D01*
X118357759Y-112081397D01*
X122478000Y-112081397D01*
X122478000Y-112738603D01*
X122729502Y-113345783D01*
X123194217Y-113810498D01*
X123801397Y-114062000D01*
X124458603Y-114062000D01*
X125065783Y-113810498D01*
X125530498Y-113345783D01*
X125782000Y-112738603D01*
X125782000Y-112081397D01*
X125530498Y-111474217D01*
X125065783Y-111009502D01*
X124458603Y-110758000D01*
X123801397Y-110758000D01*
X123194217Y-111009502D01*
X122729502Y-111474217D01*
X122478000Y-112081397D01*
X118357759Y-112081397D01*
X118858267Y-111874080D01*
X119344080Y-111388267D01*
X119607000Y-110753522D01*
X119607000Y-110066478D01*
X128653000Y-110066478D01*
X128653000Y-110753522D01*
X128915920Y-111388267D01*
X129401733Y-111874080D01*
X130036478Y-112137000D01*
X130723522Y-112137000D01*
X131275411Y-111908400D01*
X133317105Y-111908400D01*
X133439499Y-112523715D01*
X133788047Y-113045353D01*
X134309685Y-113393901D01*
X134769681Y-113485400D01*
X135080319Y-113485400D01*
X135540315Y-113393901D01*
X136049882Y-113053419D01*
X136076673Y-113118098D01*
X136255301Y-113296727D01*
X136488690Y-113393400D01*
X137179250Y-113393400D01*
X137338000Y-113234650D01*
X137338000Y-112035400D01*
X137592000Y-112035400D01*
X137592000Y-113234650D01*
X137750750Y-113393400D01*
X138441310Y-113393400D01*
X138674699Y-113296727D01*
X138853327Y-113118098D01*
X138950000Y-112884709D01*
X138950000Y-112194150D01*
X138791250Y-112035400D01*
X137592000Y-112035400D01*
X137338000Y-112035400D01*
X137318000Y-112035400D01*
X137318000Y-111781400D01*
X137338000Y-111781400D01*
X137338000Y-110582150D01*
X137592000Y-110582150D01*
X137592000Y-111781400D01*
X138791250Y-111781400D01*
X138950000Y-111622650D01*
X138950000Y-110932091D01*
X138853327Y-110698702D01*
X138674699Y-110520073D01*
X138441310Y-110423400D01*
X137750750Y-110423400D01*
X137592000Y-110582150D01*
X137338000Y-110582150D01*
X137179250Y-110423400D01*
X136488690Y-110423400D01*
X136255301Y-110520073D01*
X136076673Y-110698702D01*
X136049882Y-110763381D01*
X135540315Y-110422899D01*
X135080319Y-110331400D01*
X134769681Y-110331400D01*
X134309685Y-110422899D01*
X133788047Y-110771447D01*
X133439499Y-111293085D01*
X133317105Y-111908400D01*
X131275411Y-111908400D01*
X131358267Y-111874080D01*
X131844080Y-111388267D01*
X132107000Y-110753522D01*
X132107000Y-110066478D01*
X131844080Y-109431733D01*
X131358267Y-108945920D01*
X130723522Y-108683000D01*
X130036478Y-108683000D01*
X129401733Y-108945920D01*
X128915920Y-109431733D01*
X128653000Y-110066478D01*
X119607000Y-110066478D01*
X119344080Y-109431733D01*
X118858267Y-108945920D01*
X118223522Y-108683000D01*
X117536478Y-108683000D01*
X116901733Y-108945920D01*
X116415920Y-109431733D01*
X116153000Y-110066478D01*
X100710000Y-110066478D01*
X100710000Y-105031218D01*
X100725400Y-104858654D01*
X101353000Y-104858654D01*
X101353000Y-106341346D01*
X101920402Y-107711176D01*
X102968824Y-108759598D01*
X104338654Y-109327000D01*
X105821346Y-109327000D01*
X107191176Y-108759598D01*
X108239598Y-107711176D01*
X108807000Y-106341346D01*
X108807000Y-105969000D01*
X109492085Y-105969000D01*
X109610598Y-106564806D01*
X109948095Y-107069905D01*
X110453194Y-107407402D01*
X110898607Y-107496000D01*
X111199393Y-107496000D01*
X111644806Y-107407402D01*
X112149905Y-107069905D01*
X112487402Y-106564806D01*
X112573000Y-106134475D01*
X112658598Y-106564806D01*
X112996095Y-107069905D01*
X113501194Y-107407402D01*
X113946607Y-107496000D01*
X114247393Y-107496000D01*
X114692806Y-107407402D01*
X115197905Y-107069905D01*
X115535402Y-106564806D01*
X115535854Y-106562532D01*
X116907073Y-106562532D01*
X117005736Y-106829387D01*
X117615461Y-107055908D01*
X118265460Y-107031856D01*
X118754264Y-106829387D01*
X118852927Y-106562532D01*
X129407073Y-106562532D01*
X129505736Y-106829387D01*
X130115461Y-107055908D01*
X130765460Y-107031856D01*
X131254264Y-106829387D01*
X131352927Y-106562532D01*
X130380000Y-105589605D01*
X129407073Y-106562532D01*
X118852927Y-106562532D01*
X117880000Y-105589605D01*
X116907073Y-106562532D01*
X115535854Y-106562532D01*
X115653915Y-105969000D01*
X115535402Y-105373194D01*
X115383236Y-105145461D01*
X116234092Y-105145461D01*
X116258144Y-105795460D01*
X116460613Y-106284264D01*
X116727468Y-106382927D01*
X117700395Y-105410000D01*
X118059605Y-105410000D01*
X119032532Y-106382927D01*
X119299387Y-106284264D01*
X119525908Y-105674539D01*
X119506331Y-105145461D01*
X128734092Y-105145461D01*
X128758144Y-105795460D01*
X128960613Y-106284264D01*
X129227468Y-106382927D01*
X130200395Y-105410000D01*
X130559605Y-105410000D01*
X131532532Y-106382927D01*
X131799387Y-106284264D01*
X132025908Y-105674539D01*
X132001856Y-105024540D01*
X131933144Y-104858654D01*
X139453000Y-104858654D01*
X139453000Y-106341346D01*
X140020402Y-107711176D01*
X141068824Y-108759598D01*
X142438654Y-109327000D01*
X143921346Y-109327000D01*
X145291176Y-108759598D01*
X146339598Y-107711176D01*
X146907000Y-106341346D01*
X146907000Y-104858654D01*
X146339598Y-103488824D01*
X145291176Y-102440402D01*
X143921346Y-101873000D01*
X142438654Y-101873000D01*
X141068824Y-102440402D01*
X140020402Y-103488824D01*
X139453000Y-104858654D01*
X131933144Y-104858654D01*
X131799387Y-104535736D01*
X131532532Y-104437073D01*
X130559605Y-105410000D01*
X130200395Y-105410000D01*
X129227468Y-104437073D01*
X128960613Y-104535736D01*
X128734092Y-105145461D01*
X119506331Y-105145461D01*
X119501856Y-105024540D01*
X119299387Y-104535736D01*
X119032532Y-104437073D01*
X118059605Y-105410000D01*
X117700395Y-105410000D01*
X116727468Y-104437073D01*
X116460613Y-104535736D01*
X116234092Y-105145461D01*
X115383236Y-105145461D01*
X115197905Y-104868095D01*
X114692806Y-104530598D01*
X114247393Y-104442000D01*
X113946607Y-104442000D01*
X113501194Y-104530598D01*
X112996095Y-104868095D01*
X112658598Y-105373194D01*
X112573000Y-105803525D01*
X112487402Y-105373194D01*
X112149905Y-104868095D01*
X111644806Y-104530598D01*
X111199393Y-104442000D01*
X110898607Y-104442000D01*
X110453194Y-104530598D01*
X109948095Y-104868095D01*
X109610598Y-105373194D01*
X109492085Y-105969000D01*
X108807000Y-105969000D01*
X108807000Y-104858654D01*
X108557981Y-104257468D01*
X116907073Y-104257468D01*
X117880000Y-105230395D01*
X118852927Y-104257468D01*
X118754264Y-103990613D01*
X118144539Y-103764092D01*
X117494540Y-103788144D01*
X117005736Y-103990613D01*
X116907073Y-104257468D01*
X108557981Y-104257468D01*
X108239598Y-103488824D01*
X107832171Y-103081397D01*
X122478000Y-103081397D01*
X122478000Y-103738603D01*
X122729502Y-104345783D01*
X123194217Y-104810498D01*
X123801397Y-105062000D01*
X124458603Y-105062000D01*
X125065783Y-104810498D01*
X125530498Y-104345783D01*
X125567079Y-104257468D01*
X129407073Y-104257468D01*
X130380000Y-105230395D01*
X131352927Y-104257468D01*
X131254264Y-103990613D01*
X130644539Y-103764092D01*
X129994540Y-103788144D01*
X129505736Y-103990613D01*
X129407073Y-104257468D01*
X125567079Y-104257468D01*
X125782000Y-103738603D01*
X125782000Y-103081397D01*
X125530498Y-102474217D01*
X125065783Y-102009502D01*
X124458603Y-101758000D01*
X123801397Y-101758000D01*
X123194217Y-102009502D01*
X122729502Y-102474217D01*
X122478000Y-103081397D01*
X107832171Y-103081397D01*
X107191176Y-102440402D01*
X105821346Y-101873000D01*
X104338654Y-101873000D01*
X102968824Y-102440402D01*
X101920402Y-103488824D01*
X101353000Y-104858654D01*
X100725400Y-104858654D01*
X100780654Y-104239554D01*
X100982009Y-103503522D01*
X101310518Y-102814790D01*
X101755800Y-102195115D01*
X102303786Y-101664080D01*
X102937141Y-101238483D01*
X103635852Y-100931770D01*
X104383306Y-100752322D01*
X104959629Y-100710000D01*
X143355382Y-100710000D01*
X144146192Y-100780578D01*
X144146192Y-100780578D01*
G37*
X144146192Y-100780578D02*
X144881389Y-100981705D01*
X145569351Y-101309846D01*
X146188331Y-101754628D01*
X146718761Y-102301988D01*
X147143884Y-102934639D01*
X147450251Y-103632561D01*
X147629499Y-104379183D01*
X147677000Y-105026030D01*
X147677001Y-141264570D01*
X147606362Y-142056066D01*
X147405056Y-142791919D01*
X147076626Y-143480485D01*
X146631451Y-144100011D01*
X146083600Y-144630916D01*
X145450393Y-145056413D01*
X144751849Y-145363053D01*
X144004574Y-145542458D01*
X143357169Y-145590000D01*
X105010018Y-145590000D01*
X104222930Y-145519754D01*
X103491337Y-145319613D01*
X102806743Y-144993079D01*
X102190805Y-144550482D01*
X101662970Y-144005801D01*
X101239934Y-143376256D01*
X100935068Y-142681752D01*
X100756693Y-141938766D01*
X100710000Y-141302925D01*
X100710000Y-140478654D01*
X101353000Y-140478654D01*
X101353000Y-141961346D01*
X101920402Y-143331176D01*
X102968824Y-144379598D01*
X104338654Y-144947000D01*
X105821346Y-144947000D01*
X107191176Y-144379598D01*
X108239598Y-143331176D01*
X108558450Y-142561397D01*
X122478000Y-142561397D01*
X122478000Y-143218603D01*
X122729502Y-143825783D01*
X123194217Y-144290498D01*
X123801397Y-144542000D01*
X124458603Y-144542000D01*
X125065783Y-144290498D01*
X125530498Y-143825783D01*
X125782000Y-143218603D01*
X125782000Y-142561397D01*
X125567080Y-142042532D01*
X129407073Y-142042532D01*
X129505736Y-142309387D01*
X130115461Y-142535908D01*
X130765460Y-142511856D01*
X131254264Y-142309387D01*
X131352927Y-142042532D01*
X130380000Y-141069605D01*
X129407073Y-142042532D01*
X125567080Y-142042532D01*
X125530498Y-141954217D01*
X125065783Y-141489502D01*
X124458603Y-141238000D01*
X123801397Y-141238000D01*
X123194217Y-141489502D01*
X122729502Y-141954217D01*
X122478000Y-142561397D01*
X108558450Y-142561397D01*
X108773371Y-142042532D01*
X116907073Y-142042532D01*
X117005736Y-142309387D01*
X117615461Y-142535908D01*
X118265460Y-142511856D01*
X118754264Y-142309387D01*
X118852927Y-142042532D01*
X117880000Y-141069605D01*
X116907073Y-142042532D01*
X108773371Y-142042532D01*
X108807000Y-141961346D01*
X108807000Y-140478654D01*
X108745840Y-140331000D01*
X112540085Y-140331000D01*
X112658598Y-140926806D01*
X112996095Y-141431905D01*
X113501194Y-141769402D01*
X113946607Y-141858000D01*
X114247393Y-141858000D01*
X114692806Y-141769402D01*
X115197905Y-141431905D01*
X115535402Y-140926806D01*
X115595343Y-140625461D01*
X116234092Y-140625461D01*
X116258144Y-141275460D01*
X116460613Y-141764264D01*
X116727468Y-141862927D01*
X117700395Y-140890000D01*
X118059605Y-140890000D01*
X119032532Y-141862927D01*
X119299387Y-141764264D01*
X119525908Y-141154539D01*
X119506331Y-140625461D01*
X128734092Y-140625461D01*
X128758144Y-141275460D01*
X128960613Y-141764264D01*
X129227468Y-141862927D01*
X130200395Y-140890000D01*
X130559605Y-140890000D01*
X131532532Y-141862927D01*
X131799387Y-141764264D01*
X132025908Y-141154539D01*
X132001856Y-140504540D01*
X131929974Y-140331000D01*
X132606085Y-140331000D01*
X132724598Y-140926806D01*
X133062095Y-141431905D01*
X133567194Y-141769402D01*
X134012607Y-141858000D01*
X134313393Y-141858000D01*
X134758806Y-141769402D01*
X135263905Y-141431905D01*
X135601402Y-140926806D01*
X135684000Y-140511557D01*
X135684000Y-140634739D01*
X135916472Y-141195976D01*
X136346024Y-141625528D01*
X136907261Y-141858000D01*
X137514739Y-141858000D01*
X138075976Y-141625528D01*
X138505528Y-141195976D01*
X138738000Y-140634739D01*
X138738000Y-140478654D01*
X139453000Y-140478654D01*
X139453000Y-141961346D01*
X140020402Y-143331176D01*
X141068824Y-144379598D01*
X142438654Y-144947000D01*
X143921346Y-144947000D01*
X145291176Y-144379598D01*
X146339598Y-143331176D01*
X146907000Y-141961346D01*
X146907000Y-140478654D01*
X146339598Y-139108824D01*
X145291176Y-138060402D01*
X143921346Y-137493000D01*
X142438654Y-137493000D01*
X141068824Y-138060402D01*
X140020402Y-139108824D01*
X139453000Y-140478654D01*
X138738000Y-140478654D01*
X138738000Y-140027261D01*
X138505528Y-139466024D01*
X138075976Y-139036472D01*
X137514739Y-138804000D01*
X136907261Y-138804000D01*
X136346024Y-139036472D01*
X135916472Y-139466024D01*
X135684000Y-140027261D01*
X135684000Y-140150443D01*
X135601402Y-139735194D01*
X135263905Y-139230095D01*
X134758806Y-138892598D01*
X134313393Y-138804000D01*
X134012607Y-138804000D01*
X133567194Y-138892598D01*
X133062095Y-139230095D01*
X132724598Y-139735194D01*
X132606085Y-140331000D01*
X131929974Y-140331000D01*
X131799387Y-140015736D01*
X131532532Y-139917073D01*
X130559605Y-140890000D01*
X130200395Y-140890000D01*
X129227468Y-139917073D01*
X128960613Y-140015736D01*
X128734092Y-140625461D01*
X119506331Y-140625461D01*
X119501856Y-140504540D01*
X119299387Y-140015736D01*
X119032532Y-139917073D01*
X118059605Y-140890000D01*
X117700395Y-140890000D01*
X116727468Y-139917073D01*
X116460613Y-140015736D01*
X116234092Y-140625461D01*
X115595343Y-140625461D01*
X115653915Y-140331000D01*
X115535855Y-139737468D01*
X116907073Y-139737468D01*
X117880000Y-140710395D01*
X118852927Y-139737468D01*
X129407073Y-139737468D01*
X130380000Y-140710395D01*
X131352927Y-139737468D01*
X131254264Y-139470613D01*
X130644539Y-139244092D01*
X129994540Y-139268144D01*
X129505736Y-139470613D01*
X129407073Y-139737468D01*
X118852927Y-139737468D01*
X118754264Y-139470613D01*
X118144539Y-139244092D01*
X117494540Y-139268144D01*
X117005736Y-139470613D01*
X116907073Y-139737468D01*
X115535855Y-139737468D01*
X115535402Y-139735194D01*
X115197905Y-139230095D01*
X114692806Y-138892598D01*
X114247393Y-138804000D01*
X113946607Y-138804000D01*
X113501194Y-138892598D01*
X112996095Y-139230095D01*
X112658598Y-139735194D01*
X112540085Y-140331000D01*
X108745840Y-140331000D01*
X108239598Y-139108824D01*
X107191176Y-138060402D01*
X105821346Y-137493000D01*
X104338654Y-137493000D01*
X102968824Y-138060402D01*
X101920402Y-139108824D01*
X101353000Y-140478654D01*
X100710000Y-140478654D01*
X100710000Y-135546478D01*
X116153000Y-135546478D01*
X116153000Y-136233522D01*
X116415920Y-136868267D01*
X116901733Y-137354080D01*
X117536478Y-137617000D01*
X118223522Y-137617000D01*
X118858267Y-137354080D01*
X119344080Y-136868267D01*
X119607000Y-136233522D01*
X119607000Y-135546478D01*
X128653000Y-135546478D01*
X128653000Y-136233522D01*
X128915920Y-136868267D01*
X129401733Y-137354080D01*
X130036478Y-137617000D01*
X130723522Y-137617000D01*
X131358267Y-137354080D01*
X131844080Y-136868267D01*
X132107000Y-136233522D01*
X132107000Y-135546478D01*
X131844080Y-134911733D01*
X131358267Y-134425920D01*
X130723522Y-134163000D01*
X130036478Y-134163000D01*
X129401733Y-134425920D01*
X128915920Y-134911733D01*
X128653000Y-135546478D01*
X119607000Y-135546478D01*
X119344080Y-134911733D01*
X118858267Y-134425920D01*
X118223522Y-134163000D01*
X117536478Y-134163000D01*
X116901733Y-134425920D01*
X116415920Y-134911733D01*
X116153000Y-135546478D01*
X100710000Y-135546478D01*
X100710000Y-132407261D01*
X112570000Y-132407261D01*
X112570000Y-133014739D01*
X112802472Y-133575976D01*
X113232024Y-134005528D01*
X113793261Y-134238000D01*
X114400739Y-134238000D01*
X114961976Y-134005528D01*
X115391528Y-133575976D01*
X115397566Y-133561397D01*
X122478000Y-133561397D01*
X122478000Y-134218603D01*
X122729502Y-134825783D01*
X123194217Y-135290498D01*
X123801397Y-135542000D01*
X124458603Y-135542000D01*
X125065783Y-135290498D01*
X125530498Y-134825783D01*
X125782000Y-134218603D01*
X125782000Y-133561397D01*
X125530498Y-132954217D01*
X125065783Y-132489502D01*
X124867236Y-132407261D01*
X132636000Y-132407261D01*
X132636000Y-133014739D01*
X132868472Y-133575976D01*
X133298024Y-134005528D01*
X133859261Y-134238000D01*
X134466739Y-134238000D01*
X135027976Y-134005528D01*
X135457528Y-133575976D01*
X135690000Y-133014739D01*
X135690000Y-132891557D01*
X135772598Y-133306806D01*
X136110095Y-133811905D01*
X136615194Y-134149402D01*
X137060607Y-134238000D01*
X137361393Y-134238000D01*
X137806806Y-134149402D01*
X138311905Y-133811905D01*
X138649402Y-133306806D01*
X138767915Y-132711000D01*
X138649402Y-132115194D01*
X138311905Y-131610095D01*
X137806806Y-131272598D01*
X137361393Y-131184000D01*
X137060607Y-131184000D01*
X136615194Y-131272598D01*
X136110095Y-131610095D01*
X135772598Y-132115194D01*
X135690000Y-132530443D01*
X135690000Y-132407261D01*
X135457528Y-131846024D01*
X135027976Y-131416472D01*
X134466739Y-131184000D01*
X133859261Y-131184000D01*
X133298024Y-131416472D01*
X132868472Y-131846024D01*
X132636000Y-132407261D01*
X124867236Y-132407261D01*
X124458603Y-132238000D01*
X123801397Y-132238000D01*
X123194217Y-132489502D01*
X122729502Y-132954217D01*
X122478000Y-133561397D01*
X115397566Y-133561397D01*
X115624000Y-133014739D01*
X115624000Y-132407261D01*
X115391528Y-131846024D01*
X114961976Y-131416472D01*
X114400739Y-131184000D01*
X113793261Y-131184000D01*
X113232024Y-131416472D01*
X112802472Y-131846024D01*
X112570000Y-132407261D01*
X100710000Y-132407261D01*
X100710000Y-130552532D01*
X105417073Y-130552532D01*
X105515736Y-130819387D01*
X106125461Y-131045908D01*
X106775460Y-131021856D01*
X107264264Y-130819387D01*
X107362927Y-130552532D01*
X106390000Y-129579605D01*
X105417073Y-130552532D01*
X100710000Y-130552532D01*
X100710000Y-129135461D01*
X104744092Y-129135461D01*
X104768144Y-129785460D01*
X104970613Y-130274264D01*
X105237468Y-130372927D01*
X106210395Y-129400000D01*
X106569605Y-129400000D01*
X107542532Y-130372927D01*
X107809387Y-130274264D01*
X108035908Y-129664539D01*
X108013408Y-129056478D01*
X109663000Y-129056478D01*
X109663000Y-129743522D01*
X109925920Y-130378267D01*
X110411733Y-130864080D01*
X111046478Y-131127000D01*
X111733522Y-131127000D01*
X112368267Y-130864080D01*
X112854080Y-130378267D01*
X113117000Y-129743522D01*
X113117000Y-129056478D01*
X112854080Y-128421733D01*
X112368267Y-127935920D01*
X111733522Y-127673000D01*
X111046478Y-127673000D01*
X110411733Y-127935920D01*
X109925920Y-128421733D01*
X109663000Y-129056478D01*
X108013408Y-129056478D01*
X108011856Y-129014540D01*
X107809387Y-128525736D01*
X107542532Y-128427073D01*
X106569605Y-129400000D01*
X106210395Y-129400000D01*
X105237468Y-128427073D01*
X104970613Y-128525736D01*
X104744092Y-129135461D01*
X100710000Y-129135461D01*
X100710000Y-128247468D01*
X105417073Y-128247468D01*
X106390000Y-129220395D01*
X107362927Y-128247468D01*
X107264264Y-127980613D01*
X106654539Y-127754092D01*
X106004540Y-127778144D01*
X105515736Y-127980613D01*
X105417073Y-128247468D01*
X100710000Y-128247468D01*
X100710000Y-125306478D01*
X116153000Y-125306478D01*
X116153000Y-125993522D01*
X116415920Y-126628267D01*
X116901733Y-127114080D01*
X117536478Y-127377000D01*
X118223522Y-127377000D01*
X118357759Y-127321397D01*
X122478000Y-127321397D01*
X122478000Y-127978603D01*
X122729502Y-128585783D01*
X123194217Y-129050498D01*
X123801397Y-129302000D01*
X124458603Y-129302000D01*
X125051345Y-129056478D01*
X135143000Y-129056478D01*
X135143000Y-129743522D01*
X135405920Y-130378267D01*
X135891733Y-130864080D01*
X136526478Y-131127000D01*
X137213522Y-131127000D01*
X137848267Y-130864080D01*
X138159815Y-130552532D01*
X140897073Y-130552532D01*
X140995736Y-130819387D01*
X141605461Y-131045908D01*
X142255460Y-131021856D01*
X142744264Y-130819387D01*
X142842927Y-130552532D01*
X141870000Y-129579605D01*
X140897073Y-130552532D01*
X138159815Y-130552532D01*
X138334080Y-130378267D01*
X138597000Y-129743522D01*
X138597000Y-129135461D01*
X140224092Y-129135461D01*
X140248144Y-129785460D01*
X140450613Y-130274264D01*
X140717468Y-130372927D01*
X141690395Y-129400000D01*
X142049605Y-129400000D01*
X143022532Y-130372927D01*
X143289387Y-130274264D01*
X143515908Y-129664539D01*
X143491856Y-129014540D01*
X143289387Y-128525736D01*
X143022532Y-128427073D01*
X142049605Y-129400000D01*
X141690395Y-129400000D01*
X140717468Y-128427073D01*
X140450613Y-128525736D01*
X140224092Y-129135461D01*
X138597000Y-129135461D01*
X138597000Y-129056478D01*
X138334080Y-128421733D01*
X138159815Y-128247468D01*
X140897073Y-128247468D01*
X141870000Y-129220395D01*
X142842927Y-128247468D01*
X142744264Y-127980613D01*
X142134539Y-127754092D01*
X141484540Y-127778144D01*
X140995736Y-127980613D01*
X140897073Y-128247468D01*
X138159815Y-128247468D01*
X137848267Y-127935920D01*
X137213522Y-127673000D01*
X136526478Y-127673000D01*
X135891733Y-127935920D01*
X135405920Y-128421733D01*
X135143000Y-129056478D01*
X125051345Y-129056478D01*
X125065783Y-129050498D01*
X125530498Y-128585783D01*
X125782000Y-127978603D01*
X125782000Y-127321397D01*
X125530498Y-126714217D01*
X125065783Y-126249502D01*
X124458603Y-125998000D01*
X123801397Y-125998000D01*
X123194217Y-126249502D01*
X122729502Y-126714217D01*
X122478000Y-127321397D01*
X118357759Y-127321397D01*
X118858267Y-127114080D01*
X119344080Y-126628267D01*
X119607000Y-125993522D01*
X119607000Y-125306478D01*
X128653000Y-125306478D01*
X128653000Y-125993522D01*
X128915920Y-126628267D01*
X129401733Y-127114080D01*
X130036478Y-127377000D01*
X130723522Y-127377000D01*
X131358267Y-127114080D01*
X131844080Y-126628267D01*
X132107000Y-125993522D01*
X132107000Y-125306478D01*
X131844080Y-124671733D01*
X131358267Y-124185920D01*
X130723522Y-123923000D01*
X130036478Y-123923000D01*
X129401733Y-124185920D01*
X128915920Y-124671733D01*
X128653000Y-125306478D01*
X119607000Y-125306478D01*
X119344080Y-124671733D01*
X118858267Y-124185920D01*
X118223522Y-123923000D01*
X117536478Y-123923000D01*
X116901733Y-124185920D01*
X116415920Y-124671733D01*
X116153000Y-125306478D01*
X100710000Y-125306478D01*
X100710000Y-122821397D01*
X102738000Y-122821397D01*
X102738000Y-123478603D01*
X102989502Y-124085783D01*
X103454217Y-124550498D01*
X104061397Y-124802000D01*
X104718603Y-124802000D01*
X105325783Y-124550498D01*
X105790498Y-124085783D01*
X106042000Y-123478603D01*
X106042000Y-122821397D01*
X111738000Y-122821397D01*
X111738000Y-123478603D01*
X111989502Y-124085783D01*
X112454217Y-124550498D01*
X113061397Y-124802000D01*
X113718603Y-124802000D01*
X114325783Y-124550498D01*
X114790498Y-124085783D01*
X115042000Y-123478603D01*
X115042000Y-122821397D01*
X133218000Y-122821397D01*
X133218000Y-123478603D01*
X133469502Y-124085783D01*
X133934217Y-124550498D01*
X134541397Y-124802000D01*
X135198603Y-124802000D01*
X135805783Y-124550498D01*
X136270498Y-124085783D01*
X136522000Y-123478603D01*
X136522000Y-122821397D01*
X142218000Y-122821397D01*
X142218000Y-123478603D01*
X142469502Y-124085783D01*
X142934217Y-124550498D01*
X143541397Y-124802000D01*
X144198603Y-124802000D01*
X144805783Y-124550498D01*
X145270498Y-124085783D01*
X145522000Y-123478603D01*
X145522000Y-122821397D01*
X145270498Y-122214217D01*
X144805783Y-121749502D01*
X144198603Y-121498000D01*
X143541397Y-121498000D01*
X142934217Y-121749502D01*
X142469502Y-122214217D01*
X142218000Y-122821397D01*
X136522000Y-122821397D01*
X136270498Y-122214217D01*
X135805783Y-121749502D01*
X135198603Y-121498000D01*
X134541397Y-121498000D01*
X133934217Y-121749502D01*
X133469502Y-122214217D01*
X133218000Y-122821397D01*
X115042000Y-122821397D01*
X114790498Y-122214217D01*
X114378813Y-121802532D01*
X116907073Y-121802532D01*
X117005736Y-122069387D01*
X117615461Y-122295908D01*
X118265460Y-122271856D01*
X118754264Y-122069387D01*
X118852927Y-121802532D01*
X129407073Y-121802532D01*
X129505736Y-122069387D01*
X130115461Y-122295908D01*
X130765460Y-122271856D01*
X131254264Y-122069387D01*
X131352927Y-121802532D01*
X130380000Y-120829605D01*
X129407073Y-121802532D01*
X118852927Y-121802532D01*
X117880000Y-120829605D01*
X116907073Y-121802532D01*
X114378813Y-121802532D01*
X114325783Y-121749502D01*
X113718603Y-121498000D01*
X113061397Y-121498000D01*
X112454217Y-121749502D01*
X111989502Y-122214217D01*
X111738000Y-122821397D01*
X106042000Y-122821397D01*
X105790498Y-122214217D01*
X105325783Y-121749502D01*
X104718603Y-121498000D01*
X104061397Y-121498000D01*
X103454217Y-121749502D01*
X102989502Y-122214217D01*
X102738000Y-122821397D01*
X100710000Y-122821397D01*
X100710000Y-120385461D01*
X116234092Y-120385461D01*
X116258144Y-121035460D01*
X116460613Y-121524264D01*
X116727468Y-121622927D01*
X117700395Y-120650000D01*
X118059605Y-120650000D01*
X119032532Y-121622927D01*
X119299387Y-121524264D01*
X119525908Y-120914539D01*
X119506331Y-120385461D01*
X128734092Y-120385461D01*
X128758144Y-121035460D01*
X128960613Y-121524264D01*
X129227468Y-121622927D01*
X130200395Y-120650000D01*
X130559605Y-120650000D01*
X131532532Y-121622927D01*
X131799387Y-121524264D01*
X132025908Y-120914539D01*
X132001856Y-120264540D01*
X131799387Y-119775736D01*
X131532532Y-119677073D01*
X130559605Y-120650000D01*
X130200395Y-120650000D01*
X129227468Y-119677073D01*
X128960613Y-119775736D01*
X128734092Y-120385461D01*
X119506331Y-120385461D01*
X119501856Y-120264540D01*
X119299387Y-119775736D01*
X119032532Y-119677073D01*
X118059605Y-120650000D01*
X117700395Y-120650000D01*
X116727468Y-119677073D01*
X116460613Y-119775736D01*
X116234092Y-120385461D01*
X100710000Y-120385461D01*
X100710000Y-119497468D01*
X116907073Y-119497468D01*
X117880000Y-120470395D01*
X118852927Y-119497468D01*
X118754264Y-119230613D01*
X118144539Y-119004092D01*
X117494540Y-119028144D01*
X117005736Y-119230613D01*
X116907073Y-119497468D01*
X100710000Y-119497468D01*
X100710000Y-118052532D01*
X105417073Y-118052532D01*
X105515736Y-118319387D01*
X106125461Y-118545908D01*
X106775460Y-118521856D01*
X107264264Y-118319387D01*
X107362927Y-118052532D01*
X106390000Y-117079605D01*
X105417073Y-118052532D01*
X100710000Y-118052532D01*
X100710000Y-116635461D01*
X104744092Y-116635461D01*
X104768144Y-117285460D01*
X104970613Y-117774264D01*
X105237468Y-117872927D01*
X106210395Y-116900000D01*
X106569605Y-116900000D01*
X107542532Y-117872927D01*
X107809387Y-117774264D01*
X108035908Y-117164539D01*
X108013408Y-116556478D01*
X109663000Y-116556478D01*
X109663000Y-117243522D01*
X109925920Y-117878267D01*
X110411733Y-118364080D01*
X111046478Y-118627000D01*
X111733522Y-118627000D01*
X112368267Y-118364080D01*
X112410950Y-118321397D01*
X122478000Y-118321397D01*
X122478000Y-118978603D01*
X122729502Y-119585783D01*
X123194217Y-120050498D01*
X123801397Y-120302000D01*
X124458603Y-120302000D01*
X125065783Y-120050498D01*
X125530498Y-119585783D01*
X125567079Y-119497468D01*
X129407073Y-119497468D01*
X130380000Y-120470395D01*
X131352927Y-119497468D01*
X131254264Y-119230613D01*
X130644539Y-119004092D01*
X129994540Y-119028144D01*
X129505736Y-119230613D01*
X129407073Y-119497468D01*
X125567079Y-119497468D01*
X125782000Y-118978603D01*
X125782000Y-118321397D01*
X125530498Y-117714217D01*
X125065783Y-117249502D01*
X124458603Y-116998000D01*
X123801397Y-116998000D01*
X123194217Y-117249502D01*
X122729502Y-117714217D01*
X122478000Y-118321397D01*
X112410950Y-118321397D01*
X112854080Y-117878267D01*
X113117000Y-117243522D01*
X113117000Y-116556478D01*
X135143000Y-116556478D01*
X135143000Y-117243522D01*
X135405920Y-117878267D01*
X135891733Y-118364080D01*
X136526478Y-118627000D01*
X137213522Y-118627000D01*
X137848267Y-118364080D01*
X138159815Y-118052532D01*
X140897073Y-118052532D01*
X140995736Y-118319387D01*
X141605461Y-118545908D01*
X142255460Y-118521856D01*
X142744264Y-118319387D01*
X142842927Y-118052532D01*
X141870000Y-117079605D01*
X140897073Y-118052532D01*
X138159815Y-118052532D01*
X138334080Y-117878267D01*
X138597000Y-117243522D01*
X138597000Y-116635461D01*
X140224092Y-116635461D01*
X140248144Y-117285460D01*
X140450613Y-117774264D01*
X140717468Y-117872927D01*
X141690395Y-116900000D01*
X142049605Y-116900000D01*
X143022532Y-117872927D01*
X143289387Y-117774264D01*
X143515908Y-117164539D01*
X143491856Y-116514540D01*
X143289387Y-116025736D01*
X143022532Y-115927073D01*
X142049605Y-116900000D01*
X141690395Y-116900000D01*
X140717468Y-115927073D01*
X140450613Y-116025736D01*
X140224092Y-116635461D01*
X138597000Y-116635461D01*
X138597000Y-116556478D01*
X138334080Y-115921733D01*
X138159815Y-115747468D01*
X140897073Y-115747468D01*
X141870000Y-116720395D01*
X142842927Y-115747468D01*
X142744264Y-115480613D01*
X142134539Y-115254092D01*
X141484540Y-115278144D01*
X140995736Y-115480613D01*
X140897073Y-115747468D01*
X138159815Y-115747468D01*
X137848267Y-115435920D01*
X137213522Y-115173000D01*
X136526478Y-115173000D01*
X135891733Y-115435920D01*
X135405920Y-115921733D01*
X135143000Y-116556478D01*
X113117000Y-116556478D01*
X112854080Y-115921733D01*
X112368267Y-115435920D01*
X111733522Y-115173000D01*
X111046478Y-115173000D01*
X110411733Y-115435920D01*
X109925920Y-115921733D01*
X109663000Y-116556478D01*
X108013408Y-116556478D01*
X108011856Y-116514540D01*
X107809387Y-116025736D01*
X107542532Y-115927073D01*
X106569605Y-116900000D01*
X106210395Y-116900000D01*
X105237468Y-115927073D01*
X104970613Y-116025736D01*
X104744092Y-116635461D01*
X100710000Y-116635461D01*
X100710000Y-115747468D01*
X105417073Y-115747468D01*
X106390000Y-116720395D01*
X107362927Y-115747468D01*
X107264264Y-115480613D01*
X106654539Y-115254092D01*
X106004540Y-115278144D01*
X105515736Y-115480613D01*
X105417073Y-115747468D01*
X100710000Y-115747468D01*
X100710000Y-113285261D01*
X109522000Y-113285261D01*
X109522000Y-113892739D01*
X109754472Y-114453976D01*
X110184024Y-114883528D01*
X110745261Y-115116000D01*
X111352739Y-115116000D01*
X111913976Y-114883528D01*
X112343528Y-114453976D01*
X112573000Y-113899982D01*
X112802472Y-114453976D01*
X113232024Y-114883528D01*
X113793261Y-115116000D01*
X114400739Y-115116000D01*
X114961976Y-114883528D01*
X115391528Y-114453976D01*
X115624000Y-113892739D01*
X115624000Y-113285261D01*
X115391528Y-112724024D01*
X114961976Y-112294472D01*
X114400739Y-112062000D01*
X113793261Y-112062000D01*
X113232024Y-112294472D01*
X112802472Y-112724024D01*
X112573000Y-113278018D01*
X112343528Y-112724024D01*
X111913976Y-112294472D01*
X111352739Y-112062000D01*
X110745261Y-112062000D01*
X110184024Y-112294472D01*
X109754472Y-112724024D01*
X109522000Y-113285261D01*
X100710000Y-113285261D01*
X100710000Y-110066478D01*
X116153000Y-110066478D01*
X116153000Y-110753522D01*
X116415920Y-111388267D01*
X116901733Y-111874080D01*
X117536478Y-112137000D01*
X118223522Y-112137000D01*
X118357759Y-112081397D01*
X122478000Y-112081397D01*
X122478000Y-112738603D01*
X122729502Y-113345783D01*
X123194217Y-113810498D01*
X123801397Y-114062000D01*
X124458603Y-114062000D01*
X125065783Y-113810498D01*
X125530498Y-113345783D01*
X125782000Y-112738603D01*
X125782000Y-112081397D01*
X125530498Y-111474217D01*
X125065783Y-111009502D01*
X124458603Y-110758000D01*
X123801397Y-110758000D01*
X123194217Y-111009502D01*
X122729502Y-111474217D01*
X122478000Y-112081397D01*
X118357759Y-112081397D01*
X118858267Y-111874080D01*
X119344080Y-111388267D01*
X119607000Y-110753522D01*
X119607000Y-110066478D01*
X128653000Y-110066478D01*
X128653000Y-110753522D01*
X128915920Y-111388267D01*
X129401733Y-111874080D01*
X130036478Y-112137000D01*
X130723522Y-112137000D01*
X131275411Y-111908400D01*
X133317105Y-111908400D01*
X133439499Y-112523715D01*
X133788047Y-113045353D01*
X134309685Y-113393901D01*
X134769681Y-113485400D01*
X135080319Y-113485400D01*
X135540315Y-113393901D01*
X136049882Y-113053419D01*
X136076673Y-113118098D01*
X136255301Y-113296727D01*
X136488690Y-113393400D01*
X137179250Y-113393400D01*
X137338000Y-113234650D01*
X137338000Y-112035400D01*
X137592000Y-112035400D01*
X137592000Y-113234650D01*
X137750750Y-113393400D01*
X138441310Y-113393400D01*
X138674699Y-113296727D01*
X138853327Y-113118098D01*
X138950000Y-112884709D01*
X138950000Y-112194150D01*
X138791250Y-112035400D01*
X137592000Y-112035400D01*
X137338000Y-112035400D01*
X137318000Y-112035400D01*
X137318000Y-111781400D01*
X137338000Y-111781400D01*
X137338000Y-110582150D01*
X137592000Y-110582150D01*
X137592000Y-111781400D01*
X138791250Y-111781400D01*
X138950000Y-111622650D01*
X138950000Y-110932091D01*
X138853327Y-110698702D01*
X138674699Y-110520073D01*
X138441310Y-110423400D01*
X137750750Y-110423400D01*
X137592000Y-110582150D01*
X137338000Y-110582150D01*
X137179250Y-110423400D01*
X136488690Y-110423400D01*
X136255301Y-110520073D01*
X136076673Y-110698702D01*
X136049882Y-110763381D01*
X135540315Y-110422899D01*
X135080319Y-110331400D01*
X134769681Y-110331400D01*
X134309685Y-110422899D01*
X133788047Y-110771447D01*
X133439499Y-111293085D01*
X133317105Y-111908400D01*
X131275411Y-111908400D01*
X131358267Y-111874080D01*
X131844080Y-111388267D01*
X132107000Y-110753522D01*
X132107000Y-110066478D01*
X131844080Y-109431733D01*
X131358267Y-108945920D01*
X130723522Y-108683000D01*
X130036478Y-108683000D01*
X129401733Y-108945920D01*
X128915920Y-109431733D01*
X128653000Y-110066478D01*
X119607000Y-110066478D01*
X119344080Y-109431733D01*
X118858267Y-108945920D01*
X118223522Y-108683000D01*
X117536478Y-108683000D01*
X116901733Y-108945920D01*
X116415920Y-109431733D01*
X116153000Y-110066478D01*
X100710000Y-110066478D01*
X100710000Y-105031218D01*
X100725400Y-104858654D01*
X101353000Y-104858654D01*
X101353000Y-106341346D01*
X101920402Y-107711176D01*
X102968824Y-108759598D01*
X104338654Y-109327000D01*
X105821346Y-109327000D01*
X107191176Y-108759598D01*
X108239598Y-107711176D01*
X108807000Y-106341346D01*
X108807000Y-105969000D01*
X109492085Y-105969000D01*
X109610598Y-106564806D01*
X109948095Y-107069905D01*
X110453194Y-107407402D01*
X110898607Y-107496000D01*
X111199393Y-107496000D01*
X111644806Y-107407402D01*
X112149905Y-107069905D01*
X112487402Y-106564806D01*
X112573000Y-106134475D01*
X112658598Y-106564806D01*
X112996095Y-107069905D01*
X113501194Y-107407402D01*
X113946607Y-107496000D01*
X114247393Y-107496000D01*
X114692806Y-107407402D01*
X115197905Y-107069905D01*
X115535402Y-106564806D01*
X115535854Y-106562532D01*
X116907073Y-106562532D01*
X117005736Y-106829387D01*
X117615461Y-107055908D01*
X118265460Y-107031856D01*
X118754264Y-106829387D01*
X118852927Y-106562532D01*
X129407073Y-106562532D01*
X129505736Y-106829387D01*
X130115461Y-107055908D01*
X130765460Y-107031856D01*
X131254264Y-106829387D01*
X131352927Y-106562532D01*
X130380000Y-105589605D01*
X129407073Y-106562532D01*
X118852927Y-106562532D01*
X117880000Y-105589605D01*
X116907073Y-106562532D01*
X115535854Y-106562532D01*
X115653915Y-105969000D01*
X115535402Y-105373194D01*
X115383236Y-105145461D01*
X116234092Y-105145461D01*
X116258144Y-105795460D01*
X116460613Y-106284264D01*
X116727468Y-106382927D01*
X117700395Y-105410000D01*
X118059605Y-105410000D01*
X119032532Y-106382927D01*
X119299387Y-106284264D01*
X119525908Y-105674539D01*
X119506331Y-105145461D01*
X128734092Y-105145461D01*
X128758144Y-105795460D01*
X128960613Y-106284264D01*
X129227468Y-106382927D01*
X130200395Y-105410000D01*
X130559605Y-105410000D01*
X131532532Y-106382927D01*
X131799387Y-106284264D01*
X132025908Y-105674539D01*
X132001856Y-105024540D01*
X131933144Y-104858654D01*
X139453000Y-104858654D01*
X139453000Y-106341346D01*
X140020402Y-107711176D01*
X141068824Y-108759598D01*
X142438654Y-109327000D01*
X143921346Y-109327000D01*
X145291176Y-108759598D01*
X146339598Y-107711176D01*
X146907000Y-106341346D01*
X146907000Y-104858654D01*
X146339598Y-103488824D01*
X145291176Y-102440402D01*
X143921346Y-101873000D01*
X142438654Y-101873000D01*
X141068824Y-102440402D01*
X140020402Y-103488824D01*
X139453000Y-104858654D01*
X131933144Y-104858654D01*
X131799387Y-104535736D01*
X131532532Y-104437073D01*
X130559605Y-105410000D01*
X130200395Y-105410000D01*
X129227468Y-104437073D01*
X128960613Y-104535736D01*
X128734092Y-105145461D01*
X119506331Y-105145461D01*
X119501856Y-105024540D01*
X119299387Y-104535736D01*
X119032532Y-104437073D01*
X118059605Y-105410000D01*
X117700395Y-105410000D01*
X116727468Y-104437073D01*
X116460613Y-104535736D01*
X116234092Y-105145461D01*
X115383236Y-105145461D01*
X115197905Y-104868095D01*
X114692806Y-104530598D01*
X114247393Y-104442000D01*
X113946607Y-104442000D01*
X113501194Y-104530598D01*
X112996095Y-104868095D01*
X112658598Y-105373194D01*
X112573000Y-105803525D01*
X112487402Y-105373194D01*
X112149905Y-104868095D01*
X111644806Y-104530598D01*
X111199393Y-104442000D01*
X110898607Y-104442000D01*
X110453194Y-104530598D01*
X109948095Y-104868095D01*
X109610598Y-105373194D01*
X109492085Y-105969000D01*
X108807000Y-105969000D01*
X108807000Y-104858654D01*
X108557981Y-104257468D01*
X116907073Y-104257468D01*
X117880000Y-105230395D01*
X118852927Y-104257468D01*
X118754264Y-103990613D01*
X118144539Y-103764092D01*
X117494540Y-103788144D01*
X117005736Y-103990613D01*
X116907073Y-104257468D01*
X108557981Y-104257468D01*
X108239598Y-103488824D01*
X107832171Y-103081397D01*
X122478000Y-103081397D01*
X122478000Y-103738603D01*
X122729502Y-104345783D01*
X123194217Y-104810498D01*
X123801397Y-105062000D01*
X124458603Y-105062000D01*
X125065783Y-104810498D01*
X125530498Y-104345783D01*
X125567079Y-104257468D01*
X129407073Y-104257468D01*
X130380000Y-105230395D01*
X131352927Y-104257468D01*
X131254264Y-103990613D01*
X130644539Y-103764092D01*
X129994540Y-103788144D01*
X129505736Y-103990613D01*
X129407073Y-104257468D01*
X125567079Y-104257468D01*
X125782000Y-103738603D01*
X125782000Y-103081397D01*
X125530498Y-102474217D01*
X125065783Y-102009502D01*
X124458603Y-101758000D01*
X123801397Y-101758000D01*
X123194217Y-102009502D01*
X122729502Y-102474217D01*
X122478000Y-103081397D01*
X107832171Y-103081397D01*
X107191176Y-102440402D01*
X105821346Y-101873000D01*
X104338654Y-101873000D01*
X102968824Y-102440402D01*
X101920402Y-103488824D01*
X101353000Y-104858654D01*
X100725400Y-104858654D01*
X100780654Y-104239554D01*
X100982009Y-103503522D01*
X101310518Y-102814790D01*
X101755800Y-102195115D01*
X102303786Y-101664080D01*
X102937141Y-101238483D01*
X103635852Y-100931770D01*
X104383306Y-100752322D01*
X104959629Y-100710000D01*
X143355382Y-100710000D01*
X144146192Y-100780578D01*
G04 #@! TD*
M02*
