M48
;DRILL file {KiCad (5.0.0-3-g5ebb6b6)} date Tuesday, 14 August 2018 at 19:07:37
;FORMAT={-:-/ absolute / inch / decimal}
FMAT,2
INCH,TZ
T1C0.0315
T2C0.0394
T3C0.0492
T4C0.0728
T5C0.1260
%
G90
G05
M72
T1
X4.372Y-4.472
X4.492Y-4.172
X5.282Y-5.2248
X5.282Y-5.5248
X4.372Y-4.172
X5.402Y-5.2248
X5.402Y-5.5248
X4.492Y-4.472
X4.492Y-5.2248
X4.492Y-5.5248
T2
X5.312Y-4.4058
X5.412Y-4.4058
T3
X4.1886Y-4.6024
X4.1886Y-5.0945
X4.3854Y-4.6024
X4.3854Y-5.0945
X5.3886Y-4.6024
X5.3886Y-5.0945
X5.5854Y-4.6024
X5.5854Y-5.0945
X4.6409Y-4.3469
X5.1331Y-4.15
X5.1331Y-4.3469
X4.6409Y-5.35
X4.6409Y-5.5469
X5.1331Y-5.35
X4.6409Y-4.75
X4.6409Y-4.9469
X5.1331Y-4.75
X5.1331Y-4.9469
X4.6409Y-4.15
X5.1331Y-5.5469
T4
X4.1098Y-4.8484
X4.4642Y-4.8484
X4.887Y-4.6713
X4.887Y-5.0256
X5.3098Y-4.8484
X5.6642Y-4.8484
X4.887Y-4.0713
X4.887Y-4.4256
X4.887Y-5.2713
X4.887Y-5.6256
T5
X4.137Y-5.5598
X5.637Y-5.5598
X5.637Y-4.1575
X4.137Y-4.1575
T0
M30
