G04 #@! TF.GenerationSoftware,KiCad,Pcbnew,(5.1.10-1-10_14)*
G04 #@! TF.CreationDate,2021-05-22T11:57:34+02:00*
G04 #@! TF.ProjectId,TecladoEB,5465636c-6164-46f4-9542-2e6b69636164,v1.3*
G04 #@! TF.SameCoordinates,PX5f5e100PY8b85c60*
G04 #@! TF.FileFunction,Copper,L2,Bot*
G04 #@! TF.FilePolarity,Positive*
%FSLAX46Y46*%
G04 Gerber Fmt 4.6, Leading zero omitted, Abs format (unit mm)*
G04 Created by KiCad (PCBNEW (5.1.10-1-10_14)) date 2021-05-22 11:57:34*
%MOMM*%
%LPD*%
G01*
G04 APERTURE LIST*
G04 #@! TA.AperFunction,ComponentPad*
%ADD10C,1.600000*%
G04 #@! TD*
G04 #@! TA.AperFunction,ComponentPad*
%ADD11O,1.600000X1.600000*%
G04 #@! TD*
G04 #@! TA.AperFunction,ComponentPad*
%ADD12C,2.000000*%
G04 #@! TD*
G04 #@! TA.AperFunction,ComponentPad*
%ADD13O,1.700000X1.700000*%
G04 #@! TD*
G04 #@! TA.AperFunction,ComponentPad*
%ADD14R,1.700000X1.700000*%
G04 #@! TD*
G04 #@! TA.AperFunction,Conductor*
%ADD15C,0.900000*%
G04 #@! TD*
G04 #@! TA.AperFunction,Conductor*
%ADD16C,0.254000*%
G04 #@! TD*
G04 #@! TA.AperFunction,Conductor*
%ADD17C,0.100000*%
G04 #@! TD*
G04 APERTURE END LIST*
D10*
X34036000Y13462000D03*
D11*
X34036000Y5842000D03*
D10*
X37338000Y5842000D03*
D11*
X37338000Y13462000D03*
D10*
X14224000Y5842000D03*
D11*
X14224000Y13462000D03*
D10*
X10922000Y32766000D03*
D11*
X10922000Y40386000D03*
D10*
X14097000Y32766000D03*
D11*
X14097000Y40386000D03*
D12*
X30380000Y20650000D03*
X17880000Y20650000D03*
X30380000Y25650000D03*
X17880000Y25650000D03*
X36870000Y16900000D03*
X36870000Y29400000D03*
X41870000Y16900000D03*
X41870000Y29400000D03*
X17880000Y10410000D03*
X30380000Y10410000D03*
X17880000Y5410000D03*
X30380000Y5410000D03*
X30380000Y35890000D03*
X17880000Y35890000D03*
X30380000Y40890000D03*
X17880000Y40890000D03*
X11390000Y29400000D03*
X11390000Y16900000D03*
X6390000Y29400000D03*
X6390000Y16900000D03*
D13*
X34925000Y34391600D03*
D14*
X37465000Y34391600D03*
D15*
X14756000Y32766000D02*
X17880000Y35890000D01*
X14097000Y32766000D02*
X14756000Y32766000D01*
X10922000Y35941000D02*
X14097000Y32766000D01*
X10922000Y40386000D02*
X10922000Y35941000D01*
X11049000Y29741000D02*
X11390000Y29400000D01*
X14097000Y13589000D02*
X14701000Y13589000D01*
X10922000Y29868000D02*
X11390000Y29400000D01*
X10922000Y32766000D02*
X10922000Y29868000D01*
X11390000Y16296000D02*
X14224000Y13462000D01*
X11390000Y16900000D02*
X11390000Y16296000D01*
X14224000Y6754000D02*
X17880000Y10410000D01*
X14224000Y5842000D02*
X14224000Y6754000D01*
X30380000Y9498000D02*
X34036000Y5842000D01*
X30380000Y10410000D02*
X30380000Y9498000D01*
X34036000Y13462000D02*
X37338000Y13462000D01*
X37338000Y16432000D02*
X36870000Y16900000D01*
X37338000Y13462000D02*
X37338000Y16432000D01*
X30380000Y20650000D02*
X30380000Y13816000D01*
X37338000Y6858000D02*
X37338000Y5842000D01*
X30380000Y13816000D02*
X37338000Y6858000D01*
X34925000Y34391600D02*
X34925000Y36703000D01*
X15947001Y38535999D02*
X14097000Y40386000D01*
X33092001Y38535999D02*
X15947001Y38535999D01*
X34925000Y36703000D02*
X33092001Y38535999D01*
D16*
X44146192Y45519422D02*
X44881389Y45318295D01*
X45569351Y44990154D01*
X46188331Y44545372D01*
X46718761Y43998012D01*
X47143884Y43365361D01*
X47450251Y42667439D01*
X47629499Y41920817D01*
X47677000Y41273970D01*
X47677001Y5035430D01*
X47606362Y4243934D01*
X47405056Y3508081D01*
X47076626Y2819515D01*
X46631451Y2199989D01*
X46083600Y1669084D01*
X45450393Y1243587D01*
X44751849Y936947D01*
X44004574Y757542D01*
X43357169Y710000D01*
X5010018Y710000D01*
X4222930Y780246D01*
X3491337Y980387D01*
X2806743Y1306921D01*
X2190805Y1749518D01*
X1662970Y2294199D01*
X1239934Y2923744D01*
X935068Y3618248D01*
X756693Y4361234D01*
X710000Y4997075D01*
X710000Y5447077D01*
X1353000Y5447077D01*
X1353000Y4712923D01*
X1496227Y3992874D01*
X1777176Y3314604D01*
X2185050Y2704176D01*
X2704176Y2185050D01*
X3314604Y1777176D01*
X3992874Y1496227D01*
X4712923Y1353000D01*
X5447077Y1353000D01*
X6167126Y1496227D01*
X6845396Y1777176D01*
X7455824Y2185050D01*
X7974950Y2704176D01*
X8382824Y3314604D01*
X8489734Y3572708D01*
X22478000Y3572708D01*
X22478000Y3247292D01*
X22541486Y2928129D01*
X22666017Y2627485D01*
X22846808Y2356912D01*
X23076912Y2126808D01*
X23347485Y1946017D01*
X23648129Y1821486D01*
X23967292Y1758000D01*
X24292708Y1758000D01*
X24611871Y1821486D01*
X24912515Y1946017D01*
X25183088Y2126808D01*
X25413192Y2356912D01*
X25593983Y2627485D01*
X25718514Y2928129D01*
X25782000Y3247292D01*
X25782000Y3572708D01*
X25718514Y3891871D01*
X25593983Y4192515D01*
X25539145Y4274587D01*
X29424192Y4274587D01*
X29519956Y4010186D01*
X29809571Y3869296D01*
X30121108Y3787616D01*
X30442595Y3768282D01*
X30761675Y3812039D01*
X31066088Y3917205D01*
X31240044Y4010186D01*
X31335808Y4274587D01*
X30380000Y5230395D01*
X29424192Y4274587D01*
X25539145Y4274587D01*
X25413192Y4463088D01*
X25183088Y4693192D01*
X24912515Y4873983D01*
X24611871Y4998514D01*
X24292708Y5062000D01*
X23967292Y5062000D01*
X23648129Y4998514D01*
X23347485Y4873983D01*
X23076912Y4693192D01*
X22846808Y4463088D01*
X22666017Y4192515D01*
X22541486Y3891871D01*
X22478000Y3572708D01*
X8489734Y3572708D01*
X8663773Y3992874D01*
X8719809Y4274587D01*
X16924192Y4274587D01*
X17019956Y4010186D01*
X17309571Y3869296D01*
X17621108Y3787616D01*
X17942595Y3768282D01*
X18261675Y3812039D01*
X18566088Y3917205D01*
X18740044Y4010186D01*
X18835808Y4274587D01*
X17880000Y5230395D01*
X16924192Y4274587D01*
X8719809Y4274587D01*
X8807000Y4712923D01*
X8807000Y5447077D01*
X8698530Y5992396D01*
X12697000Y5992396D01*
X12697000Y5691604D01*
X12755681Y5396590D01*
X12870790Y5118694D01*
X13037901Y4868594D01*
X13250594Y4655901D01*
X13500694Y4488790D01*
X13778590Y4373681D01*
X14073604Y4315000D01*
X14374396Y4315000D01*
X14669410Y4373681D01*
X14947306Y4488790D01*
X15197406Y4655901D01*
X15410099Y4868594D01*
X15577210Y5118694D01*
X15671945Y5347405D01*
X16238282Y5347405D01*
X16282039Y5028325D01*
X16387205Y4723912D01*
X16480186Y4549956D01*
X16744587Y4454192D01*
X17700395Y5410000D01*
X18059605Y5410000D01*
X19015413Y4454192D01*
X19279814Y4549956D01*
X19420704Y4839571D01*
X19502384Y5151108D01*
X19514189Y5347405D01*
X28738282Y5347405D01*
X28782039Y5028325D01*
X28887205Y4723912D01*
X28980186Y4549956D01*
X29244587Y4454192D01*
X30200395Y5410000D01*
X30559605Y5410000D01*
X31515413Y4454192D01*
X31779814Y4549956D01*
X31920704Y4839571D01*
X32002384Y5151108D01*
X32021718Y5472595D01*
X31977961Y5791675D01*
X31872795Y6096088D01*
X31779814Y6270044D01*
X31515413Y6365808D01*
X30559605Y5410000D01*
X30200395Y5410000D01*
X29244587Y6365808D01*
X28980186Y6270044D01*
X28839296Y5980429D01*
X28757616Y5668892D01*
X28738282Y5347405D01*
X19514189Y5347405D01*
X19521718Y5472595D01*
X19477961Y5791675D01*
X19372795Y6096088D01*
X19279814Y6270044D01*
X19015413Y6365808D01*
X18059605Y5410000D01*
X17700395Y5410000D01*
X16744587Y6365808D01*
X16480186Y6270044D01*
X16339296Y5980429D01*
X16257616Y5668892D01*
X16238282Y5347405D01*
X15671945Y5347405D01*
X15692319Y5396590D01*
X15751000Y5691604D01*
X15751000Y5992396D01*
X15692319Y6287410D01*
X15613126Y6478598D01*
X15679941Y6545413D01*
X16924192Y6545413D01*
X17880000Y5589605D01*
X18835808Y6545413D01*
X29424192Y6545413D01*
X30380000Y5589605D01*
X31335808Y6545413D01*
X31240044Y6809814D01*
X30950429Y6950704D01*
X30638892Y7032384D01*
X30317405Y7051718D01*
X29998325Y7007961D01*
X29693912Y6902795D01*
X29519956Y6809814D01*
X29424192Y6545413D01*
X18835808Y6545413D01*
X18740044Y6809814D01*
X18450429Y6950704D01*
X18138892Y7032384D01*
X17817405Y7051718D01*
X17498325Y7007961D01*
X17193912Y6902795D01*
X17019956Y6809814D01*
X16924192Y6545413D01*
X15679941Y6545413D01*
X17817529Y8683000D01*
X18050095Y8683000D01*
X18383747Y8749368D01*
X18698041Y8879553D01*
X18980898Y9068552D01*
X19221448Y9309102D01*
X19410447Y9591959D01*
X19540632Y9906253D01*
X19607000Y10239905D01*
X19607000Y10580095D01*
X19540632Y10913747D01*
X19410447Y11228041D01*
X19221448Y11510898D01*
X18980898Y11751448D01*
X18698041Y11940447D01*
X18383747Y12070632D01*
X18050095Y12137000D01*
X17709905Y12137000D01*
X17376253Y12070632D01*
X17061959Y11940447D01*
X16779102Y11751448D01*
X16538552Y11510898D01*
X16349553Y11228041D01*
X16219368Y10913747D01*
X16153000Y10580095D01*
X16153000Y10347529D01*
X13432618Y7627146D01*
X13387710Y7590291D01*
X13240627Y7411070D01*
X13131333Y7206597D01*
X13064031Y6984732D01*
X13064031Y6984731D01*
X13048387Y6825892D01*
X13037901Y6815406D01*
X12870790Y6565306D01*
X12755681Y6287410D01*
X12697000Y5992396D01*
X8698530Y5992396D01*
X8663773Y6167126D01*
X8382824Y6845396D01*
X7974950Y7455824D01*
X7455824Y7974950D01*
X6845396Y8382824D01*
X6167126Y8663773D01*
X5447077Y8807000D01*
X4712923Y8807000D01*
X3992874Y8663773D01*
X3314604Y8382824D01*
X2704176Y7974950D01*
X2185050Y7455824D01*
X1777176Y6845396D01*
X1496227Y6167126D01*
X1353000Y5447077D01*
X710000Y5447077D01*
X710000Y15764587D01*
X5434192Y15764587D01*
X5529956Y15500186D01*
X5819571Y15359296D01*
X6131108Y15277616D01*
X6452595Y15258282D01*
X6771675Y15302039D01*
X7076088Y15407205D01*
X7250044Y15500186D01*
X7345808Y15764587D01*
X6390000Y16720395D01*
X5434192Y15764587D01*
X710000Y15764587D01*
X710000Y16837405D01*
X4748282Y16837405D01*
X4792039Y16518325D01*
X4897205Y16213912D01*
X4990186Y16039956D01*
X5254587Y15944192D01*
X6210395Y16900000D01*
X6569605Y16900000D01*
X7525413Y15944192D01*
X7789814Y16039956D01*
X7930704Y16329571D01*
X8012384Y16641108D01*
X8031718Y16962595D01*
X8016976Y17070095D01*
X9663000Y17070095D01*
X9663000Y16729905D01*
X9729368Y16396253D01*
X9859553Y16081959D01*
X10048552Y15799102D01*
X10289102Y15558552D01*
X10571959Y15369553D01*
X10708459Y15313013D01*
X12697000Y13324471D01*
X12697000Y13311604D01*
X12755681Y13016590D01*
X12870790Y12738694D01*
X13037901Y12488594D01*
X13250594Y12275901D01*
X13500694Y12108790D01*
X13778590Y11993681D01*
X14073604Y11935000D01*
X14374396Y11935000D01*
X14669410Y11993681D01*
X14947306Y12108790D01*
X15197406Y12275901D01*
X15410099Y12488594D01*
X15466302Y12572708D01*
X22478000Y12572708D01*
X22478000Y12247292D01*
X22541486Y11928129D01*
X22666017Y11627485D01*
X22846808Y11356912D01*
X23076912Y11126808D01*
X23347485Y10946017D01*
X23648129Y10821486D01*
X23967292Y10758000D01*
X24292708Y10758000D01*
X24611871Y10821486D01*
X24912515Y10946017D01*
X25183088Y11126808D01*
X25413192Y11356912D01*
X25593983Y11627485D01*
X25718514Y11928129D01*
X25782000Y12247292D01*
X25782000Y12572708D01*
X25718514Y12891871D01*
X25593983Y13192515D01*
X25413192Y13463088D01*
X25183088Y13693192D01*
X24912515Y13873983D01*
X24611871Y13998514D01*
X24292708Y14062000D01*
X23967292Y14062000D01*
X23648129Y13998514D01*
X23347485Y13873983D01*
X23076912Y13693192D01*
X22846808Y13463088D01*
X22666017Y13192515D01*
X22541486Y12891871D01*
X22478000Y12572708D01*
X15466302Y12572708D01*
X15577210Y12738694D01*
X15629612Y12865202D01*
X15684374Y12931930D01*
X15793667Y13136403D01*
X15860969Y13358268D01*
X15883694Y13589000D01*
X15860969Y13819732D01*
X15793667Y14041597D01*
X15684374Y14246070D01*
X15537291Y14425291D01*
X15358070Y14572374D01*
X15153597Y14681667D01*
X15141822Y14685239D01*
X14947306Y14815210D01*
X14669410Y14930319D01*
X14374396Y14989000D01*
X14361529Y14989000D01*
X13022410Y16328119D01*
X13050632Y16396253D01*
X13117000Y16729905D01*
X13117000Y17070095D01*
X13050632Y17403747D01*
X12920447Y17718041D01*
X12731448Y18000898D01*
X12490898Y18241448D01*
X12208041Y18430447D01*
X11893747Y18560632D01*
X11560095Y18627000D01*
X11219905Y18627000D01*
X10886253Y18560632D01*
X10571959Y18430447D01*
X10289102Y18241448D01*
X10048552Y18000898D01*
X9859553Y17718041D01*
X9729368Y17403747D01*
X9663000Y17070095D01*
X8016976Y17070095D01*
X7987961Y17281675D01*
X7882795Y17586088D01*
X7789814Y17760044D01*
X7525413Y17855808D01*
X6569605Y16900000D01*
X6210395Y16900000D01*
X5254587Y17855808D01*
X4990186Y17760044D01*
X4849296Y17470429D01*
X4767616Y17158892D01*
X4748282Y16837405D01*
X710000Y16837405D01*
X710000Y18035413D01*
X5434192Y18035413D01*
X6390000Y17079605D01*
X7345808Y18035413D01*
X7250044Y18299814D01*
X6960429Y18440704D01*
X6648892Y18522384D01*
X6327405Y18541718D01*
X6008325Y18497961D01*
X5703912Y18392795D01*
X5529956Y18299814D01*
X5434192Y18035413D01*
X710000Y18035413D01*
X710000Y18812708D01*
X22478000Y18812708D01*
X22478000Y18487292D01*
X22541486Y18168129D01*
X22666017Y17867485D01*
X22846808Y17596912D01*
X23076912Y17366808D01*
X23347485Y17186017D01*
X23648129Y17061486D01*
X23967292Y16998000D01*
X24292708Y16998000D01*
X24611871Y17061486D01*
X24912515Y17186017D01*
X25183088Y17366808D01*
X25413192Y17596912D01*
X25593983Y17867485D01*
X25718514Y18168129D01*
X25782000Y18487292D01*
X25782000Y18812708D01*
X25718514Y19131871D01*
X25593983Y19432515D01*
X25413192Y19703088D01*
X25183088Y19933192D01*
X24912515Y20113983D01*
X24611871Y20238514D01*
X24292708Y20302000D01*
X23967292Y20302000D01*
X23648129Y20238514D01*
X23347485Y20113983D01*
X23076912Y19933192D01*
X22846808Y19703088D01*
X22666017Y19432515D01*
X22541486Y19131871D01*
X22478000Y18812708D01*
X710000Y18812708D01*
X710000Y20820095D01*
X16153000Y20820095D01*
X16153000Y20479905D01*
X16219368Y20146253D01*
X16349553Y19831959D01*
X16538552Y19549102D01*
X16779102Y19308552D01*
X17061959Y19119553D01*
X17376253Y18989368D01*
X17709905Y18923000D01*
X18050095Y18923000D01*
X18383747Y18989368D01*
X18698041Y19119553D01*
X18980898Y19308552D01*
X19221448Y19549102D01*
X19410447Y19831959D01*
X19540632Y20146253D01*
X19607000Y20479905D01*
X19607000Y20820095D01*
X28653000Y20820095D01*
X28653000Y20479905D01*
X28719368Y20146253D01*
X28849553Y19831959D01*
X29038552Y19549102D01*
X29203000Y19384654D01*
X29203001Y13873822D01*
X29197306Y13816000D01*
X29220031Y13585269D01*
X29287334Y13363403D01*
X29357962Y13231268D01*
X29396627Y13158930D01*
X29543710Y12979709D01*
X29588618Y12942854D01*
X30394472Y12137000D01*
X30209905Y12137000D01*
X29876253Y12070632D01*
X29561959Y11940447D01*
X29279102Y11751448D01*
X29038552Y11510898D01*
X28849553Y11228041D01*
X28719368Y10913747D01*
X28653000Y10580095D01*
X28653000Y10239905D01*
X28719368Y9906253D01*
X28849553Y9591959D01*
X29038552Y9309102D01*
X29279102Y9068552D01*
X29280618Y9067539D01*
X29287333Y9045403D01*
X29396627Y8840930D01*
X29543710Y8661709D01*
X29588618Y8624854D01*
X32509000Y5704470D01*
X32509000Y5691604D01*
X32567681Y5396590D01*
X32682790Y5118694D01*
X32849901Y4868594D01*
X33062594Y4655901D01*
X33312694Y4488790D01*
X33590590Y4373681D01*
X33885604Y4315000D01*
X34186396Y4315000D01*
X34481410Y4373681D01*
X34759306Y4488790D01*
X35009406Y4655901D01*
X35222099Y4868594D01*
X35389210Y5118694D01*
X35504319Y5396590D01*
X35563000Y5691604D01*
X35563000Y5992396D01*
X35504319Y6287410D01*
X35389210Y6565306D01*
X35222099Y6815406D01*
X35009406Y7028099D01*
X34759306Y7195210D01*
X34481410Y7310319D01*
X34186396Y7369000D01*
X34173530Y7369000D01*
X31922199Y9620330D01*
X32040632Y9906253D01*
X32107000Y10239905D01*
X32107000Y10424472D01*
X35979335Y6552136D01*
X35869681Y6287410D01*
X35811000Y5992396D01*
X35811000Y5691604D01*
X35869681Y5396590D01*
X35984790Y5118694D01*
X36151901Y4868594D01*
X36364594Y4655901D01*
X36614694Y4488790D01*
X36892590Y4373681D01*
X37187604Y4315000D01*
X37488396Y4315000D01*
X37783410Y4373681D01*
X38061306Y4488790D01*
X38311406Y4655901D01*
X38524099Y4868594D01*
X38691210Y5118694D01*
X38806319Y5396590D01*
X38816361Y5447077D01*
X39453000Y5447077D01*
X39453000Y4712923D01*
X39596227Y3992874D01*
X39877176Y3314604D01*
X40285050Y2704176D01*
X40804176Y2185050D01*
X41414604Y1777176D01*
X42092874Y1496227D01*
X42812923Y1353000D01*
X43547077Y1353000D01*
X44267126Y1496227D01*
X44945396Y1777176D01*
X45555824Y2185050D01*
X46074950Y2704176D01*
X46482824Y3314604D01*
X46763773Y3992874D01*
X46907000Y4712923D01*
X46907000Y5447077D01*
X46763773Y6167126D01*
X46482824Y6845396D01*
X46074950Y7455824D01*
X45555824Y7974950D01*
X44945396Y8382824D01*
X44267126Y8663773D01*
X43547077Y8807000D01*
X42812923Y8807000D01*
X42092874Y8663773D01*
X41414604Y8382824D01*
X40804176Y7974950D01*
X40285050Y7455824D01*
X39877176Y6845396D01*
X39596227Y6167126D01*
X39453000Y5447077D01*
X38816361Y5447077D01*
X38865000Y5691604D01*
X38865000Y5992396D01*
X38806319Y6287410D01*
X38691210Y6565306D01*
X38524099Y6815406D01*
X38517180Y6822325D01*
X38520694Y6858000D01*
X38497969Y7088732D01*
X38430667Y7310596D01*
X38430667Y7310597D01*
X38321374Y7515070D01*
X38174291Y7694291D01*
X38129384Y7731145D01*
X33925528Y11935000D01*
X34186396Y11935000D01*
X34481410Y11993681D01*
X34759306Y12108790D01*
X35009406Y12275901D01*
X35018505Y12285000D01*
X36355495Y12285000D01*
X36364594Y12275901D01*
X36614694Y12108790D01*
X36892590Y11993681D01*
X37187604Y11935000D01*
X37488396Y11935000D01*
X37783410Y11993681D01*
X38061306Y12108790D01*
X38311406Y12275901D01*
X38524099Y12488594D01*
X38691210Y12738694D01*
X38806319Y13016590D01*
X38865000Y13311604D01*
X38865000Y13612396D01*
X38806319Y13907410D01*
X38691210Y14185306D01*
X38524099Y14435406D01*
X38515000Y14444505D01*
X38515000Y15764587D01*
X40914192Y15764587D01*
X41009956Y15500186D01*
X41299571Y15359296D01*
X41611108Y15277616D01*
X41932595Y15258282D01*
X42251675Y15302039D01*
X42556088Y15407205D01*
X42730044Y15500186D01*
X42825808Y15764587D01*
X41870000Y16720395D01*
X40914192Y15764587D01*
X38515000Y15764587D01*
X38515000Y16358514D01*
X38530632Y16396253D01*
X38597000Y16729905D01*
X38597000Y16837405D01*
X40228282Y16837405D01*
X40272039Y16518325D01*
X40377205Y16213912D01*
X40470186Y16039956D01*
X40734587Y15944192D01*
X41690395Y16900000D01*
X42049605Y16900000D01*
X43005413Y15944192D01*
X43269814Y16039956D01*
X43410704Y16329571D01*
X43492384Y16641108D01*
X43511718Y16962595D01*
X43467961Y17281675D01*
X43362795Y17586088D01*
X43269814Y17760044D01*
X43005413Y17855808D01*
X42049605Y16900000D01*
X41690395Y16900000D01*
X40734587Y17855808D01*
X40470186Y17760044D01*
X40329296Y17470429D01*
X40247616Y17158892D01*
X40228282Y16837405D01*
X38597000Y16837405D01*
X38597000Y17070095D01*
X38530632Y17403747D01*
X38400447Y17718041D01*
X38211448Y18000898D01*
X38176933Y18035413D01*
X40914192Y18035413D01*
X41870000Y17079605D01*
X42825808Y18035413D01*
X42730044Y18299814D01*
X42440429Y18440704D01*
X42128892Y18522384D01*
X41807405Y18541718D01*
X41488325Y18497961D01*
X41183912Y18392795D01*
X41009956Y18299814D01*
X40914192Y18035413D01*
X38176933Y18035413D01*
X37970898Y18241448D01*
X37688041Y18430447D01*
X37373747Y18560632D01*
X37040095Y18627000D01*
X36699905Y18627000D01*
X36366253Y18560632D01*
X36051959Y18430447D01*
X35769102Y18241448D01*
X35528552Y18000898D01*
X35339553Y17718041D01*
X35209368Y17403747D01*
X35143000Y17070095D01*
X35143000Y16729905D01*
X35209368Y16396253D01*
X35339553Y16081959D01*
X35528552Y15799102D01*
X35769102Y15558552D01*
X36051959Y15369553D01*
X36161001Y15324386D01*
X36161000Y14639000D01*
X35018505Y14639000D01*
X35009406Y14648099D01*
X34759306Y14815210D01*
X34481410Y14930319D01*
X34186396Y14989000D01*
X33885604Y14989000D01*
X33590590Y14930319D01*
X33312694Y14815210D01*
X33062594Y14648099D01*
X32849901Y14435406D01*
X32682790Y14185306D01*
X32567681Y13907410D01*
X32509000Y13612396D01*
X32509000Y13351528D01*
X31557000Y14303528D01*
X31557000Y19384654D01*
X31721448Y19549102D01*
X31910447Y19831959D01*
X32040632Y20146253D01*
X32107000Y20479905D01*
X32107000Y20820095D01*
X32040632Y21153747D01*
X31910447Y21468041D01*
X31721448Y21750898D01*
X31480898Y21991448D01*
X31198041Y22180447D01*
X30883747Y22310632D01*
X30550095Y22377000D01*
X30209905Y22377000D01*
X29876253Y22310632D01*
X29561959Y22180447D01*
X29279102Y21991448D01*
X29038552Y21750898D01*
X28849553Y21468041D01*
X28719368Y21153747D01*
X28653000Y20820095D01*
X19607000Y20820095D01*
X19540632Y21153747D01*
X19410447Y21468041D01*
X19221448Y21750898D01*
X18980898Y21991448D01*
X18698041Y22180447D01*
X18383747Y22310632D01*
X18050095Y22377000D01*
X17709905Y22377000D01*
X17376253Y22310632D01*
X17061959Y22180447D01*
X16779102Y21991448D01*
X16538552Y21750898D01*
X16349553Y21468041D01*
X16219368Y21153747D01*
X16153000Y20820095D01*
X710000Y20820095D01*
X710000Y23312708D01*
X2738000Y23312708D01*
X2738000Y22987292D01*
X2801486Y22668129D01*
X2926017Y22367485D01*
X3106808Y22096912D01*
X3336912Y21866808D01*
X3607485Y21686017D01*
X3908129Y21561486D01*
X4227292Y21498000D01*
X4552708Y21498000D01*
X4871871Y21561486D01*
X5172515Y21686017D01*
X5443088Y21866808D01*
X5673192Y22096912D01*
X5853983Y22367485D01*
X5978514Y22668129D01*
X6042000Y22987292D01*
X6042000Y23312708D01*
X11738000Y23312708D01*
X11738000Y22987292D01*
X11801486Y22668129D01*
X11926017Y22367485D01*
X12106808Y22096912D01*
X12336912Y21866808D01*
X12607485Y21686017D01*
X12908129Y21561486D01*
X13227292Y21498000D01*
X13552708Y21498000D01*
X13871871Y21561486D01*
X14172515Y21686017D01*
X14443088Y21866808D01*
X14673192Y22096912D01*
X14853983Y22367485D01*
X14978514Y22668129D01*
X15042000Y22987292D01*
X15042000Y23312708D01*
X33218000Y23312708D01*
X33218000Y22987292D01*
X33281486Y22668129D01*
X33406017Y22367485D01*
X33586808Y22096912D01*
X33816912Y21866808D01*
X34087485Y21686017D01*
X34388129Y21561486D01*
X34707292Y21498000D01*
X35032708Y21498000D01*
X35351871Y21561486D01*
X35652515Y21686017D01*
X35923088Y21866808D01*
X36153192Y22096912D01*
X36333983Y22367485D01*
X36458514Y22668129D01*
X36522000Y22987292D01*
X36522000Y23312708D01*
X42218000Y23312708D01*
X42218000Y22987292D01*
X42281486Y22668129D01*
X42406017Y22367485D01*
X42586808Y22096912D01*
X42816912Y21866808D01*
X43087485Y21686017D01*
X43388129Y21561486D01*
X43707292Y21498000D01*
X44032708Y21498000D01*
X44351871Y21561486D01*
X44652515Y21686017D01*
X44923088Y21866808D01*
X45153192Y22096912D01*
X45333983Y22367485D01*
X45458514Y22668129D01*
X45522000Y22987292D01*
X45522000Y23312708D01*
X45458514Y23631871D01*
X45333983Y23932515D01*
X45153192Y24203088D01*
X44923088Y24433192D01*
X44652515Y24613983D01*
X44351871Y24738514D01*
X44032708Y24802000D01*
X43707292Y24802000D01*
X43388129Y24738514D01*
X43087485Y24613983D01*
X42816912Y24433192D01*
X42586808Y24203088D01*
X42406017Y23932515D01*
X42281486Y23631871D01*
X42218000Y23312708D01*
X36522000Y23312708D01*
X36458514Y23631871D01*
X36333983Y23932515D01*
X36153192Y24203088D01*
X35923088Y24433192D01*
X35652515Y24613983D01*
X35351871Y24738514D01*
X35032708Y24802000D01*
X34707292Y24802000D01*
X34388129Y24738514D01*
X34087485Y24613983D01*
X33816912Y24433192D01*
X33586808Y24203088D01*
X33406017Y23932515D01*
X33281486Y23631871D01*
X33218000Y23312708D01*
X15042000Y23312708D01*
X14978514Y23631871D01*
X14853983Y23932515D01*
X14673192Y24203088D01*
X14443088Y24433192D01*
X14321272Y24514587D01*
X16924192Y24514587D01*
X17019956Y24250186D01*
X17309571Y24109296D01*
X17621108Y24027616D01*
X17942595Y24008282D01*
X18261675Y24052039D01*
X18566088Y24157205D01*
X18740044Y24250186D01*
X18835808Y24514587D01*
X29424192Y24514587D01*
X29519956Y24250186D01*
X29809571Y24109296D01*
X30121108Y24027616D01*
X30442595Y24008282D01*
X30761675Y24052039D01*
X31066088Y24157205D01*
X31240044Y24250186D01*
X31335808Y24514587D01*
X30380000Y25470395D01*
X29424192Y24514587D01*
X18835808Y24514587D01*
X17880000Y25470395D01*
X16924192Y24514587D01*
X14321272Y24514587D01*
X14172515Y24613983D01*
X13871871Y24738514D01*
X13552708Y24802000D01*
X13227292Y24802000D01*
X12908129Y24738514D01*
X12607485Y24613983D01*
X12336912Y24433192D01*
X12106808Y24203088D01*
X11926017Y23932515D01*
X11801486Y23631871D01*
X11738000Y23312708D01*
X6042000Y23312708D01*
X5978514Y23631871D01*
X5853983Y23932515D01*
X5673192Y24203088D01*
X5443088Y24433192D01*
X5172515Y24613983D01*
X4871871Y24738514D01*
X4552708Y24802000D01*
X4227292Y24802000D01*
X3908129Y24738514D01*
X3607485Y24613983D01*
X3336912Y24433192D01*
X3106808Y24203088D01*
X2926017Y23932515D01*
X2801486Y23631871D01*
X2738000Y23312708D01*
X710000Y23312708D01*
X710000Y25587405D01*
X16238282Y25587405D01*
X16282039Y25268325D01*
X16387205Y24963912D01*
X16480186Y24789956D01*
X16744587Y24694192D01*
X17700395Y25650000D01*
X18059605Y25650000D01*
X19015413Y24694192D01*
X19279814Y24789956D01*
X19420704Y25079571D01*
X19502384Y25391108D01*
X19514189Y25587405D01*
X28738282Y25587405D01*
X28782039Y25268325D01*
X28887205Y24963912D01*
X28980186Y24789956D01*
X29244587Y24694192D01*
X30200395Y25650000D01*
X30559605Y25650000D01*
X31515413Y24694192D01*
X31779814Y24789956D01*
X31920704Y25079571D01*
X32002384Y25391108D01*
X32021718Y25712595D01*
X31977961Y26031675D01*
X31872795Y26336088D01*
X31779814Y26510044D01*
X31515413Y26605808D01*
X30559605Y25650000D01*
X30200395Y25650000D01*
X29244587Y26605808D01*
X28980186Y26510044D01*
X28839296Y26220429D01*
X28757616Y25908892D01*
X28738282Y25587405D01*
X19514189Y25587405D01*
X19521718Y25712595D01*
X19477961Y26031675D01*
X19372795Y26336088D01*
X19279814Y26510044D01*
X19015413Y26605808D01*
X18059605Y25650000D01*
X17700395Y25650000D01*
X16744587Y26605808D01*
X16480186Y26510044D01*
X16339296Y26220429D01*
X16257616Y25908892D01*
X16238282Y25587405D01*
X710000Y25587405D01*
X710000Y26785413D01*
X16924192Y26785413D01*
X17880000Y25829605D01*
X18835808Y26785413D01*
X18740044Y27049814D01*
X18450429Y27190704D01*
X18138892Y27272384D01*
X17817405Y27291718D01*
X17498325Y27247961D01*
X17193912Y27142795D01*
X17019956Y27049814D01*
X16924192Y26785413D01*
X710000Y26785413D01*
X710000Y28264587D01*
X5434192Y28264587D01*
X5529956Y28000186D01*
X5819571Y27859296D01*
X6131108Y27777616D01*
X6452595Y27758282D01*
X6771675Y27802039D01*
X7076088Y27907205D01*
X7250044Y28000186D01*
X7345808Y28264587D01*
X6390000Y29220395D01*
X5434192Y28264587D01*
X710000Y28264587D01*
X710000Y29337405D01*
X4748282Y29337405D01*
X4792039Y29018325D01*
X4897205Y28713912D01*
X4990186Y28539956D01*
X5254587Y28444192D01*
X6210395Y29400000D01*
X6569605Y29400000D01*
X7525413Y28444192D01*
X7789814Y28539956D01*
X7930704Y28829571D01*
X8012384Y29141108D01*
X8031718Y29462595D01*
X7987961Y29781675D01*
X7882795Y30086088D01*
X7789814Y30260044D01*
X7525413Y30355808D01*
X6569605Y29400000D01*
X6210395Y29400000D01*
X5254587Y30355808D01*
X4990186Y30260044D01*
X4849296Y29970429D01*
X4767616Y29658892D01*
X4748282Y29337405D01*
X710000Y29337405D01*
X710000Y30535413D01*
X5434192Y30535413D01*
X6390000Y29579605D01*
X7345808Y30535413D01*
X7250044Y30799814D01*
X6960429Y30940704D01*
X6648892Y31022384D01*
X6327405Y31041718D01*
X6008325Y30997961D01*
X5703912Y30892795D01*
X5529956Y30799814D01*
X5434192Y30535413D01*
X710000Y30535413D01*
X710000Y41067077D01*
X1353000Y41067077D01*
X1353000Y40332923D01*
X1496227Y39612874D01*
X1777176Y38934604D01*
X2185050Y38324176D01*
X2704176Y37805050D01*
X3314604Y37397176D01*
X3992874Y37116227D01*
X4712923Y36973000D01*
X5447077Y36973000D01*
X6167126Y37116227D01*
X6845396Y37397176D01*
X7455824Y37805050D01*
X7974950Y38324176D01*
X8382824Y38934604D01*
X8663773Y39612874D01*
X8807000Y40332923D01*
X8807000Y40536396D01*
X9395000Y40536396D01*
X9395000Y40235604D01*
X9453681Y39940590D01*
X9568790Y39662694D01*
X9735901Y39412594D01*
X9745000Y39403495D01*
X9745001Y35998822D01*
X9739306Y35941000D01*
X9762031Y35710269D01*
X9829334Y35488403D01*
X9878255Y35396879D01*
X9938627Y35283930D01*
X10085710Y35104709D01*
X10130618Y35067854D01*
X10905472Y34293000D01*
X10771604Y34293000D01*
X10476590Y34234319D01*
X10198694Y34119210D01*
X9948594Y33952099D01*
X9735901Y33739406D01*
X9568790Y33489306D01*
X9453681Y33211410D01*
X9395000Y32916396D01*
X9395000Y32615604D01*
X9453681Y32320590D01*
X9568790Y32042694D01*
X9735901Y31792594D01*
X9745000Y31783495D01*
X9745001Y29941488D01*
X9729368Y29903747D01*
X9663000Y29570095D01*
X9663000Y29229905D01*
X9729368Y28896253D01*
X9859553Y28581959D01*
X10048552Y28299102D01*
X10289102Y28058552D01*
X10571959Y27869553D01*
X10886253Y27739368D01*
X11219905Y27673000D01*
X11560095Y27673000D01*
X11893747Y27739368D01*
X12070805Y27812708D01*
X22478000Y27812708D01*
X22478000Y27487292D01*
X22541486Y27168129D01*
X22666017Y26867485D01*
X22846808Y26596912D01*
X23076912Y26366808D01*
X23347485Y26186017D01*
X23648129Y26061486D01*
X23967292Y25998000D01*
X24292708Y25998000D01*
X24611871Y26061486D01*
X24912515Y26186017D01*
X25183088Y26366808D01*
X25413192Y26596912D01*
X25539144Y26785413D01*
X29424192Y26785413D01*
X30380000Y25829605D01*
X31335808Y26785413D01*
X31240044Y27049814D01*
X30950429Y27190704D01*
X30638892Y27272384D01*
X30317405Y27291718D01*
X29998325Y27247961D01*
X29693912Y27142795D01*
X29519956Y27049814D01*
X29424192Y26785413D01*
X25539144Y26785413D01*
X25593983Y26867485D01*
X25718514Y27168129D01*
X25782000Y27487292D01*
X25782000Y27812708D01*
X25718514Y28131871D01*
X25593983Y28432515D01*
X25413192Y28703088D01*
X25183088Y28933192D01*
X24912515Y29113983D01*
X24611871Y29238514D01*
X24292708Y29302000D01*
X23967292Y29302000D01*
X23648129Y29238514D01*
X23347485Y29113983D01*
X23076912Y28933192D01*
X22846808Y28703088D01*
X22666017Y28432515D01*
X22541486Y28131871D01*
X22478000Y27812708D01*
X12070805Y27812708D01*
X12208041Y27869553D01*
X12490898Y28058552D01*
X12731448Y28299102D01*
X12920447Y28581959D01*
X13050632Y28896253D01*
X13117000Y29229905D01*
X13117000Y29570095D01*
X35143000Y29570095D01*
X35143000Y29229905D01*
X35209368Y28896253D01*
X35339553Y28581959D01*
X35528552Y28299102D01*
X35769102Y28058552D01*
X36051959Y27869553D01*
X36366253Y27739368D01*
X36699905Y27673000D01*
X37040095Y27673000D01*
X37373747Y27739368D01*
X37688041Y27869553D01*
X37970898Y28058552D01*
X38176933Y28264587D01*
X40914192Y28264587D01*
X41009956Y28000186D01*
X41299571Y27859296D01*
X41611108Y27777616D01*
X41932595Y27758282D01*
X42251675Y27802039D01*
X42556088Y27907205D01*
X42730044Y28000186D01*
X42825808Y28264587D01*
X41870000Y29220395D01*
X40914192Y28264587D01*
X38176933Y28264587D01*
X38211448Y28299102D01*
X38400447Y28581959D01*
X38530632Y28896253D01*
X38597000Y29229905D01*
X38597000Y29337405D01*
X40228282Y29337405D01*
X40272039Y29018325D01*
X40377205Y28713912D01*
X40470186Y28539956D01*
X40734587Y28444192D01*
X41690395Y29400000D01*
X42049605Y29400000D01*
X43005413Y28444192D01*
X43269814Y28539956D01*
X43410704Y28829571D01*
X43492384Y29141108D01*
X43511718Y29462595D01*
X43467961Y29781675D01*
X43362795Y30086088D01*
X43269814Y30260044D01*
X43005413Y30355808D01*
X42049605Y29400000D01*
X41690395Y29400000D01*
X40734587Y30355808D01*
X40470186Y30260044D01*
X40329296Y29970429D01*
X40247616Y29658892D01*
X40228282Y29337405D01*
X38597000Y29337405D01*
X38597000Y29570095D01*
X38530632Y29903747D01*
X38400447Y30218041D01*
X38211448Y30500898D01*
X38176933Y30535413D01*
X40914192Y30535413D01*
X41870000Y29579605D01*
X42825808Y30535413D01*
X42730044Y30799814D01*
X42440429Y30940704D01*
X42128892Y31022384D01*
X41807405Y31041718D01*
X41488325Y30997961D01*
X41183912Y30892795D01*
X41009956Y30799814D01*
X40914192Y30535413D01*
X38176933Y30535413D01*
X37970898Y30741448D01*
X37688041Y30930447D01*
X37373747Y31060632D01*
X37040095Y31127000D01*
X36699905Y31127000D01*
X36366253Y31060632D01*
X36051959Y30930447D01*
X35769102Y30741448D01*
X35528552Y30500898D01*
X35339553Y30218041D01*
X35209368Y29903747D01*
X35143000Y29570095D01*
X13117000Y29570095D01*
X13050632Y29903747D01*
X12920447Y30218041D01*
X12731448Y30500898D01*
X12490898Y30741448D01*
X12208041Y30930447D01*
X12099000Y30975613D01*
X12099000Y31783495D01*
X12108099Y31792594D01*
X12275210Y32042694D01*
X12390319Y32320590D01*
X12449000Y32615604D01*
X12449000Y32749471D01*
X12570000Y32628471D01*
X12570000Y32615604D01*
X12628681Y32320590D01*
X12743790Y32042694D01*
X12910901Y31792594D01*
X13123594Y31579901D01*
X13373694Y31412790D01*
X13651590Y31297681D01*
X13946604Y31239000D01*
X14247396Y31239000D01*
X14542410Y31297681D01*
X14820306Y31412790D01*
X15070406Y31579901D01*
X15144348Y31653843D01*
X15208597Y31673333D01*
X15413070Y31782626D01*
X15592291Y31929709D01*
X15629151Y31974623D01*
X17707236Y34052708D01*
X22478000Y34052708D01*
X22478000Y33727292D01*
X22541486Y33408129D01*
X22666017Y33107485D01*
X22846808Y32836912D01*
X23076912Y32606808D01*
X23347485Y32426017D01*
X23648129Y32301486D01*
X23967292Y32238000D01*
X24292708Y32238000D01*
X24611871Y32301486D01*
X24912515Y32426017D01*
X25183088Y32606808D01*
X25413192Y32836912D01*
X25593983Y33107485D01*
X25718514Y33408129D01*
X25782000Y33727292D01*
X25782000Y34052708D01*
X25718514Y34371871D01*
X25593983Y34672515D01*
X25413192Y34943088D01*
X25183088Y35173192D01*
X24912515Y35353983D01*
X24611871Y35478514D01*
X24292708Y35542000D01*
X23967292Y35542000D01*
X23648129Y35478514D01*
X23347485Y35353983D01*
X23076912Y35173192D01*
X22846808Y34943088D01*
X22666017Y34672515D01*
X22541486Y34371871D01*
X22478000Y34052708D01*
X17707236Y34052708D01*
X17817529Y34163000D01*
X18050095Y34163000D01*
X18383747Y34229368D01*
X18698041Y34359553D01*
X18980898Y34548552D01*
X19221448Y34789102D01*
X19410447Y35071959D01*
X19540632Y35386253D01*
X19607000Y35719905D01*
X19607000Y36060095D01*
X19540632Y36393747D01*
X19410447Y36708041D01*
X19221448Y36990898D01*
X18980898Y37231448D01*
X18790004Y37358999D01*
X29469996Y37358999D01*
X29279102Y37231448D01*
X29038552Y36990898D01*
X28849553Y36708041D01*
X28719368Y36393747D01*
X28653000Y36060095D01*
X28653000Y35719905D01*
X28719368Y35386253D01*
X28849553Y35071959D01*
X29038552Y34789102D01*
X29279102Y34548552D01*
X29561959Y34359553D01*
X29876253Y34229368D01*
X30209905Y34163000D01*
X30550095Y34163000D01*
X30883747Y34229368D01*
X31198041Y34359553D01*
X31480898Y34548552D01*
X31721448Y34789102D01*
X31910447Y35071959D01*
X32040632Y35386253D01*
X32107000Y35719905D01*
X32107000Y36060095D01*
X32040632Y36393747D01*
X31910447Y36708041D01*
X31721448Y36990898D01*
X31480898Y37231448D01*
X31290004Y37358999D01*
X32604473Y37358999D01*
X33748001Y36215470D01*
X33748000Y35444815D01*
X33700064Y35396879D01*
X33527481Y35138589D01*
X33408604Y34851594D01*
X33348000Y34546921D01*
X33348000Y34236279D01*
X33408604Y33931606D01*
X33527481Y33644611D01*
X33700064Y33386321D01*
X33919721Y33166664D01*
X34178011Y32994081D01*
X34465006Y32875204D01*
X34769679Y32814600D01*
X35080321Y32814600D01*
X35384994Y32875204D01*
X35671989Y32994081D01*
X35930279Y33166664D01*
X36037877Y33274262D01*
X36084463Y33187106D01*
X36163815Y33090415D01*
X36260506Y33011063D01*
X36370820Y32952098D01*
X36490518Y32915788D01*
X36615000Y32903528D01*
X37179250Y32906600D01*
X37338000Y33065350D01*
X37338000Y34264600D01*
X37592000Y34264600D01*
X37592000Y33065350D01*
X37750750Y32906600D01*
X38315000Y32903528D01*
X38439482Y32915788D01*
X38559180Y32952098D01*
X38669494Y33011063D01*
X38766185Y33090415D01*
X38845537Y33187106D01*
X38904502Y33297420D01*
X38940812Y33417118D01*
X38953072Y33541600D01*
X38950000Y34105850D01*
X38791250Y34264600D01*
X37592000Y34264600D01*
X37338000Y34264600D01*
X37318000Y34264600D01*
X37318000Y34518600D01*
X37338000Y34518600D01*
X37338000Y35717850D01*
X37592000Y35717850D01*
X37592000Y34518600D01*
X38791250Y34518600D01*
X38950000Y34677350D01*
X38953072Y35241600D01*
X38940812Y35366082D01*
X38904502Y35485780D01*
X38845537Y35596094D01*
X38766185Y35692785D01*
X38669494Y35772137D01*
X38559180Y35831102D01*
X38439482Y35867412D01*
X38315000Y35879672D01*
X37750750Y35876600D01*
X37592000Y35717850D01*
X37338000Y35717850D01*
X37179250Y35876600D01*
X36615000Y35879672D01*
X36490518Y35867412D01*
X36370820Y35831102D01*
X36260506Y35772137D01*
X36163815Y35692785D01*
X36102000Y35617463D01*
X36102000Y36645189D01*
X36107694Y36703001D01*
X36084969Y36933732D01*
X36049709Y37049968D01*
X36017667Y37155597D01*
X35908374Y37360070D01*
X35761291Y37539291D01*
X35716382Y37576147D01*
X33965152Y39327376D01*
X33928292Y39372290D01*
X33749071Y39519373D01*
X33544598Y39628666D01*
X33322733Y39695968D01*
X33149813Y39712999D01*
X33092001Y39718693D01*
X33034189Y39712999D01*
X31320745Y39712999D01*
X31335808Y39754587D01*
X30380000Y40710395D01*
X29424192Y39754587D01*
X29439255Y39712999D01*
X18820745Y39712999D01*
X18835808Y39754587D01*
X17880000Y40710395D01*
X16924192Y39754587D01*
X16939255Y39712999D01*
X16434531Y39712999D01*
X15624000Y40523529D01*
X15624000Y40536396D01*
X15566116Y40827405D01*
X16238282Y40827405D01*
X16282039Y40508325D01*
X16387205Y40203912D01*
X16480186Y40029956D01*
X16744587Y39934192D01*
X17700395Y40890000D01*
X18059605Y40890000D01*
X19015413Y39934192D01*
X19279814Y40029956D01*
X19420704Y40319571D01*
X19502384Y40631108D01*
X19514189Y40827405D01*
X28738282Y40827405D01*
X28782039Y40508325D01*
X28887205Y40203912D01*
X28980186Y40029956D01*
X29244587Y39934192D01*
X30200395Y40890000D01*
X30559605Y40890000D01*
X31515413Y39934192D01*
X31779814Y40029956D01*
X31920704Y40319571D01*
X32002384Y40631108D01*
X32021718Y40952595D01*
X32006019Y41067077D01*
X39453000Y41067077D01*
X39453000Y40332923D01*
X39596227Y39612874D01*
X39877176Y38934604D01*
X40285050Y38324176D01*
X40804176Y37805050D01*
X41414604Y37397176D01*
X42092874Y37116227D01*
X42812923Y36973000D01*
X43547077Y36973000D01*
X44267126Y37116227D01*
X44945396Y37397176D01*
X45555824Y37805050D01*
X46074950Y38324176D01*
X46482824Y38934604D01*
X46763773Y39612874D01*
X46907000Y40332923D01*
X46907000Y41067077D01*
X46763773Y41787126D01*
X46482824Y42465396D01*
X46074950Y43075824D01*
X45555824Y43594950D01*
X44945396Y44002824D01*
X44267126Y44283773D01*
X43547077Y44427000D01*
X42812923Y44427000D01*
X42092874Y44283773D01*
X41414604Y44002824D01*
X40804176Y43594950D01*
X40285050Y43075824D01*
X39877176Y42465396D01*
X39596227Y41787126D01*
X39453000Y41067077D01*
X32006019Y41067077D01*
X31977961Y41271675D01*
X31872795Y41576088D01*
X31779814Y41750044D01*
X31515413Y41845808D01*
X30559605Y40890000D01*
X30200395Y40890000D01*
X29244587Y41845808D01*
X28980186Y41750044D01*
X28839296Y41460429D01*
X28757616Y41148892D01*
X28738282Y40827405D01*
X19514189Y40827405D01*
X19521718Y40952595D01*
X19477961Y41271675D01*
X19372795Y41576088D01*
X19279814Y41750044D01*
X19015413Y41845808D01*
X18059605Y40890000D01*
X17700395Y40890000D01*
X16744587Y41845808D01*
X16480186Y41750044D01*
X16339296Y41460429D01*
X16257616Y41148892D01*
X16238282Y40827405D01*
X15566116Y40827405D01*
X15565319Y40831410D01*
X15450210Y41109306D01*
X15283099Y41359406D01*
X15070406Y41572099D01*
X14820306Y41739210D01*
X14542410Y41854319D01*
X14247396Y41913000D01*
X13946604Y41913000D01*
X13651590Y41854319D01*
X13373694Y41739210D01*
X13123594Y41572099D01*
X12910901Y41359406D01*
X12743790Y41109306D01*
X12628681Y40831410D01*
X12570000Y40536396D01*
X12570000Y40235604D01*
X12628681Y39940590D01*
X12743790Y39662694D01*
X12910901Y39412594D01*
X13123594Y39199901D01*
X13373694Y39032790D01*
X13651590Y38917681D01*
X13946604Y38859000D01*
X13959471Y38859000D01*
X15073859Y37744611D01*
X15110710Y37699708D01*
X15155613Y37662857D01*
X15155615Y37662855D01*
X15289931Y37552625D01*
X15494403Y37443332D01*
X15716269Y37376030D01*
X15947001Y37353305D01*
X16004813Y37358999D01*
X16969996Y37358999D01*
X16779102Y37231448D01*
X16538552Y36990898D01*
X16349553Y36708041D01*
X16219368Y36393747D01*
X16153000Y36060095D01*
X16153000Y35827529D01*
X14554700Y34229228D01*
X14542410Y34234319D01*
X14247396Y34293000D01*
X14234529Y34293000D01*
X12099000Y36428528D01*
X12099000Y39403495D01*
X12108099Y39412594D01*
X12275210Y39662694D01*
X12390319Y39940590D01*
X12449000Y40235604D01*
X12449000Y40536396D01*
X12390319Y40831410D01*
X12275210Y41109306D01*
X12108099Y41359406D01*
X11895406Y41572099D01*
X11645306Y41739210D01*
X11367410Y41854319D01*
X11072396Y41913000D01*
X10771604Y41913000D01*
X10476590Y41854319D01*
X10198694Y41739210D01*
X9948594Y41572099D01*
X9735901Y41359406D01*
X9568790Y41109306D01*
X9453681Y40831410D01*
X9395000Y40536396D01*
X8807000Y40536396D01*
X8807000Y41067077D01*
X8663773Y41787126D01*
X8565072Y42025413D01*
X16924192Y42025413D01*
X17880000Y41069605D01*
X18835808Y42025413D01*
X18740044Y42289814D01*
X18450429Y42430704D01*
X18138892Y42512384D01*
X17817405Y42531718D01*
X17498325Y42487961D01*
X17193912Y42382795D01*
X17019956Y42289814D01*
X16924192Y42025413D01*
X8565072Y42025413D01*
X8382824Y42465396D01*
X7990396Y43052708D01*
X22478000Y43052708D01*
X22478000Y42727292D01*
X22541486Y42408129D01*
X22666017Y42107485D01*
X22846808Y41836912D01*
X23076912Y41606808D01*
X23347485Y41426017D01*
X23648129Y41301486D01*
X23967292Y41238000D01*
X24292708Y41238000D01*
X24611871Y41301486D01*
X24912515Y41426017D01*
X25183088Y41606808D01*
X25413192Y41836912D01*
X25539144Y42025413D01*
X29424192Y42025413D01*
X30380000Y41069605D01*
X31335808Y42025413D01*
X31240044Y42289814D01*
X30950429Y42430704D01*
X30638892Y42512384D01*
X30317405Y42531718D01*
X29998325Y42487961D01*
X29693912Y42382795D01*
X29519956Y42289814D01*
X29424192Y42025413D01*
X25539144Y42025413D01*
X25593983Y42107485D01*
X25718514Y42408129D01*
X25782000Y42727292D01*
X25782000Y43052708D01*
X25718514Y43371871D01*
X25593983Y43672515D01*
X25413192Y43943088D01*
X25183088Y44173192D01*
X24912515Y44353983D01*
X24611871Y44478514D01*
X24292708Y44542000D01*
X23967292Y44542000D01*
X23648129Y44478514D01*
X23347485Y44353983D01*
X23076912Y44173192D01*
X22846808Y43943088D01*
X22666017Y43672515D01*
X22541486Y43371871D01*
X22478000Y43052708D01*
X7990396Y43052708D01*
X7974950Y43075824D01*
X7455824Y43594950D01*
X6845396Y44002824D01*
X6167126Y44283773D01*
X5447077Y44427000D01*
X4712923Y44427000D01*
X3992874Y44283773D01*
X3314604Y44002824D01*
X2704176Y43594950D01*
X2185050Y43075824D01*
X1777176Y42465396D01*
X1496227Y41787126D01*
X1353000Y41067077D01*
X710000Y41067077D01*
X710000Y41268382D01*
X780578Y42059192D01*
X981705Y42794389D01*
X1309846Y43482351D01*
X1754628Y44101331D01*
X2301988Y44631761D01*
X2934639Y45056884D01*
X3632561Y45363251D01*
X4379183Y45542499D01*
X5026030Y45590000D01*
X43355382Y45590000D01*
X44146192Y45519422D01*
G04 #@! TA.AperFunction,Conductor*
D17*
G36*
X44146192Y45519422D02*
G01*
X44881389Y45318295D01*
X45569351Y44990154D01*
X46188331Y44545372D01*
X46718761Y43998012D01*
X47143884Y43365361D01*
X47450251Y42667439D01*
X47629499Y41920817D01*
X47677000Y41273970D01*
X47677001Y5035430D01*
X47606362Y4243934D01*
X47405056Y3508081D01*
X47076626Y2819515D01*
X46631451Y2199989D01*
X46083600Y1669084D01*
X45450393Y1243587D01*
X44751849Y936947D01*
X44004574Y757542D01*
X43357169Y710000D01*
X5010018Y710000D01*
X4222930Y780246D01*
X3491337Y980387D01*
X2806743Y1306921D01*
X2190805Y1749518D01*
X1662970Y2294199D01*
X1239934Y2923744D01*
X935068Y3618248D01*
X756693Y4361234D01*
X710000Y4997075D01*
X710000Y5447077D01*
X1353000Y5447077D01*
X1353000Y4712923D01*
X1496227Y3992874D01*
X1777176Y3314604D01*
X2185050Y2704176D01*
X2704176Y2185050D01*
X3314604Y1777176D01*
X3992874Y1496227D01*
X4712923Y1353000D01*
X5447077Y1353000D01*
X6167126Y1496227D01*
X6845396Y1777176D01*
X7455824Y2185050D01*
X7974950Y2704176D01*
X8382824Y3314604D01*
X8489734Y3572708D01*
X22478000Y3572708D01*
X22478000Y3247292D01*
X22541486Y2928129D01*
X22666017Y2627485D01*
X22846808Y2356912D01*
X23076912Y2126808D01*
X23347485Y1946017D01*
X23648129Y1821486D01*
X23967292Y1758000D01*
X24292708Y1758000D01*
X24611871Y1821486D01*
X24912515Y1946017D01*
X25183088Y2126808D01*
X25413192Y2356912D01*
X25593983Y2627485D01*
X25718514Y2928129D01*
X25782000Y3247292D01*
X25782000Y3572708D01*
X25718514Y3891871D01*
X25593983Y4192515D01*
X25539145Y4274587D01*
X29424192Y4274587D01*
X29519956Y4010186D01*
X29809571Y3869296D01*
X30121108Y3787616D01*
X30442595Y3768282D01*
X30761675Y3812039D01*
X31066088Y3917205D01*
X31240044Y4010186D01*
X31335808Y4274587D01*
X30380000Y5230395D01*
X29424192Y4274587D01*
X25539145Y4274587D01*
X25413192Y4463088D01*
X25183088Y4693192D01*
X24912515Y4873983D01*
X24611871Y4998514D01*
X24292708Y5062000D01*
X23967292Y5062000D01*
X23648129Y4998514D01*
X23347485Y4873983D01*
X23076912Y4693192D01*
X22846808Y4463088D01*
X22666017Y4192515D01*
X22541486Y3891871D01*
X22478000Y3572708D01*
X8489734Y3572708D01*
X8663773Y3992874D01*
X8719809Y4274587D01*
X16924192Y4274587D01*
X17019956Y4010186D01*
X17309571Y3869296D01*
X17621108Y3787616D01*
X17942595Y3768282D01*
X18261675Y3812039D01*
X18566088Y3917205D01*
X18740044Y4010186D01*
X18835808Y4274587D01*
X17880000Y5230395D01*
X16924192Y4274587D01*
X8719809Y4274587D01*
X8807000Y4712923D01*
X8807000Y5447077D01*
X8698530Y5992396D01*
X12697000Y5992396D01*
X12697000Y5691604D01*
X12755681Y5396590D01*
X12870790Y5118694D01*
X13037901Y4868594D01*
X13250594Y4655901D01*
X13500694Y4488790D01*
X13778590Y4373681D01*
X14073604Y4315000D01*
X14374396Y4315000D01*
X14669410Y4373681D01*
X14947306Y4488790D01*
X15197406Y4655901D01*
X15410099Y4868594D01*
X15577210Y5118694D01*
X15671945Y5347405D01*
X16238282Y5347405D01*
X16282039Y5028325D01*
X16387205Y4723912D01*
X16480186Y4549956D01*
X16744587Y4454192D01*
X17700395Y5410000D01*
X18059605Y5410000D01*
X19015413Y4454192D01*
X19279814Y4549956D01*
X19420704Y4839571D01*
X19502384Y5151108D01*
X19514189Y5347405D01*
X28738282Y5347405D01*
X28782039Y5028325D01*
X28887205Y4723912D01*
X28980186Y4549956D01*
X29244587Y4454192D01*
X30200395Y5410000D01*
X30559605Y5410000D01*
X31515413Y4454192D01*
X31779814Y4549956D01*
X31920704Y4839571D01*
X32002384Y5151108D01*
X32021718Y5472595D01*
X31977961Y5791675D01*
X31872795Y6096088D01*
X31779814Y6270044D01*
X31515413Y6365808D01*
X30559605Y5410000D01*
X30200395Y5410000D01*
X29244587Y6365808D01*
X28980186Y6270044D01*
X28839296Y5980429D01*
X28757616Y5668892D01*
X28738282Y5347405D01*
X19514189Y5347405D01*
X19521718Y5472595D01*
X19477961Y5791675D01*
X19372795Y6096088D01*
X19279814Y6270044D01*
X19015413Y6365808D01*
X18059605Y5410000D01*
X17700395Y5410000D01*
X16744587Y6365808D01*
X16480186Y6270044D01*
X16339296Y5980429D01*
X16257616Y5668892D01*
X16238282Y5347405D01*
X15671945Y5347405D01*
X15692319Y5396590D01*
X15751000Y5691604D01*
X15751000Y5992396D01*
X15692319Y6287410D01*
X15613126Y6478598D01*
X15679941Y6545413D01*
X16924192Y6545413D01*
X17880000Y5589605D01*
X18835808Y6545413D01*
X29424192Y6545413D01*
X30380000Y5589605D01*
X31335808Y6545413D01*
X31240044Y6809814D01*
X30950429Y6950704D01*
X30638892Y7032384D01*
X30317405Y7051718D01*
X29998325Y7007961D01*
X29693912Y6902795D01*
X29519956Y6809814D01*
X29424192Y6545413D01*
X18835808Y6545413D01*
X18740044Y6809814D01*
X18450429Y6950704D01*
X18138892Y7032384D01*
X17817405Y7051718D01*
X17498325Y7007961D01*
X17193912Y6902795D01*
X17019956Y6809814D01*
X16924192Y6545413D01*
X15679941Y6545413D01*
X17817529Y8683000D01*
X18050095Y8683000D01*
X18383747Y8749368D01*
X18698041Y8879553D01*
X18980898Y9068552D01*
X19221448Y9309102D01*
X19410447Y9591959D01*
X19540632Y9906253D01*
X19607000Y10239905D01*
X19607000Y10580095D01*
X19540632Y10913747D01*
X19410447Y11228041D01*
X19221448Y11510898D01*
X18980898Y11751448D01*
X18698041Y11940447D01*
X18383747Y12070632D01*
X18050095Y12137000D01*
X17709905Y12137000D01*
X17376253Y12070632D01*
X17061959Y11940447D01*
X16779102Y11751448D01*
X16538552Y11510898D01*
X16349553Y11228041D01*
X16219368Y10913747D01*
X16153000Y10580095D01*
X16153000Y10347529D01*
X13432618Y7627146D01*
X13387710Y7590291D01*
X13240627Y7411070D01*
X13131333Y7206597D01*
X13064031Y6984732D01*
X13064031Y6984731D01*
X13048387Y6825892D01*
X13037901Y6815406D01*
X12870790Y6565306D01*
X12755681Y6287410D01*
X12697000Y5992396D01*
X8698530Y5992396D01*
X8663773Y6167126D01*
X8382824Y6845396D01*
X7974950Y7455824D01*
X7455824Y7974950D01*
X6845396Y8382824D01*
X6167126Y8663773D01*
X5447077Y8807000D01*
X4712923Y8807000D01*
X3992874Y8663773D01*
X3314604Y8382824D01*
X2704176Y7974950D01*
X2185050Y7455824D01*
X1777176Y6845396D01*
X1496227Y6167126D01*
X1353000Y5447077D01*
X710000Y5447077D01*
X710000Y15764587D01*
X5434192Y15764587D01*
X5529956Y15500186D01*
X5819571Y15359296D01*
X6131108Y15277616D01*
X6452595Y15258282D01*
X6771675Y15302039D01*
X7076088Y15407205D01*
X7250044Y15500186D01*
X7345808Y15764587D01*
X6390000Y16720395D01*
X5434192Y15764587D01*
X710000Y15764587D01*
X710000Y16837405D01*
X4748282Y16837405D01*
X4792039Y16518325D01*
X4897205Y16213912D01*
X4990186Y16039956D01*
X5254587Y15944192D01*
X6210395Y16900000D01*
X6569605Y16900000D01*
X7525413Y15944192D01*
X7789814Y16039956D01*
X7930704Y16329571D01*
X8012384Y16641108D01*
X8031718Y16962595D01*
X8016976Y17070095D01*
X9663000Y17070095D01*
X9663000Y16729905D01*
X9729368Y16396253D01*
X9859553Y16081959D01*
X10048552Y15799102D01*
X10289102Y15558552D01*
X10571959Y15369553D01*
X10708459Y15313013D01*
X12697000Y13324471D01*
X12697000Y13311604D01*
X12755681Y13016590D01*
X12870790Y12738694D01*
X13037901Y12488594D01*
X13250594Y12275901D01*
X13500694Y12108790D01*
X13778590Y11993681D01*
X14073604Y11935000D01*
X14374396Y11935000D01*
X14669410Y11993681D01*
X14947306Y12108790D01*
X15197406Y12275901D01*
X15410099Y12488594D01*
X15466302Y12572708D01*
X22478000Y12572708D01*
X22478000Y12247292D01*
X22541486Y11928129D01*
X22666017Y11627485D01*
X22846808Y11356912D01*
X23076912Y11126808D01*
X23347485Y10946017D01*
X23648129Y10821486D01*
X23967292Y10758000D01*
X24292708Y10758000D01*
X24611871Y10821486D01*
X24912515Y10946017D01*
X25183088Y11126808D01*
X25413192Y11356912D01*
X25593983Y11627485D01*
X25718514Y11928129D01*
X25782000Y12247292D01*
X25782000Y12572708D01*
X25718514Y12891871D01*
X25593983Y13192515D01*
X25413192Y13463088D01*
X25183088Y13693192D01*
X24912515Y13873983D01*
X24611871Y13998514D01*
X24292708Y14062000D01*
X23967292Y14062000D01*
X23648129Y13998514D01*
X23347485Y13873983D01*
X23076912Y13693192D01*
X22846808Y13463088D01*
X22666017Y13192515D01*
X22541486Y12891871D01*
X22478000Y12572708D01*
X15466302Y12572708D01*
X15577210Y12738694D01*
X15629612Y12865202D01*
X15684374Y12931930D01*
X15793667Y13136403D01*
X15860969Y13358268D01*
X15883694Y13589000D01*
X15860969Y13819732D01*
X15793667Y14041597D01*
X15684374Y14246070D01*
X15537291Y14425291D01*
X15358070Y14572374D01*
X15153597Y14681667D01*
X15141822Y14685239D01*
X14947306Y14815210D01*
X14669410Y14930319D01*
X14374396Y14989000D01*
X14361529Y14989000D01*
X13022410Y16328119D01*
X13050632Y16396253D01*
X13117000Y16729905D01*
X13117000Y17070095D01*
X13050632Y17403747D01*
X12920447Y17718041D01*
X12731448Y18000898D01*
X12490898Y18241448D01*
X12208041Y18430447D01*
X11893747Y18560632D01*
X11560095Y18627000D01*
X11219905Y18627000D01*
X10886253Y18560632D01*
X10571959Y18430447D01*
X10289102Y18241448D01*
X10048552Y18000898D01*
X9859553Y17718041D01*
X9729368Y17403747D01*
X9663000Y17070095D01*
X8016976Y17070095D01*
X7987961Y17281675D01*
X7882795Y17586088D01*
X7789814Y17760044D01*
X7525413Y17855808D01*
X6569605Y16900000D01*
X6210395Y16900000D01*
X5254587Y17855808D01*
X4990186Y17760044D01*
X4849296Y17470429D01*
X4767616Y17158892D01*
X4748282Y16837405D01*
X710000Y16837405D01*
X710000Y18035413D01*
X5434192Y18035413D01*
X6390000Y17079605D01*
X7345808Y18035413D01*
X7250044Y18299814D01*
X6960429Y18440704D01*
X6648892Y18522384D01*
X6327405Y18541718D01*
X6008325Y18497961D01*
X5703912Y18392795D01*
X5529956Y18299814D01*
X5434192Y18035413D01*
X710000Y18035413D01*
X710000Y18812708D01*
X22478000Y18812708D01*
X22478000Y18487292D01*
X22541486Y18168129D01*
X22666017Y17867485D01*
X22846808Y17596912D01*
X23076912Y17366808D01*
X23347485Y17186017D01*
X23648129Y17061486D01*
X23967292Y16998000D01*
X24292708Y16998000D01*
X24611871Y17061486D01*
X24912515Y17186017D01*
X25183088Y17366808D01*
X25413192Y17596912D01*
X25593983Y17867485D01*
X25718514Y18168129D01*
X25782000Y18487292D01*
X25782000Y18812708D01*
X25718514Y19131871D01*
X25593983Y19432515D01*
X25413192Y19703088D01*
X25183088Y19933192D01*
X24912515Y20113983D01*
X24611871Y20238514D01*
X24292708Y20302000D01*
X23967292Y20302000D01*
X23648129Y20238514D01*
X23347485Y20113983D01*
X23076912Y19933192D01*
X22846808Y19703088D01*
X22666017Y19432515D01*
X22541486Y19131871D01*
X22478000Y18812708D01*
X710000Y18812708D01*
X710000Y20820095D01*
X16153000Y20820095D01*
X16153000Y20479905D01*
X16219368Y20146253D01*
X16349553Y19831959D01*
X16538552Y19549102D01*
X16779102Y19308552D01*
X17061959Y19119553D01*
X17376253Y18989368D01*
X17709905Y18923000D01*
X18050095Y18923000D01*
X18383747Y18989368D01*
X18698041Y19119553D01*
X18980898Y19308552D01*
X19221448Y19549102D01*
X19410447Y19831959D01*
X19540632Y20146253D01*
X19607000Y20479905D01*
X19607000Y20820095D01*
X28653000Y20820095D01*
X28653000Y20479905D01*
X28719368Y20146253D01*
X28849553Y19831959D01*
X29038552Y19549102D01*
X29203000Y19384654D01*
X29203001Y13873822D01*
X29197306Y13816000D01*
X29220031Y13585269D01*
X29287334Y13363403D01*
X29357962Y13231268D01*
X29396627Y13158930D01*
X29543710Y12979709D01*
X29588618Y12942854D01*
X30394472Y12137000D01*
X30209905Y12137000D01*
X29876253Y12070632D01*
X29561959Y11940447D01*
X29279102Y11751448D01*
X29038552Y11510898D01*
X28849553Y11228041D01*
X28719368Y10913747D01*
X28653000Y10580095D01*
X28653000Y10239905D01*
X28719368Y9906253D01*
X28849553Y9591959D01*
X29038552Y9309102D01*
X29279102Y9068552D01*
X29280618Y9067539D01*
X29287333Y9045403D01*
X29396627Y8840930D01*
X29543710Y8661709D01*
X29588618Y8624854D01*
X32509000Y5704470D01*
X32509000Y5691604D01*
X32567681Y5396590D01*
X32682790Y5118694D01*
X32849901Y4868594D01*
X33062594Y4655901D01*
X33312694Y4488790D01*
X33590590Y4373681D01*
X33885604Y4315000D01*
X34186396Y4315000D01*
X34481410Y4373681D01*
X34759306Y4488790D01*
X35009406Y4655901D01*
X35222099Y4868594D01*
X35389210Y5118694D01*
X35504319Y5396590D01*
X35563000Y5691604D01*
X35563000Y5992396D01*
X35504319Y6287410D01*
X35389210Y6565306D01*
X35222099Y6815406D01*
X35009406Y7028099D01*
X34759306Y7195210D01*
X34481410Y7310319D01*
X34186396Y7369000D01*
X34173530Y7369000D01*
X31922199Y9620330D01*
X32040632Y9906253D01*
X32107000Y10239905D01*
X32107000Y10424472D01*
X35979335Y6552136D01*
X35869681Y6287410D01*
X35811000Y5992396D01*
X35811000Y5691604D01*
X35869681Y5396590D01*
X35984790Y5118694D01*
X36151901Y4868594D01*
X36364594Y4655901D01*
X36614694Y4488790D01*
X36892590Y4373681D01*
X37187604Y4315000D01*
X37488396Y4315000D01*
X37783410Y4373681D01*
X38061306Y4488790D01*
X38311406Y4655901D01*
X38524099Y4868594D01*
X38691210Y5118694D01*
X38806319Y5396590D01*
X38816361Y5447077D01*
X39453000Y5447077D01*
X39453000Y4712923D01*
X39596227Y3992874D01*
X39877176Y3314604D01*
X40285050Y2704176D01*
X40804176Y2185050D01*
X41414604Y1777176D01*
X42092874Y1496227D01*
X42812923Y1353000D01*
X43547077Y1353000D01*
X44267126Y1496227D01*
X44945396Y1777176D01*
X45555824Y2185050D01*
X46074950Y2704176D01*
X46482824Y3314604D01*
X46763773Y3992874D01*
X46907000Y4712923D01*
X46907000Y5447077D01*
X46763773Y6167126D01*
X46482824Y6845396D01*
X46074950Y7455824D01*
X45555824Y7974950D01*
X44945396Y8382824D01*
X44267126Y8663773D01*
X43547077Y8807000D01*
X42812923Y8807000D01*
X42092874Y8663773D01*
X41414604Y8382824D01*
X40804176Y7974950D01*
X40285050Y7455824D01*
X39877176Y6845396D01*
X39596227Y6167126D01*
X39453000Y5447077D01*
X38816361Y5447077D01*
X38865000Y5691604D01*
X38865000Y5992396D01*
X38806319Y6287410D01*
X38691210Y6565306D01*
X38524099Y6815406D01*
X38517180Y6822325D01*
X38520694Y6858000D01*
X38497969Y7088732D01*
X38430667Y7310596D01*
X38430667Y7310597D01*
X38321374Y7515070D01*
X38174291Y7694291D01*
X38129384Y7731145D01*
X33925528Y11935000D01*
X34186396Y11935000D01*
X34481410Y11993681D01*
X34759306Y12108790D01*
X35009406Y12275901D01*
X35018505Y12285000D01*
X36355495Y12285000D01*
X36364594Y12275901D01*
X36614694Y12108790D01*
X36892590Y11993681D01*
X37187604Y11935000D01*
X37488396Y11935000D01*
X37783410Y11993681D01*
X38061306Y12108790D01*
X38311406Y12275901D01*
X38524099Y12488594D01*
X38691210Y12738694D01*
X38806319Y13016590D01*
X38865000Y13311604D01*
X38865000Y13612396D01*
X38806319Y13907410D01*
X38691210Y14185306D01*
X38524099Y14435406D01*
X38515000Y14444505D01*
X38515000Y15764587D01*
X40914192Y15764587D01*
X41009956Y15500186D01*
X41299571Y15359296D01*
X41611108Y15277616D01*
X41932595Y15258282D01*
X42251675Y15302039D01*
X42556088Y15407205D01*
X42730044Y15500186D01*
X42825808Y15764587D01*
X41870000Y16720395D01*
X40914192Y15764587D01*
X38515000Y15764587D01*
X38515000Y16358514D01*
X38530632Y16396253D01*
X38597000Y16729905D01*
X38597000Y16837405D01*
X40228282Y16837405D01*
X40272039Y16518325D01*
X40377205Y16213912D01*
X40470186Y16039956D01*
X40734587Y15944192D01*
X41690395Y16900000D01*
X42049605Y16900000D01*
X43005413Y15944192D01*
X43269814Y16039956D01*
X43410704Y16329571D01*
X43492384Y16641108D01*
X43511718Y16962595D01*
X43467961Y17281675D01*
X43362795Y17586088D01*
X43269814Y17760044D01*
X43005413Y17855808D01*
X42049605Y16900000D01*
X41690395Y16900000D01*
X40734587Y17855808D01*
X40470186Y17760044D01*
X40329296Y17470429D01*
X40247616Y17158892D01*
X40228282Y16837405D01*
X38597000Y16837405D01*
X38597000Y17070095D01*
X38530632Y17403747D01*
X38400447Y17718041D01*
X38211448Y18000898D01*
X38176933Y18035413D01*
X40914192Y18035413D01*
X41870000Y17079605D01*
X42825808Y18035413D01*
X42730044Y18299814D01*
X42440429Y18440704D01*
X42128892Y18522384D01*
X41807405Y18541718D01*
X41488325Y18497961D01*
X41183912Y18392795D01*
X41009956Y18299814D01*
X40914192Y18035413D01*
X38176933Y18035413D01*
X37970898Y18241448D01*
X37688041Y18430447D01*
X37373747Y18560632D01*
X37040095Y18627000D01*
X36699905Y18627000D01*
X36366253Y18560632D01*
X36051959Y18430447D01*
X35769102Y18241448D01*
X35528552Y18000898D01*
X35339553Y17718041D01*
X35209368Y17403747D01*
X35143000Y17070095D01*
X35143000Y16729905D01*
X35209368Y16396253D01*
X35339553Y16081959D01*
X35528552Y15799102D01*
X35769102Y15558552D01*
X36051959Y15369553D01*
X36161001Y15324386D01*
X36161000Y14639000D01*
X35018505Y14639000D01*
X35009406Y14648099D01*
X34759306Y14815210D01*
X34481410Y14930319D01*
X34186396Y14989000D01*
X33885604Y14989000D01*
X33590590Y14930319D01*
X33312694Y14815210D01*
X33062594Y14648099D01*
X32849901Y14435406D01*
X32682790Y14185306D01*
X32567681Y13907410D01*
X32509000Y13612396D01*
X32509000Y13351528D01*
X31557000Y14303528D01*
X31557000Y19384654D01*
X31721448Y19549102D01*
X31910447Y19831959D01*
X32040632Y20146253D01*
X32107000Y20479905D01*
X32107000Y20820095D01*
X32040632Y21153747D01*
X31910447Y21468041D01*
X31721448Y21750898D01*
X31480898Y21991448D01*
X31198041Y22180447D01*
X30883747Y22310632D01*
X30550095Y22377000D01*
X30209905Y22377000D01*
X29876253Y22310632D01*
X29561959Y22180447D01*
X29279102Y21991448D01*
X29038552Y21750898D01*
X28849553Y21468041D01*
X28719368Y21153747D01*
X28653000Y20820095D01*
X19607000Y20820095D01*
X19540632Y21153747D01*
X19410447Y21468041D01*
X19221448Y21750898D01*
X18980898Y21991448D01*
X18698041Y22180447D01*
X18383747Y22310632D01*
X18050095Y22377000D01*
X17709905Y22377000D01*
X17376253Y22310632D01*
X17061959Y22180447D01*
X16779102Y21991448D01*
X16538552Y21750898D01*
X16349553Y21468041D01*
X16219368Y21153747D01*
X16153000Y20820095D01*
X710000Y20820095D01*
X710000Y23312708D01*
X2738000Y23312708D01*
X2738000Y22987292D01*
X2801486Y22668129D01*
X2926017Y22367485D01*
X3106808Y22096912D01*
X3336912Y21866808D01*
X3607485Y21686017D01*
X3908129Y21561486D01*
X4227292Y21498000D01*
X4552708Y21498000D01*
X4871871Y21561486D01*
X5172515Y21686017D01*
X5443088Y21866808D01*
X5673192Y22096912D01*
X5853983Y22367485D01*
X5978514Y22668129D01*
X6042000Y22987292D01*
X6042000Y23312708D01*
X11738000Y23312708D01*
X11738000Y22987292D01*
X11801486Y22668129D01*
X11926017Y22367485D01*
X12106808Y22096912D01*
X12336912Y21866808D01*
X12607485Y21686017D01*
X12908129Y21561486D01*
X13227292Y21498000D01*
X13552708Y21498000D01*
X13871871Y21561486D01*
X14172515Y21686017D01*
X14443088Y21866808D01*
X14673192Y22096912D01*
X14853983Y22367485D01*
X14978514Y22668129D01*
X15042000Y22987292D01*
X15042000Y23312708D01*
X33218000Y23312708D01*
X33218000Y22987292D01*
X33281486Y22668129D01*
X33406017Y22367485D01*
X33586808Y22096912D01*
X33816912Y21866808D01*
X34087485Y21686017D01*
X34388129Y21561486D01*
X34707292Y21498000D01*
X35032708Y21498000D01*
X35351871Y21561486D01*
X35652515Y21686017D01*
X35923088Y21866808D01*
X36153192Y22096912D01*
X36333983Y22367485D01*
X36458514Y22668129D01*
X36522000Y22987292D01*
X36522000Y23312708D01*
X42218000Y23312708D01*
X42218000Y22987292D01*
X42281486Y22668129D01*
X42406017Y22367485D01*
X42586808Y22096912D01*
X42816912Y21866808D01*
X43087485Y21686017D01*
X43388129Y21561486D01*
X43707292Y21498000D01*
X44032708Y21498000D01*
X44351871Y21561486D01*
X44652515Y21686017D01*
X44923088Y21866808D01*
X45153192Y22096912D01*
X45333983Y22367485D01*
X45458514Y22668129D01*
X45522000Y22987292D01*
X45522000Y23312708D01*
X45458514Y23631871D01*
X45333983Y23932515D01*
X45153192Y24203088D01*
X44923088Y24433192D01*
X44652515Y24613983D01*
X44351871Y24738514D01*
X44032708Y24802000D01*
X43707292Y24802000D01*
X43388129Y24738514D01*
X43087485Y24613983D01*
X42816912Y24433192D01*
X42586808Y24203088D01*
X42406017Y23932515D01*
X42281486Y23631871D01*
X42218000Y23312708D01*
X36522000Y23312708D01*
X36458514Y23631871D01*
X36333983Y23932515D01*
X36153192Y24203088D01*
X35923088Y24433192D01*
X35652515Y24613983D01*
X35351871Y24738514D01*
X35032708Y24802000D01*
X34707292Y24802000D01*
X34388129Y24738514D01*
X34087485Y24613983D01*
X33816912Y24433192D01*
X33586808Y24203088D01*
X33406017Y23932515D01*
X33281486Y23631871D01*
X33218000Y23312708D01*
X15042000Y23312708D01*
X14978514Y23631871D01*
X14853983Y23932515D01*
X14673192Y24203088D01*
X14443088Y24433192D01*
X14321272Y24514587D01*
X16924192Y24514587D01*
X17019956Y24250186D01*
X17309571Y24109296D01*
X17621108Y24027616D01*
X17942595Y24008282D01*
X18261675Y24052039D01*
X18566088Y24157205D01*
X18740044Y24250186D01*
X18835808Y24514587D01*
X29424192Y24514587D01*
X29519956Y24250186D01*
X29809571Y24109296D01*
X30121108Y24027616D01*
X30442595Y24008282D01*
X30761675Y24052039D01*
X31066088Y24157205D01*
X31240044Y24250186D01*
X31335808Y24514587D01*
X30380000Y25470395D01*
X29424192Y24514587D01*
X18835808Y24514587D01*
X17880000Y25470395D01*
X16924192Y24514587D01*
X14321272Y24514587D01*
X14172515Y24613983D01*
X13871871Y24738514D01*
X13552708Y24802000D01*
X13227292Y24802000D01*
X12908129Y24738514D01*
X12607485Y24613983D01*
X12336912Y24433192D01*
X12106808Y24203088D01*
X11926017Y23932515D01*
X11801486Y23631871D01*
X11738000Y23312708D01*
X6042000Y23312708D01*
X5978514Y23631871D01*
X5853983Y23932515D01*
X5673192Y24203088D01*
X5443088Y24433192D01*
X5172515Y24613983D01*
X4871871Y24738514D01*
X4552708Y24802000D01*
X4227292Y24802000D01*
X3908129Y24738514D01*
X3607485Y24613983D01*
X3336912Y24433192D01*
X3106808Y24203088D01*
X2926017Y23932515D01*
X2801486Y23631871D01*
X2738000Y23312708D01*
X710000Y23312708D01*
X710000Y25587405D01*
X16238282Y25587405D01*
X16282039Y25268325D01*
X16387205Y24963912D01*
X16480186Y24789956D01*
X16744587Y24694192D01*
X17700395Y25650000D01*
X18059605Y25650000D01*
X19015413Y24694192D01*
X19279814Y24789956D01*
X19420704Y25079571D01*
X19502384Y25391108D01*
X19514189Y25587405D01*
X28738282Y25587405D01*
X28782039Y25268325D01*
X28887205Y24963912D01*
X28980186Y24789956D01*
X29244587Y24694192D01*
X30200395Y25650000D01*
X30559605Y25650000D01*
X31515413Y24694192D01*
X31779814Y24789956D01*
X31920704Y25079571D01*
X32002384Y25391108D01*
X32021718Y25712595D01*
X31977961Y26031675D01*
X31872795Y26336088D01*
X31779814Y26510044D01*
X31515413Y26605808D01*
X30559605Y25650000D01*
X30200395Y25650000D01*
X29244587Y26605808D01*
X28980186Y26510044D01*
X28839296Y26220429D01*
X28757616Y25908892D01*
X28738282Y25587405D01*
X19514189Y25587405D01*
X19521718Y25712595D01*
X19477961Y26031675D01*
X19372795Y26336088D01*
X19279814Y26510044D01*
X19015413Y26605808D01*
X18059605Y25650000D01*
X17700395Y25650000D01*
X16744587Y26605808D01*
X16480186Y26510044D01*
X16339296Y26220429D01*
X16257616Y25908892D01*
X16238282Y25587405D01*
X710000Y25587405D01*
X710000Y26785413D01*
X16924192Y26785413D01*
X17880000Y25829605D01*
X18835808Y26785413D01*
X18740044Y27049814D01*
X18450429Y27190704D01*
X18138892Y27272384D01*
X17817405Y27291718D01*
X17498325Y27247961D01*
X17193912Y27142795D01*
X17019956Y27049814D01*
X16924192Y26785413D01*
X710000Y26785413D01*
X710000Y28264587D01*
X5434192Y28264587D01*
X5529956Y28000186D01*
X5819571Y27859296D01*
X6131108Y27777616D01*
X6452595Y27758282D01*
X6771675Y27802039D01*
X7076088Y27907205D01*
X7250044Y28000186D01*
X7345808Y28264587D01*
X6390000Y29220395D01*
X5434192Y28264587D01*
X710000Y28264587D01*
X710000Y29337405D01*
X4748282Y29337405D01*
X4792039Y29018325D01*
X4897205Y28713912D01*
X4990186Y28539956D01*
X5254587Y28444192D01*
X6210395Y29400000D01*
X6569605Y29400000D01*
X7525413Y28444192D01*
X7789814Y28539956D01*
X7930704Y28829571D01*
X8012384Y29141108D01*
X8031718Y29462595D01*
X7987961Y29781675D01*
X7882795Y30086088D01*
X7789814Y30260044D01*
X7525413Y30355808D01*
X6569605Y29400000D01*
X6210395Y29400000D01*
X5254587Y30355808D01*
X4990186Y30260044D01*
X4849296Y29970429D01*
X4767616Y29658892D01*
X4748282Y29337405D01*
X710000Y29337405D01*
X710000Y30535413D01*
X5434192Y30535413D01*
X6390000Y29579605D01*
X7345808Y30535413D01*
X7250044Y30799814D01*
X6960429Y30940704D01*
X6648892Y31022384D01*
X6327405Y31041718D01*
X6008325Y30997961D01*
X5703912Y30892795D01*
X5529956Y30799814D01*
X5434192Y30535413D01*
X710000Y30535413D01*
X710000Y41067077D01*
X1353000Y41067077D01*
X1353000Y40332923D01*
X1496227Y39612874D01*
X1777176Y38934604D01*
X2185050Y38324176D01*
X2704176Y37805050D01*
X3314604Y37397176D01*
X3992874Y37116227D01*
X4712923Y36973000D01*
X5447077Y36973000D01*
X6167126Y37116227D01*
X6845396Y37397176D01*
X7455824Y37805050D01*
X7974950Y38324176D01*
X8382824Y38934604D01*
X8663773Y39612874D01*
X8807000Y40332923D01*
X8807000Y40536396D01*
X9395000Y40536396D01*
X9395000Y40235604D01*
X9453681Y39940590D01*
X9568790Y39662694D01*
X9735901Y39412594D01*
X9745000Y39403495D01*
X9745001Y35998822D01*
X9739306Y35941000D01*
X9762031Y35710269D01*
X9829334Y35488403D01*
X9878255Y35396879D01*
X9938627Y35283930D01*
X10085710Y35104709D01*
X10130618Y35067854D01*
X10905472Y34293000D01*
X10771604Y34293000D01*
X10476590Y34234319D01*
X10198694Y34119210D01*
X9948594Y33952099D01*
X9735901Y33739406D01*
X9568790Y33489306D01*
X9453681Y33211410D01*
X9395000Y32916396D01*
X9395000Y32615604D01*
X9453681Y32320590D01*
X9568790Y32042694D01*
X9735901Y31792594D01*
X9745000Y31783495D01*
X9745001Y29941488D01*
X9729368Y29903747D01*
X9663000Y29570095D01*
X9663000Y29229905D01*
X9729368Y28896253D01*
X9859553Y28581959D01*
X10048552Y28299102D01*
X10289102Y28058552D01*
X10571959Y27869553D01*
X10886253Y27739368D01*
X11219905Y27673000D01*
X11560095Y27673000D01*
X11893747Y27739368D01*
X12070805Y27812708D01*
X22478000Y27812708D01*
X22478000Y27487292D01*
X22541486Y27168129D01*
X22666017Y26867485D01*
X22846808Y26596912D01*
X23076912Y26366808D01*
X23347485Y26186017D01*
X23648129Y26061486D01*
X23967292Y25998000D01*
X24292708Y25998000D01*
X24611871Y26061486D01*
X24912515Y26186017D01*
X25183088Y26366808D01*
X25413192Y26596912D01*
X25539144Y26785413D01*
X29424192Y26785413D01*
X30380000Y25829605D01*
X31335808Y26785413D01*
X31240044Y27049814D01*
X30950429Y27190704D01*
X30638892Y27272384D01*
X30317405Y27291718D01*
X29998325Y27247961D01*
X29693912Y27142795D01*
X29519956Y27049814D01*
X29424192Y26785413D01*
X25539144Y26785413D01*
X25593983Y26867485D01*
X25718514Y27168129D01*
X25782000Y27487292D01*
X25782000Y27812708D01*
X25718514Y28131871D01*
X25593983Y28432515D01*
X25413192Y28703088D01*
X25183088Y28933192D01*
X24912515Y29113983D01*
X24611871Y29238514D01*
X24292708Y29302000D01*
X23967292Y29302000D01*
X23648129Y29238514D01*
X23347485Y29113983D01*
X23076912Y28933192D01*
X22846808Y28703088D01*
X22666017Y28432515D01*
X22541486Y28131871D01*
X22478000Y27812708D01*
X12070805Y27812708D01*
X12208041Y27869553D01*
X12490898Y28058552D01*
X12731448Y28299102D01*
X12920447Y28581959D01*
X13050632Y28896253D01*
X13117000Y29229905D01*
X13117000Y29570095D01*
X35143000Y29570095D01*
X35143000Y29229905D01*
X35209368Y28896253D01*
X35339553Y28581959D01*
X35528552Y28299102D01*
X35769102Y28058552D01*
X36051959Y27869553D01*
X36366253Y27739368D01*
X36699905Y27673000D01*
X37040095Y27673000D01*
X37373747Y27739368D01*
X37688041Y27869553D01*
X37970898Y28058552D01*
X38176933Y28264587D01*
X40914192Y28264587D01*
X41009956Y28000186D01*
X41299571Y27859296D01*
X41611108Y27777616D01*
X41932595Y27758282D01*
X42251675Y27802039D01*
X42556088Y27907205D01*
X42730044Y28000186D01*
X42825808Y28264587D01*
X41870000Y29220395D01*
X40914192Y28264587D01*
X38176933Y28264587D01*
X38211448Y28299102D01*
X38400447Y28581959D01*
X38530632Y28896253D01*
X38597000Y29229905D01*
X38597000Y29337405D01*
X40228282Y29337405D01*
X40272039Y29018325D01*
X40377205Y28713912D01*
X40470186Y28539956D01*
X40734587Y28444192D01*
X41690395Y29400000D01*
X42049605Y29400000D01*
X43005413Y28444192D01*
X43269814Y28539956D01*
X43410704Y28829571D01*
X43492384Y29141108D01*
X43511718Y29462595D01*
X43467961Y29781675D01*
X43362795Y30086088D01*
X43269814Y30260044D01*
X43005413Y30355808D01*
X42049605Y29400000D01*
X41690395Y29400000D01*
X40734587Y30355808D01*
X40470186Y30260044D01*
X40329296Y29970429D01*
X40247616Y29658892D01*
X40228282Y29337405D01*
X38597000Y29337405D01*
X38597000Y29570095D01*
X38530632Y29903747D01*
X38400447Y30218041D01*
X38211448Y30500898D01*
X38176933Y30535413D01*
X40914192Y30535413D01*
X41870000Y29579605D01*
X42825808Y30535413D01*
X42730044Y30799814D01*
X42440429Y30940704D01*
X42128892Y31022384D01*
X41807405Y31041718D01*
X41488325Y30997961D01*
X41183912Y30892795D01*
X41009956Y30799814D01*
X40914192Y30535413D01*
X38176933Y30535413D01*
X37970898Y30741448D01*
X37688041Y30930447D01*
X37373747Y31060632D01*
X37040095Y31127000D01*
X36699905Y31127000D01*
X36366253Y31060632D01*
X36051959Y30930447D01*
X35769102Y30741448D01*
X35528552Y30500898D01*
X35339553Y30218041D01*
X35209368Y29903747D01*
X35143000Y29570095D01*
X13117000Y29570095D01*
X13050632Y29903747D01*
X12920447Y30218041D01*
X12731448Y30500898D01*
X12490898Y30741448D01*
X12208041Y30930447D01*
X12099000Y30975613D01*
X12099000Y31783495D01*
X12108099Y31792594D01*
X12275210Y32042694D01*
X12390319Y32320590D01*
X12449000Y32615604D01*
X12449000Y32749471D01*
X12570000Y32628471D01*
X12570000Y32615604D01*
X12628681Y32320590D01*
X12743790Y32042694D01*
X12910901Y31792594D01*
X13123594Y31579901D01*
X13373694Y31412790D01*
X13651590Y31297681D01*
X13946604Y31239000D01*
X14247396Y31239000D01*
X14542410Y31297681D01*
X14820306Y31412790D01*
X15070406Y31579901D01*
X15144348Y31653843D01*
X15208597Y31673333D01*
X15413070Y31782626D01*
X15592291Y31929709D01*
X15629151Y31974623D01*
X17707236Y34052708D01*
X22478000Y34052708D01*
X22478000Y33727292D01*
X22541486Y33408129D01*
X22666017Y33107485D01*
X22846808Y32836912D01*
X23076912Y32606808D01*
X23347485Y32426017D01*
X23648129Y32301486D01*
X23967292Y32238000D01*
X24292708Y32238000D01*
X24611871Y32301486D01*
X24912515Y32426017D01*
X25183088Y32606808D01*
X25413192Y32836912D01*
X25593983Y33107485D01*
X25718514Y33408129D01*
X25782000Y33727292D01*
X25782000Y34052708D01*
X25718514Y34371871D01*
X25593983Y34672515D01*
X25413192Y34943088D01*
X25183088Y35173192D01*
X24912515Y35353983D01*
X24611871Y35478514D01*
X24292708Y35542000D01*
X23967292Y35542000D01*
X23648129Y35478514D01*
X23347485Y35353983D01*
X23076912Y35173192D01*
X22846808Y34943088D01*
X22666017Y34672515D01*
X22541486Y34371871D01*
X22478000Y34052708D01*
X17707236Y34052708D01*
X17817529Y34163000D01*
X18050095Y34163000D01*
X18383747Y34229368D01*
X18698041Y34359553D01*
X18980898Y34548552D01*
X19221448Y34789102D01*
X19410447Y35071959D01*
X19540632Y35386253D01*
X19607000Y35719905D01*
X19607000Y36060095D01*
X19540632Y36393747D01*
X19410447Y36708041D01*
X19221448Y36990898D01*
X18980898Y37231448D01*
X18790004Y37358999D01*
X29469996Y37358999D01*
X29279102Y37231448D01*
X29038552Y36990898D01*
X28849553Y36708041D01*
X28719368Y36393747D01*
X28653000Y36060095D01*
X28653000Y35719905D01*
X28719368Y35386253D01*
X28849553Y35071959D01*
X29038552Y34789102D01*
X29279102Y34548552D01*
X29561959Y34359553D01*
X29876253Y34229368D01*
X30209905Y34163000D01*
X30550095Y34163000D01*
X30883747Y34229368D01*
X31198041Y34359553D01*
X31480898Y34548552D01*
X31721448Y34789102D01*
X31910447Y35071959D01*
X32040632Y35386253D01*
X32107000Y35719905D01*
X32107000Y36060095D01*
X32040632Y36393747D01*
X31910447Y36708041D01*
X31721448Y36990898D01*
X31480898Y37231448D01*
X31290004Y37358999D01*
X32604473Y37358999D01*
X33748001Y36215470D01*
X33748000Y35444815D01*
X33700064Y35396879D01*
X33527481Y35138589D01*
X33408604Y34851594D01*
X33348000Y34546921D01*
X33348000Y34236279D01*
X33408604Y33931606D01*
X33527481Y33644611D01*
X33700064Y33386321D01*
X33919721Y33166664D01*
X34178011Y32994081D01*
X34465006Y32875204D01*
X34769679Y32814600D01*
X35080321Y32814600D01*
X35384994Y32875204D01*
X35671989Y32994081D01*
X35930279Y33166664D01*
X36037877Y33274262D01*
X36084463Y33187106D01*
X36163815Y33090415D01*
X36260506Y33011063D01*
X36370820Y32952098D01*
X36490518Y32915788D01*
X36615000Y32903528D01*
X37179250Y32906600D01*
X37338000Y33065350D01*
X37338000Y34264600D01*
X37592000Y34264600D01*
X37592000Y33065350D01*
X37750750Y32906600D01*
X38315000Y32903528D01*
X38439482Y32915788D01*
X38559180Y32952098D01*
X38669494Y33011063D01*
X38766185Y33090415D01*
X38845537Y33187106D01*
X38904502Y33297420D01*
X38940812Y33417118D01*
X38953072Y33541600D01*
X38950000Y34105850D01*
X38791250Y34264600D01*
X37592000Y34264600D01*
X37338000Y34264600D01*
X37318000Y34264600D01*
X37318000Y34518600D01*
X37338000Y34518600D01*
X37338000Y35717850D01*
X37592000Y35717850D01*
X37592000Y34518600D01*
X38791250Y34518600D01*
X38950000Y34677350D01*
X38953072Y35241600D01*
X38940812Y35366082D01*
X38904502Y35485780D01*
X38845537Y35596094D01*
X38766185Y35692785D01*
X38669494Y35772137D01*
X38559180Y35831102D01*
X38439482Y35867412D01*
X38315000Y35879672D01*
X37750750Y35876600D01*
X37592000Y35717850D01*
X37338000Y35717850D01*
X37179250Y35876600D01*
X36615000Y35879672D01*
X36490518Y35867412D01*
X36370820Y35831102D01*
X36260506Y35772137D01*
X36163815Y35692785D01*
X36102000Y35617463D01*
X36102000Y36645189D01*
X36107694Y36703001D01*
X36084969Y36933732D01*
X36049709Y37049968D01*
X36017667Y37155597D01*
X35908374Y37360070D01*
X35761291Y37539291D01*
X35716382Y37576147D01*
X33965152Y39327376D01*
X33928292Y39372290D01*
X33749071Y39519373D01*
X33544598Y39628666D01*
X33322733Y39695968D01*
X33149813Y39712999D01*
X33092001Y39718693D01*
X33034189Y39712999D01*
X31320745Y39712999D01*
X31335808Y39754587D01*
X30380000Y40710395D01*
X29424192Y39754587D01*
X29439255Y39712999D01*
X18820745Y39712999D01*
X18835808Y39754587D01*
X17880000Y40710395D01*
X16924192Y39754587D01*
X16939255Y39712999D01*
X16434531Y39712999D01*
X15624000Y40523529D01*
X15624000Y40536396D01*
X15566116Y40827405D01*
X16238282Y40827405D01*
X16282039Y40508325D01*
X16387205Y40203912D01*
X16480186Y40029956D01*
X16744587Y39934192D01*
X17700395Y40890000D01*
X18059605Y40890000D01*
X19015413Y39934192D01*
X19279814Y40029956D01*
X19420704Y40319571D01*
X19502384Y40631108D01*
X19514189Y40827405D01*
X28738282Y40827405D01*
X28782039Y40508325D01*
X28887205Y40203912D01*
X28980186Y40029956D01*
X29244587Y39934192D01*
X30200395Y40890000D01*
X30559605Y40890000D01*
X31515413Y39934192D01*
X31779814Y40029956D01*
X31920704Y40319571D01*
X32002384Y40631108D01*
X32021718Y40952595D01*
X32006019Y41067077D01*
X39453000Y41067077D01*
X39453000Y40332923D01*
X39596227Y39612874D01*
X39877176Y38934604D01*
X40285050Y38324176D01*
X40804176Y37805050D01*
X41414604Y37397176D01*
X42092874Y37116227D01*
X42812923Y36973000D01*
X43547077Y36973000D01*
X44267126Y37116227D01*
X44945396Y37397176D01*
X45555824Y37805050D01*
X46074950Y38324176D01*
X46482824Y38934604D01*
X46763773Y39612874D01*
X46907000Y40332923D01*
X46907000Y41067077D01*
X46763773Y41787126D01*
X46482824Y42465396D01*
X46074950Y43075824D01*
X45555824Y43594950D01*
X44945396Y44002824D01*
X44267126Y44283773D01*
X43547077Y44427000D01*
X42812923Y44427000D01*
X42092874Y44283773D01*
X41414604Y44002824D01*
X40804176Y43594950D01*
X40285050Y43075824D01*
X39877176Y42465396D01*
X39596227Y41787126D01*
X39453000Y41067077D01*
X32006019Y41067077D01*
X31977961Y41271675D01*
X31872795Y41576088D01*
X31779814Y41750044D01*
X31515413Y41845808D01*
X30559605Y40890000D01*
X30200395Y40890000D01*
X29244587Y41845808D01*
X28980186Y41750044D01*
X28839296Y41460429D01*
X28757616Y41148892D01*
X28738282Y40827405D01*
X19514189Y40827405D01*
X19521718Y40952595D01*
X19477961Y41271675D01*
X19372795Y41576088D01*
X19279814Y41750044D01*
X19015413Y41845808D01*
X18059605Y40890000D01*
X17700395Y40890000D01*
X16744587Y41845808D01*
X16480186Y41750044D01*
X16339296Y41460429D01*
X16257616Y41148892D01*
X16238282Y40827405D01*
X15566116Y40827405D01*
X15565319Y40831410D01*
X15450210Y41109306D01*
X15283099Y41359406D01*
X15070406Y41572099D01*
X14820306Y41739210D01*
X14542410Y41854319D01*
X14247396Y41913000D01*
X13946604Y41913000D01*
X13651590Y41854319D01*
X13373694Y41739210D01*
X13123594Y41572099D01*
X12910901Y41359406D01*
X12743790Y41109306D01*
X12628681Y40831410D01*
X12570000Y40536396D01*
X12570000Y40235604D01*
X12628681Y39940590D01*
X12743790Y39662694D01*
X12910901Y39412594D01*
X13123594Y39199901D01*
X13373694Y39032790D01*
X13651590Y38917681D01*
X13946604Y38859000D01*
X13959471Y38859000D01*
X15073859Y37744611D01*
X15110710Y37699708D01*
X15155613Y37662857D01*
X15155615Y37662855D01*
X15289931Y37552625D01*
X15494403Y37443332D01*
X15716269Y37376030D01*
X15947001Y37353305D01*
X16004813Y37358999D01*
X16969996Y37358999D01*
X16779102Y37231448D01*
X16538552Y36990898D01*
X16349553Y36708041D01*
X16219368Y36393747D01*
X16153000Y36060095D01*
X16153000Y35827529D01*
X14554700Y34229228D01*
X14542410Y34234319D01*
X14247396Y34293000D01*
X14234529Y34293000D01*
X12099000Y36428528D01*
X12099000Y39403495D01*
X12108099Y39412594D01*
X12275210Y39662694D01*
X12390319Y39940590D01*
X12449000Y40235604D01*
X12449000Y40536396D01*
X12390319Y40831410D01*
X12275210Y41109306D01*
X12108099Y41359406D01*
X11895406Y41572099D01*
X11645306Y41739210D01*
X11367410Y41854319D01*
X11072396Y41913000D01*
X10771604Y41913000D01*
X10476590Y41854319D01*
X10198694Y41739210D01*
X9948594Y41572099D01*
X9735901Y41359406D01*
X9568790Y41109306D01*
X9453681Y40831410D01*
X9395000Y40536396D01*
X8807000Y40536396D01*
X8807000Y41067077D01*
X8663773Y41787126D01*
X8565072Y42025413D01*
X16924192Y42025413D01*
X17880000Y41069605D01*
X18835808Y42025413D01*
X18740044Y42289814D01*
X18450429Y42430704D01*
X18138892Y42512384D01*
X17817405Y42531718D01*
X17498325Y42487961D01*
X17193912Y42382795D01*
X17019956Y42289814D01*
X16924192Y42025413D01*
X8565072Y42025413D01*
X8382824Y42465396D01*
X7990396Y43052708D01*
X22478000Y43052708D01*
X22478000Y42727292D01*
X22541486Y42408129D01*
X22666017Y42107485D01*
X22846808Y41836912D01*
X23076912Y41606808D01*
X23347485Y41426017D01*
X23648129Y41301486D01*
X23967292Y41238000D01*
X24292708Y41238000D01*
X24611871Y41301486D01*
X24912515Y41426017D01*
X25183088Y41606808D01*
X25413192Y41836912D01*
X25539144Y42025413D01*
X29424192Y42025413D01*
X30380000Y41069605D01*
X31335808Y42025413D01*
X31240044Y42289814D01*
X30950429Y42430704D01*
X30638892Y42512384D01*
X30317405Y42531718D01*
X29998325Y42487961D01*
X29693912Y42382795D01*
X29519956Y42289814D01*
X29424192Y42025413D01*
X25539144Y42025413D01*
X25593983Y42107485D01*
X25718514Y42408129D01*
X25782000Y42727292D01*
X25782000Y43052708D01*
X25718514Y43371871D01*
X25593983Y43672515D01*
X25413192Y43943088D01*
X25183088Y44173192D01*
X24912515Y44353983D01*
X24611871Y44478514D01*
X24292708Y44542000D01*
X23967292Y44542000D01*
X23648129Y44478514D01*
X23347485Y44353983D01*
X23076912Y44173192D01*
X22846808Y43943088D01*
X22666017Y43672515D01*
X22541486Y43371871D01*
X22478000Y43052708D01*
X7990396Y43052708D01*
X7974950Y43075824D01*
X7455824Y43594950D01*
X6845396Y44002824D01*
X6167126Y44283773D01*
X5447077Y44427000D01*
X4712923Y44427000D01*
X3992874Y44283773D01*
X3314604Y44002824D01*
X2704176Y43594950D01*
X2185050Y43075824D01*
X1777176Y42465396D01*
X1496227Y41787126D01*
X1353000Y41067077D01*
X710000Y41067077D01*
X710000Y41268382D01*
X780578Y42059192D01*
X981705Y42794389D01*
X1309846Y43482351D01*
X1754628Y44101331D01*
X2301988Y44631761D01*
X2934639Y45056884D01*
X3632561Y45363251D01*
X4379183Y45542499D01*
X5026030Y45590000D01*
X43355382Y45590000D01*
X44146192Y45519422D01*
G37*
G04 #@! TD.AperFunction*
M02*
