G04 #@! TF.GenerationSoftware,KiCad,Pcbnew,(5.0.0-3-g5ebb6b6)*
G04 #@! TF.CreationDate,2018-08-14T19:07:29+02:00*
G04 #@! TF.ProjectId,TecladoEB,5465636C61646F45422E6B696361645F,rev?*
G04 #@! TF.SameCoordinates,Original*
G04 #@! TF.FileFunction,Legend,Top*
G04 #@! TF.FilePolarity,Positive*
%FSLAX46Y46*%
G04 Gerber Fmt 4.6, Leading zero omitted, Abs format (unit mm)*
G04 Created by KiCad (PCBNEW (5.0.0-3-g5ebb6b6)) date Tuesday, 14 August 2018 at 19:07:29*
%MOMM*%
%LPD*%
G01*
G04 APERTURE LIST*
%ADD10C,0.100000*%
%ADD11C,0.200000*%
%ADD12C,0.350000*%
%ADD13C,0.254000*%
%ADD14C,0.120000*%
%ADD15C,0.010000*%
%ADD16C,0.150000*%
G04 APERTURE END LIST*
D10*
X120510961Y-124983104D02*
X120510961Y-125554533D01*
X120472866Y-125668819D01*
X120396676Y-125745009D01*
X120282390Y-125783104D01*
X120206200Y-125783104D01*
X121272866Y-125783104D02*
X120891914Y-125783104D01*
X120891914Y-124983104D01*
X121996676Y-125706914D02*
X121958580Y-125745009D01*
X121844295Y-125783104D01*
X121768104Y-125783104D01*
X121653819Y-125745009D01*
X121577628Y-125668819D01*
X121539533Y-125592628D01*
X121501438Y-125440247D01*
X121501438Y-125325961D01*
X121539533Y-125173580D01*
X121577628Y-125097390D01*
X121653819Y-125021200D01*
X121768104Y-124983104D01*
X121844295Y-124983104D01*
X121958580Y-125021200D01*
X121996676Y-125059295D01*
X122568104Y-124983104D02*
X122568104Y-125554533D01*
X122530009Y-125668819D01*
X122453819Y-125745009D01*
X122339533Y-125783104D01*
X122263342Y-125783104D01*
X123330009Y-125783104D02*
X122949057Y-125783104D01*
X122949057Y-124983104D01*
X124053819Y-125706914D02*
X124015723Y-125745009D01*
X123901438Y-125783104D01*
X123825247Y-125783104D01*
X123710961Y-125745009D01*
X123634771Y-125668819D01*
X123596676Y-125592628D01*
X123558580Y-125440247D01*
X123558580Y-125325961D01*
X123596676Y-125173580D01*
X123634771Y-125097390D01*
X123710961Y-125021200D01*
X123825247Y-124983104D01*
X123901438Y-124983104D01*
X124015723Y-125021200D01*
X124053819Y-125059295D01*
X124625247Y-124983104D02*
X124625247Y-125554533D01*
X124587152Y-125668819D01*
X124510961Y-125745009D01*
X124396676Y-125783104D01*
X124320485Y-125783104D01*
X125387152Y-125783104D02*
X125006200Y-125783104D01*
X125006200Y-124983104D01*
X126110961Y-125706914D02*
X126072866Y-125745009D01*
X125958580Y-125783104D01*
X125882390Y-125783104D01*
X125768104Y-125745009D01*
X125691914Y-125668819D01*
X125653819Y-125592628D01*
X125615723Y-125440247D01*
X125615723Y-125325961D01*
X125653819Y-125173580D01*
X125691914Y-125097390D01*
X125768104Y-125021200D01*
X125882390Y-124983104D01*
X125958580Y-124983104D01*
X126072866Y-125021200D01*
X126110961Y-125059295D01*
X126682390Y-124983104D02*
X126682390Y-125554533D01*
X126644295Y-125668819D01*
X126568104Y-125745009D01*
X126453819Y-125783104D01*
X126377628Y-125783104D01*
X127444295Y-125783104D02*
X127063342Y-125783104D01*
X127063342Y-124983104D01*
X128168104Y-125706914D02*
X128130009Y-125745009D01*
X128015723Y-125783104D01*
X127939533Y-125783104D01*
X127825247Y-125745009D01*
X127749057Y-125668819D01*
X127710961Y-125592628D01*
X127672866Y-125440247D01*
X127672866Y-125325961D01*
X127710961Y-125173580D01*
X127749057Y-125097390D01*
X127825247Y-125021200D01*
X127939533Y-124983104D01*
X128015723Y-124983104D01*
X128130009Y-125021200D01*
X128168104Y-125059295D01*
D11*
X118663333Y-115466000D02*
X119130000Y-115466000D01*
X119330000Y-116199333D02*
X118663333Y-116199333D01*
X118663333Y-114799333D01*
X119330000Y-114799333D01*
X119863333Y-116132666D02*
X119996666Y-116199333D01*
X120263333Y-116199333D01*
X120396666Y-116132666D01*
X120463333Y-115999333D01*
X120463333Y-115932666D01*
X120396666Y-115799333D01*
X120263333Y-115732666D01*
X120063333Y-115732666D01*
X119930000Y-115666000D01*
X119863333Y-115532666D01*
X119863333Y-115466000D01*
X119930000Y-115332666D01*
X120063333Y-115266000D01*
X120263333Y-115266000D01*
X120396666Y-115332666D01*
X121663333Y-116132666D02*
X121530000Y-116199333D01*
X121263333Y-116199333D01*
X121130000Y-116132666D01*
X121063333Y-116066000D01*
X120996666Y-115932666D01*
X120996666Y-115532666D01*
X121063333Y-115399333D01*
X121130000Y-115332666D01*
X121263333Y-115266000D01*
X121530000Y-115266000D01*
X121663333Y-115332666D01*
X122463333Y-116199333D02*
X122330000Y-116132666D01*
X122263333Y-116066000D01*
X122196666Y-115932666D01*
X122196666Y-115532666D01*
X122263333Y-115399333D01*
X122330000Y-115332666D01*
X122463333Y-115266000D01*
X122663333Y-115266000D01*
X122796666Y-115332666D01*
X122863333Y-115399333D01*
X122930000Y-115532666D01*
X122930000Y-115932666D01*
X122863333Y-116066000D01*
X122796666Y-116132666D01*
X122663333Y-116199333D01*
X122463333Y-116199333D01*
X123530000Y-116199333D02*
X123530000Y-115266000D01*
X123530000Y-115532666D02*
X123596666Y-115399333D01*
X123663333Y-115332666D01*
X123796666Y-115266000D01*
X123930000Y-115266000D01*
X124396666Y-115266000D02*
X124396666Y-116199333D01*
X124396666Y-115399333D02*
X124463333Y-115332666D01*
X124596666Y-115266000D01*
X124796666Y-115266000D01*
X124930000Y-115332666D01*
X124996666Y-115466000D01*
X124996666Y-116199333D01*
X126263333Y-116199333D02*
X126263333Y-115466000D01*
X126196666Y-115332666D01*
X126063333Y-115266000D01*
X125796666Y-115266000D01*
X125663333Y-115332666D01*
X126263333Y-116132666D02*
X126130000Y-116199333D01*
X125796666Y-116199333D01*
X125663333Y-116132666D01*
X125596666Y-115999333D01*
X125596666Y-115866000D01*
X125663333Y-115732666D01*
X125796666Y-115666000D01*
X126130000Y-115666000D01*
X126263333Y-115599333D01*
X126930000Y-116199333D02*
X126930000Y-114799333D01*
X126930000Y-115332666D02*
X127063333Y-115266000D01*
X127330000Y-115266000D01*
X127463333Y-115332666D01*
X127530000Y-115399333D01*
X127596666Y-115532666D01*
X127596666Y-115932666D01*
X127530000Y-116066000D01*
X127463333Y-116132666D01*
X127330000Y-116199333D01*
X127063333Y-116199333D01*
X126930000Y-116132666D01*
X128396666Y-116199333D02*
X128263333Y-116132666D01*
X128196666Y-116066000D01*
X128130000Y-115932666D01*
X128130000Y-115532666D01*
X128196666Y-115399333D01*
X128263333Y-115332666D01*
X128396666Y-115266000D01*
X128596666Y-115266000D01*
X128730000Y-115332666D01*
X128796666Y-115399333D01*
X128863333Y-115532666D01*
X128863333Y-115932666D01*
X128796666Y-116066000D01*
X128730000Y-116132666D01*
X128596666Y-116199333D01*
X128396666Y-116199333D01*
X129263333Y-115266000D02*
X129796666Y-115266000D01*
X129463333Y-114799333D02*
X129463333Y-115999333D01*
X129530000Y-116132666D01*
X129663333Y-116199333D01*
X129796666Y-116199333D01*
X118872857Y-131348857D02*
X118872857Y-130148857D01*
X119558571Y-131348857D02*
X119044285Y-130663142D01*
X119558571Y-130148857D02*
X118872857Y-130834571D01*
X120530000Y-131291714D02*
X120415714Y-131348857D01*
X120187142Y-131348857D01*
X120072857Y-131291714D01*
X120015714Y-131177428D01*
X120015714Y-130720285D01*
X120072857Y-130606000D01*
X120187142Y-130548857D01*
X120415714Y-130548857D01*
X120530000Y-130606000D01*
X120587142Y-130720285D01*
X120587142Y-130834571D01*
X120015714Y-130948857D01*
X120987142Y-130548857D02*
X121272857Y-131348857D01*
X121558571Y-130548857D02*
X121272857Y-131348857D01*
X121158571Y-131634571D01*
X121101428Y-131691714D01*
X120987142Y-131748857D01*
X122015714Y-130548857D02*
X122015714Y-131748857D01*
X122015714Y-130606000D02*
X122130000Y-130548857D01*
X122358571Y-130548857D01*
X122472857Y-130606000D01*
X122530000Y-130663142D01*
X122587142Y-130777428D01*
X122587142Y-131120285D01*
X122530000Y-131234571D01*
X122472857Y-131291714D01*
X122358571Y-131348857D01*
X122130000Y-131348857D01*
X122015714Y-131291714D01*
X123615714Y-131348857D02*
X123615714Y-130720285D01*
X123558571Y-130606000D01*
X123444285Y-130548857D01*
X123215714Y-130548857D01*
X123101428Y-130606000D01*
X123615714Y-131291714D02*
X123501428Y-131348857D01*
X123215714Y-131348857D01*
X123101428Y-131291714D01*
X123044285Y-131177428D01*
X123044285Y-131063142D01*
X123101428Y-130948857D01*
X123215714Y-130891714D01*
X123501428Y-130891714D01*
X123615714Y-130834571D01*
X124701428Y-131348857D02*
X124701428Y-130148857D01*
X124701428Y-131291714D02*
X124587142Y-131348857D01*
X124358571Y-131348857D01*
X124244285Y-131291714D01*
X124187142Y-131234571D01*
X124130000Y-131120285D01*
X124130000Y-130777428D01*
X124187142Y-130663142D01*
X124244285Y-130606000D01*
X124358571Y-130548857D01*
X124587142Y-130548857D01*
X124701428Y-130606000D01*
X126072857Y-130548857D02*
X126358571Y-131348857D01*
X126644285Y-130548857D01*
X127730000Y-131348857D02*
X127044285Y-131348857D01*
X127387142Y-131348857D02*
X127387142Y-130148857D01*
X127272857Y-130320285D01*
X127158571Y-130434571D01*
X127044285Y-130491714D01*
X128244285Y-131234571D02*
X128301428Y-131291714D01*
X128244285Y-131348857D01*
X128187142Y-131291714D01*
X128244285Y-131234571D01*
X128244285Y-131348857D01*
X128758571Y-130263142D02*
X128815714Y-130206000D01*
X128930000Y-130148857D01*
X129215714Y-130148857D01*
X129330000Y-130206000D01*
X129387142Y-130263142D01*
X129444285Y-130377428D01*
X129444285Y-130491714D01*
X129387142Y-130663142D01*
X128701428Y-131348857D01*
X129444285Y-131348857D01*
X137084000Y-108276200D02*
X135306000Y-108276200D01*
X137084000Y-104466200D02*
X137084000Y-108276200D01*
X138100000Y-104466200D02*
X137084000Y-104466200D01*
X136195000Y-101926200D02*
X138100000Y-104466200D01*
X134290000Y-104466200D02*
X136195000Y-101926200D01*
X135306000Y-104466200D02*
X134290000Y-104466200D01*
X135306000Y-108276200D02*
X135306000Y-104466200D01*
D12*
G04 #@! TO.C,REF\002A\002A*
X108680000Y-105600000D02*
G75*
G03X108680000Y-105600000I-3600000J0D01*
G01*
X146780000Y-105600000D02*
G75*
G03X146780000Y-105600000I-3600000J0D01*
G01*
X146780000Y-141220000D02*
G75*
G03X146780000Y-141220000I-3600000J0D01*
G01*
X108680000Y-141220000D02*
G75*
G03X108680000Y-141220000I-3600000J0D01*
G01*
D13*
G04 #@! TO.C,S1*
X132067000Y-110294000D02*
G75*
G03X132067000Y-110294000I-82000J0D01*
G01*
D11*
X130130000Y-101910000D02*
X130130000Y-104061000D01*
X130130000Y-113910000D02*
X130130000Y-111759000D01*
X118130000Y-113910000D02*
X118130000Y-111759000D01*
X118130000Y-101910000D02*
X118130000Y-104061000D01*
X130130000Y-113910000D02*
X118130000Y-113910000D01*
X118130000Y-101910000D02*
X130130000Y-101910000D01*
D13*
G04 #@! TO.C,S2*
X111356000Y-115295000D02*
G75*
G03X111356000Y-115295000I-82000J0D01*
G01*
D11*
X102890000Y-117150000D02*
X105041000Y-117150000D01*
X114890000Y-117150000D02*
X112739000Y-117150000D01*
X114890000Y-129150000D02*
X112739000Y-129150000D01*
X102890000Y-129150000D02*
X105041000Y-129150000D01*
X114890000Y-117150000D02*
X114890000Y-129150000D01*
X102890000Y-129150000D02*
X102890000Y-117150000D01*
D13*
G04 #@! TO.C,S3*
X116357000Y-136006000D02*
G75*
G03X116357000Y-136006000I-82000J0D01*
G01*
D11*
X118130000Y-144390000D02*
X118130000Y-142239000D01*
X118130000Y-132390000D02*
X118130000Y-134541000D01*
X130130000Y-132390000D02*
X130130000Y-134541000D01*
X130130000Y-144390000D02*
X130130000Y-142239000D01*
X118130000Y-132390000D02*
X130130000Y-132390000D01*
X130130000Y-144390000D02*
X118130000Y-144390000D01*
D13*
G04 #@! TO.C,S4*
X137068000Y-131005000D02*
G75*
G03X137068000Y-131005000I-82000J0D01*
G01*
D11*
X145370000Y-129150000D02*
X143219000Y-129150000D01*
X133370000Y-129150000D02*
X135521000Y-129150000D01*
X133370000Y-117150000D02*
X135521000Y-117150000D01*
X145370000Y-117150000D02*
X143219000Y-117150000D01*
X133370000Y-129150000D02*
X133370000Y-117150000D01*
X145370000Y-117150000D02*
X145370000Y-129150000D01*
D13*
G04 #@! TO.C,S5*
X132067000Y-125534000D02*
G75*
G03X132067000Y-125534000I-82000J0D01*
G01*
D11*
X130130000Y-117150000D02*
X130130000Y-119301000D01*
X130130000Y-129150000D02*
X130130000Y-126999000D01*
X118130000Y-129150000D02*
X118130000Y-126999000D01*
X118130000Y-117150000D02*
X118130000Y-119301000D01*
X130130000Y-129150000D02*
X118130000Y-129150000D01*
X118130000Y-117150000D02*
X130130000Y-117150000D01*
D14*
G04 #@! TO.C,R1*
X113057000Y-113049000D02*
X112727000Y-113049000D01*
X112727000Y-113049000D02*
X112727000Y-106509000D01*
X112727000Y-106509000D02*
X113057000Y-106509000D01*
X115137000Y-113049000D02*
X115467000Y-113049000D01*
X115467000Y-113049000D02*
X115467000Y-106509000D01*
X115467000Y-106509000D02*
X115137000Y-106509000D01*
G04 #@! TO.C,R2*
X110009000Y-113049000D02*
X109679000Y-113049000D01*
X109679000Y-113049000D02*
X109679000Y-106509000D01*
X109679000Y-106509000D02*
X110009000Y-106509000D01*
X112089000Y-113049000D02*
X112419000Y-113049000D01*
X112419000Y-113049000D02*
X112419000Y-106509000D01*
X112419000Y-106509000D02*
X112089000Y-106509000D01*
G04 #@! TO.C,R3*
X112727000Y-139791000D02*
X113057000Y-139791000D01*
X112727000Y-133251000D02*
X112727000Y-139791000D01*
X113057000Y-133251000D02*
X112727000Y-133251000D01*
X115467000Y-139791000D02*
X115137000Y-139791000D01*
X115467000Y-133251000D02*
X115467000Y-139791000D01*
X115137000Y-133251000D02*
X115467000Y-133251000D01*
G04 #@! TO.C,R4*
X136171000Y-139791000D02*
X135841000Y-139791000D01*
X135841000Y-139791000D02*
X135841000Y-133251000D01*
X135841000Y-133251000D02*
X136171000Y-133251000D01*
X138251000Y-139791000D02*
X138581000Y-139791000D01*
X138581000Y-139791000D02*
X138581000Y-133251000D01*
X138581000Y-133251000D02*
X138251000Y-133251000D01*
G04 #@! TO.C,R5*
X132793000Y-139791000D02*
X133123000Y-139791000D01*
X132793000Y-133251000D02*
X132793000Y-139791000D01*
X133123000Y-133251000D02*
X132793000Y-133251000D01*
X135533000Y-139791000D02*
X135203000Y-139791000D01*
X135533000Y-133251000D02*
X135533000Y-139791000D01*
X135203000Y-133251000D02*
X135533000Y-133251000D01*
D15*
G04 #@! TO.C,G\002A\002A\002A*
G36*
X109607570Y-131611285D02*
X110173146Y-131614739D01*
X110604061Y-131621590D01*
X110917645Y-131632735D01*
X111131232Y-131649072D01*
X111262154Y-131671495D01*
X111327741Y-131700903D01*
X111345333Y-131737334D01*
X111326930Y-131774449D01*
X111260167Y-131803703D01*
X111127712Y-131825992D01*
X110912232Y-131842212D01*
X110596397Y-131853259D01*
X110162873Y-131860031D01*
X109594328Y-131863424D01*
X108890000Y-131864334D01*
X108172430Y-131863382D01*
X107606854Y-131859928D01*
X107175939Y-131853077D01*
X106862354Y-131841932D01*
X106648767Y-131825595D01*
X106517846Y-131803172D01*
X106452259Y-131773764D01*
X106434667Y-131737334D01*
X106453069Y-131700218D01*
X106519832Y-131670964D01*
X106652288Y-131648675D01*
X106867767Y-131632455D01*
X107183603Y-131621408D01*
X107617127Y-131614636D01*
X108185671Y-131611243D01*
X108890000Y-131610334D01*
X109607570Y-131611285D01*
X109607570Y-131611285D01*
G37*
X109607570Y-131611285D02*
X110173146Y-131614739D01*
X110604061Y-131621590D01*
X110917645Y-131632735D01*
X111131232Y-131649072D01*
X111262154Y-131671495D01*
X111327741Y-131700903D01*
X111345333Y-131737334D01*
X111326930Y-131774449D01*
X111260167Y-131803703D01*
X111127712Y-131825992D01*
X110912232Y-131842212D01*
X110596397Y-131853259D01*
X110162873Y-131860031D01*
X109594328Y-131863424D01*
X108890000Y-131864334D01*
X108172430Y-131863382D01*
X107606854Y-131859928D01*
X107175939Y-131853077D01*
X106862354Y-131841932D01*
X106648767Y-131825595D01*
X106517846Y-131803172D01*
X106452259Y-131773764D01*
X106434667Y-131737334D01*
X106453069Y-131700218D01*
X106519832Y-131670964D01*
X106652288Y-131648675D01*
X106867767Y-131632455D01*
X107183603Y-131621408D01*
X107617127Y-131614636D01*
X108185671Y-131611243D01*
X108890000Y-131610334D01*
X109607570Y-131611285D01*
G36*
X111609893Y-133497530D02*
X111646145Y-133587817D01*
X111668647Y-133768909D01*
X111680287Y-134065853D01*
X111683957Y-134503697D01*
X111684000Y-134573667D01*
X111681169Y-135032073D01*
X111670752Y-135346259D01*
X111649857Y-135541271D01*
X111615594Y-135642158D01*
X111565073Y-135673966D01*
X111557000Y-135674334D01*
X111504107Y-135649804D01*
X111467855Y-135559517D01*
X111445353Y-135378425D01*
X111433712Y-135081481D01*
X111430042Y-134643636D01*
X111430000Y-134573667D01*
X111432830Y-134115260D01*
X111443248Y-133801075D01*
X111464143Y-133606062D01*
X111498406Y-133505176D01*
X111548926Y-133473368D01*
X111557000Y-133473000D01*
X111609893Y-133497530D01*
X111609893Y-133497530D01*
G37*
X111609893Y-133497530D02*
X111646145Y-133587817D01*
X111668647Y-133768909D01*
X111680287Y-134065853D01*
X111683957Y-134503697D01*
X111684000Y-134573667D01*
X111681169Y-135032073D01*
X111670752Y-135346259D01*
X111649857Y-135541271D01*
X111615594Y-135642158D01*
X111565073Y-135673966D01*
X111557000Y-135674334D01*
X111504107Y-135649804D01*
X111467855Y-135559517D01*
X111445353Y-135378425D01*
X111433712Y-135081481D01*
X111430042Y-134643636D01*
X111430000Y-134573667D01*
X111432830Y-134115260D01*
X111443248Y-133801075D01*
X111464143Y-133606062D01*
X111498406Y-133505176D01*
X111548926Y-133473368D01*
X111557000Y-133473000D01*
X111609893Y-133497530D01*
G36*
X106360560Y-133497530D02*
X106396812Y-133587817D01*
X106419313Y-133768909D01*
X106430954Y-134065853D01*
X106434624Y-134503697D01*
X106434667Y-134573667D01*
X106431836Y-135032073D01*
X106421418Y-135346259D01*
X106400523Y-135541271D01*
X106366260Y-135642158D01*
X106315740Y-135673966D01*
X106307667Y-135674334D01*
X106254773Y-135649804D01*
X106218521Y-135559517D01*
X106196020Y-135378425D01*
X106184379Y-135081481D01*
X106180709Y-134643636D01*
X106180667Y-134573667D01*
X106183497Y-134115260D01*
X106193915Y-133801075D01*
X106214810Y-133606062D01*
X106249073Y-133505176D01*
X106299593Y-133473368D01*
X106307667Y-133473000D01*
X106360560Y-133497530D01*
X106360560Y-133497530D01*
G37*
X106360560Y-133497530D02*
X106396812Y-133587817D01*
X106419313Y-133768909D01*
X106430954Y-134065853D01*
X106434624Y-134503697D01*
X106434667Y-134573667D01*
X106431836Y-135032073D01*
X106421418Y-135346259D01*
X106400523Y-135541271D01*
X106366260Y-135642158D01*
X106315740Y-135673966D01*
X106307667Y-135674334D01*
X106254773Y-135649804D01*
X106218521Y-135559517D01*
X106196020Y-135378425D01*
X106184379Y-135081481D01*
X106180709Y-134643636D01*
X106180667Y-134573667D01*
X106183497Y-134115260D01*
X106193915Y-133801075D01*
X106214810Y-133606062D01*
X106249073Y-133505176D01*
X106299593Y-133473368D01*
X106307667Y-133473000D01*
X106360560Y-133497530D01*
G36*
X110048910Y-132136147D02*
X110566372Y-132239700D01*
X110889644Y-132362550D01*
X111064471Y-132480040D01*
X111108906Y-132617655D01*
X111041005Y-132800882D01*
X111006257Y-132860653D01*
X110730011Y-133173040D01*
X110294083Y-133471293D01*
X109707872Y-133750481D01*
X108980781Y-134005670D01*
X108636000Y-134104413D01*
X107916333Y-134298563D01*
X108339667Y-134355527D01*
X108903354Y-134451916D01*
X109474294Y-134585105D01*
X109986270Y-134738300D01*
X110261158Y-134842834D01*
X110505760Y-134980040D01*
X110767913Y-135176592D01*
X111013368Y-135399509D01*
X111207877Y-135615807D01*
X111317193Y-135792505D01*
X111326781Y-135869066D01*
X111241407Y-135953331D01*
X111042454Y-136084298D01*
X110769501Y-136236439D01*
X110709833Y-136267000D01*
X110412067Y-136409720D01*
X110167476Y-136499131D01*
X109915284Y-136548921D01*
X109594715Y-136572781D01*
X109315863Y-136580979D01*
X108938308Y-136581718D01*
X108604114Y-136568893D01*
X108363970Y-136545023D01*
X108296785Y-136530316D01*
X107801888Y-136320591D01*
X107341269Y-136033545D01*
X106963856Y-135703672D01*
X106766457Y-135451542D01*
X106614332Y-135060977D01*
X106573025Y-134597861D01*
X106642555Y-134117690D01*
X106765901Y-133782936D01*
X107012783Y-133417844D01*
X107389542Y-133043372D01*
X107861373Y-132689566D01*
X108370259Y-132397843D01*
X108879243Y-132219401D01*
X109461863Y-132130508D01*
X110048910Y-132136147D01*
X110048910Y-132136147D01*
G37*
X110048910Y-132136147D02*
X110566372Y-132239700D01*
X110889644Y-132362550D01*
X111064471Y-132480040D01*
X111108906Y-132617655D01*
X111041005Y-132800882D01*
X111006257Y-132860653D01*
X110730011Y-133173040D01*
X110294083Y-133471293D01*
X109707872Y-133750481D01*
X108980781Y-134005670D01*
X108636000Y-134104413D01*
X107916333Y-134298563D01*
X108339667Y-134355527D01*
X108903354Y-134451916D01*
X109474294Y-134585105D01*
X109986270Y-134738300D01*
X110261158Y-134842834D01*
X110505760Y-134980040D01*
X110767913Y-135176592D01*
X111013368Y-135399509D01*
X111207877Y-135615807D01*
X111317193Y-135792505D01*
X111326781Y-135869066D01*
X111241407Y-135953331D01*
X111042454Y-136084298D01*
X110769501Y-136236439D01*
X110709833Y-136267000D01*
X110412067Y-136409720D01*
X110167476Y-136499131D01*
X109915284Y-136548921D01*
X109594715Y-136572781D01*
X109315863Y-136580979D01*
X108938308Y-136581718D01*
X108604114Y-136568893D01*
X108363970Y-136545023D01*
X108296785Y-136530316D01*
X107801888Y-136320591D01*
X107341269Y-136033545D01*
X106963856Y-135703672D01*
X106766457Y-135451542D01*
X106614332Y-135060977D01*
X106573025Y-134597861D01*
X106642555Y-134117690D01*
X106765901Y-133782936D01*
X107012783Y-133417844D01*
X107389542Y-133043372D01*
X107861373Y-132689566D01*
X108370259Y-132397843D01*
X108879243Y-132219401D01*
X109461863Y-132130508D01*
X110048910Y-132136147D01*
G36*
X109576982Y-136776089D02*
X109609667Y-136859667D01*
X109537353Y-136967845D01*
X109411634Y-137014709D01*
X109265673Y-137007466D01*
X109240232Y-136906518D01*
X109243460Y-136887709D01*
X109324053Y-136773290D01*
X109459472Y-136734226D01*
X109576982Y-136776089D01*
X109576982Y-136776089D01*
G37*
X109576982Y-136776089D02*
X109609667Y-136859667D01*
X109537353Y-136967845D01*
X109411634Y-137014709D01*
X109265673Y-137007466D01*
X109240232Y-136906518D01*
X109243460Y-136887709D01*
X109324053Y-136773290D01*
X109459472Y-136734226D01*
X109576982Y-136776089D01*
G36*
X108777504Y-136750202D02*
X108805333Y-136859667D01*
X108745465Y-137001171D01*
X108636000Y-137029000D01*
X108494496Y-136969132D01*
X108466667Y-136859667D01*
X108526535Y-136718163D01*
X108636000Y-136690334D01*
X108777504Y-136750202D01*
X108777504Y-136750202D01*
G37*
X108777504Y-136750202D02*
X108805333Y-136859667D01*
X108745465Y-137001171D01*
X108636000Y-137029000D01*
X108494496Y-136969132D01*
X108466667Y-136859667D01*
X108526535Y-136718163D01*
X108636000Y-136690334D01*
X108777504Y-136750202D01*
G36*
X109656675Y-137199265D02*
X110228882Y-137202642D01*
X110666144Y-137209339D01*
X110985652Y-137220229D01*
X111204597Y-137236187D01*
X111340169Y-137258087D01*
X111409559Y-137286804D01*
X111429958Y-137323210D01*
X111430000Y-137325334D01*
X111411682Y-137362164D01*
X111345268Y-137391260D01*
X111213568Y-137413493D01*
X110999391Y-137429740D01*
X110685545Y-137440872D01*
X110254841Y-137447766D01*
X109690088Y-137451294D01*
X108974094Y-137452331D01*
X108932333Y-137452334D01*
X108207991Y-137451402D01*
X107635784Y-137448025D01*
X107198522Y-137441328D01*
X106879014Y-137430438D01*
X106660069Y-137414480D01*
X106524497Y-137392580D01*
X106455107Y-137363863D01*
X106434709Y-137327457D01*
X106434667Y-137325334D01*
X106452984Y-137288503D01*
X106519398Y-137259407D01*
X106651098Y-137237174D01*
X106865276Y-137220927D01*
X107179121Y-137209795D01*
X107609825Y-137202901D01*
X108174579Y-137199373D01*
X108890572Y-137198336D01*
X108932333Y-137198334D01*
X109656675Y-137199265D01*
X109656675Y-137199265D01*
G37*
X109656675Y-137199265D02*
X110228882Y-137202642D01*
X110666144Y-137209339D01*
X110985652Y-137220229D01*
X111204597Y-137236187D01*
X111340169Y-137258087D01*
X111409559Y-137286804D01*
X111429958Y-137323210D01*
X111430000Y-137325334D01*
X111411682Y-137362164D01*
X111345268Y-137391260D01*
X111213568Y-137413493D01*
X110999391Y-137429740D01*
X110685545Y-137440872D01*
X110254841Y-137447766D01*
X109690088Y-137451294D01*
X108974094Y-137452331D01*
X108932333Y-137452334D01*
X108207991Y-137451402D01*
X107635784Y-137448025D01*
X107198522Y-137441328D01*
X106879014Y-137430438D01*
X106660069Y-137414480D01*
X106524497Y-137392580D01*
X106455107Y-137363863D01*
X106434709Y-137327457D01*
X106434667Y-137325334D01*
X106452984Y-137288503D01*
X106519398Y-137259407D01*
X106651098Y-137237174D01*
X106865276Y-137220927D01*
X107179121Y-137209795D01*
X107609825Y-137202901D01*
X108174579Y-137199373D01*
X108890572Y-137198336D01*
X108932333Y-137198334D01*
X109656675Y-137199265D01*
G04 #@! TO.C,S1*
D13*
X123162380Y-108383847D02*
X123343809Y-108444323D01*
X123646190Y-108444323D01*
X123767142Y-108383847D01*
X123827619Y-108323371D01*
X123888095Y-108202419D01*
X123888095Y-108081466D01*
X123827619Y-107960514D01*
X123767142Y-107900038D01*
X123646190Y-107839561D01*
X123404285Y-107779085D01*
X123283333Y-107718609D01*
X123222857Y-107658133D01*
X123162380Y-107537180D01*
X123162380Y-107416228D01*
X123222857Y-107295276D01*
X123283333Y-107234800D01*
X123404285Y-107174323D01*
X123706666Y-107174323D01*
X123888095Y-107234800D01*
X125097619Y-108444323D02*
X124371904Y-108444323D01*
X124734761Y-108444323D02*
X124734761Y-107174323D01*
X124613809Y-107355752D01*
X124492857Y-107476704D01*
X124371904Y-107537180D01*
G04 #@! TO.C,S2*
X107896980Y-123674647D02*
X108078409Y-123735123D01*
X108380790Y-123735123D01*
X108501742Y-123674647D01*
X108562219Y-123614171D01*
X108622695Y-123493219D01*
X108622695Y-123372266D01*
X108562219Y-123251314D01*
X108501742Y-123190838D01*
X108380790Y-123130361D01*
X108138885Y-123069885D01*
X108017933Y-123009409D01*
X107957457Y-122948933D01*
X107896980Y-122827980D01*
X107896980Y-122707028D01*
X107957457Y-122586076D01*
X108017933Y-122525600D01*
X108138885Y-122465123D01*
X108441266Y-122465123D01*
X108622695Y-122525600D01*
X109106504Y-122586076D02*
X109166980Y-122525600D01*
X109287933Y-122465123D01*
X109590314Y-122465123D01*
X109711266Y-122525600D01*
X109771742Y-122586076D01*
X109832219Y-122707028D01*
X109832219Y-122827980D01*
X109771742Y-123009409D01*
X109046028Y-123735123D01*
X109832219Y-123735123D01*
G04 #@! TO.C,S3*
X123111580Y-138889247D02*
X123293009Y-138949723D01*
X123595390Y-138949723D01*
X123716342Y-138889247D01*
X123776819Y-138828771D01*
X123837295Y-138707819D01*
X123837295Y-138586866D01*
X123776819Y-138465914D01*
X123716342Y-138405438D01*
X123595390Y-138344961D01*
X123353485Y-138284485D01*
X123232533Y-138224009D01*
X123172057Y-138163533D01*
X123111580Y-138042580D01*
X123111580Y-137921628D01*
X123172057Y-137800676D01*
X123232533Y-137740200D01*
X123353485Y-137679723D01*
X123655866Y-137679723D01*
X123837295Y-137740200D01*
X124260628Y-137679723D02*
X125046819Y-137679723D01*
X124623485Y-138163533D01*
X124804914Y-138163533D01*
X124925866Y-138224009D01*
X124986342Y-138284485D01*
X125046819Y-138405438D01*
X125046819Y-138707819D01*
X124986342Y-138828771D01*
X124925866Y-138889247D01*
X124804914Y-138949723D01*
X124442057Y-138949723D01*
X124321104Y-138889247D01*
X124260628Y-138828771D01*
G04 #@! TO.C,S4*
X138351580Y-123674647D02*
X138533009Y-123735123D01*
X138835390Y-123735123D01*
X138956342Y-123674647D01*
X139016819Y-123614171D01*
X139077295Y-123493219D01*
X139077295Y-123372266D01*
X139016819Y-123251314D01*
X138956342Y-123190838D01*
X138835390Y-123130361D01*
X138593485Y-123069885D01*
X138472533Y-123009409D01*
X138412057Y-122948933D01*
X138351580Y-122827980D01*
X138351580Y-122707028D01*
X138412057Y-122586076D01*
X138472533Y-122525600D01*
X138593485Y-122465123D01*
X138895866Y-122465123D01*
X139077295Y-122525600D01*
X140165866Y-122888457D02*
X140165866Y-123735123D01*
X139863485Y-122404647D02*
X139561104Y-123311790D01*
X140347295Y-123311790D01*
G04 #@! TO.C,S5*
X123136980Y-123700047D02*
X123318409Y-123760523D01*
X123620790Y-123760523D01*
X123741742Y-123700047D01*
X123802219Y-123639571D01*
X123862695Y-123518619D01*
X123862695Y-123397666D01*
X123802219Y-123276714D01*
X123741742Y-123216238D01*
X123620790Y-123155761D01*
X123378885Y-123095285D01*
X123257933Y-123034809D01*
X123197457Y-122974333D01*
X123136980Y-122853380D01*
X123136980Y-122732428D01*
X123197457Y-122611476D01*
X123257933Y-122551000D01*
X123378885Y-122490523D01*
X123681266Y-122490523D01*
X123862695Y-122551000D01*
X125011742Y-122490523D02*
X124406980Y-122490523D01*
X124346504Y-123095285D01*
X124406980Y-123034809D01*
X124527933Y-122974333D01*
X124830314Y-122974333D01*
X124951266Y-123034809D01*
X125011742Y-123095285D01*
X125072219Y-123216238D01*
X125072219Y-123518619D01*
X125011742Y-123639571D01*
X124951266Y-123700047D01*
X124830314Y-123760523D01*
X124527933Y-123760523D01*
X124406980Y-123700047D01*
X124346504Y-123639571D01*
G04 #@! TO.C,R1*
D16*
X114549380Y-103921666D02*
X114073190Y-104255000D01*
X114549380Y-104493095D02*
X113549380Y-104493095D01*
X113549380Y-104112142D01*
X113597000Y-104016904D01*
X113644619Y-103969285D01*
X113739857Y-103921666D01*
X113882714Y-103921666D01*
X113977952Y-103969285D01*
X114025571Y-104016904D01*
X114073190Y-104112142D01*
X114073190Y-104493095D01*
X114549380Y-102969285D02*
X114549380Y-103540714D01*
X114549380Y-103255000D02*
X113549380Y-103255000D01*
X113692238Y-103350238D01*
X113787476Y-103445476D01*
X113835095Y-103540714D01*
X114549380Y-110319238D02*
X114549380Y-110890666D01*
X114549380Y-110604952D02*
X113549380Y-110604952D01*
X113692238Y-110700190D01*
X113787476Y-110795428D01*
X113835095Y-110890666D01*
X113549380Y-109700190D02*
X113549380Y-109604952D01*
X113597000Y-109509714D01*
X113644619Y-109462095D01*
X113739857Y-109414476D01*
X113930333Y-109366857D01*
X114168428Y-109366857D01*
X114358904Y-109414476D01*
X114454142Y-109462095D01*
X114501761Y-109509714D01*
X114549380Y-109604952D01*
X114549380Y-109700190D01*
X114501761Y-109795428D01*
X114454142Y-109843047D01*
X114358904Y-109890666D01*
X114168428Y-109938285D01*
X113930333Y-109938285D01*
X113739857Y-109890666D01*
X113644619Y-109843047D01*
X113597000Y-109795428D01*
X113549380Y-109700190D01*
X114549380Y-108938285D02*
X113549380Y-108938285D01*
X114168428Y-108843047D02*
X114549380Y-108557333D01*
X113882714Y-108557333D02*
X114263666Y-108938285D01*
G04 #@! TO.C,R2*
X111501380Y-103921666D02*
X111025190Y-104255000D01*
X111501380Y-104493095D02*
X110501380Y-104493095D01*
X110501380Y-104112142D01*
X110549000Y-104016904D01*
X110596619Y-103969285D01*
X110691857Y-103921666D01*
X110834714Y-103921666D01*
X110929952Y-103969285D01*
X110977571Y-104016904D01*
X111025190Y-104112142D01*
X111025190Y-104493095D01*
X110596619Y-103540714D02*
X110549000Y-103493095D01*
X110501380Y-103397857D01*
X110501380Y-103159761D01*
X110549000Y-103064523D01*
X110596619Y-103016904D01*
X110691857Y-102969285D01*
X110787095Y-102969285D01*
X110929952Y-103016904D01*
X111501380Y-103588333D01*
X111501380Y-102969285D01*
X111501380Y-110319238D02*
X111501380Y-110890666D01*
X111501380Y-110604952D02*
X110501380Y-110604952D01*
X110644238Y-110700190D01*
X110739476Y-110795428D01*
X110787095Y-110890666D01*
X110501380Y-109700190D02*
X110501380Y-109604952D01*
X110549000Y-109509714D01*
X110596619Y-109462095D01*
X110691857Y-109414476D01*
X110882333Y-109366857D01*
X111120428Y-109366857D01*
X111310904Y-109414476D01*
X111406142Y-109462095D01*
X111453761Y-109509714D01*
X111501380Y-109604952D01*
X111501380Y-109700190D01*
X111453761Y-109795428D01*
X111406142Y-109843047D01*
X111310904Y-109890666D01*
X111120428Y-109938285D01*
X110882333Y-109938285D01*
X110691857Y-109890666D01*
X110596619Y-109843047D01*
X110549000Y-109795428D01*
X110501380Y-109700190D01*
X111501380Y-108938285D02*
X110501380Y-108938285D01*
X111120428Y-108843047D02*
X111501380Y-108557333D01*
X110834714Y-108557333D02*
X111215666Y-108938285D01*
G04 #@! TO.C,R3*
X114549380Y-130591666D02*
X114073190Y-130925000D01*
X114549380Y-131163095D02*
X113549380Y-131163095D01*
X113549380Y-130782142D01*
X113597000Y-130686904D01*
X113644619Y-130639285D01*
X113739857Y-130591666D01*
X113882714Y-130591666D01*
X113977952Y-130639285D01*
X114025571Y-130686904D01*
X114073190Y-130782142D01*
X114073190Y-131163095D01*
X113549380Y-130258333D02*
X113549380Y-129639285D01*
X113930333Y-129972619D01*
X113930333Y-129829761D01*
X113977952Y-129734523D01*
X114025571Y-129686904D01*
X114120809Y-129639285D01*
X114358904Y-129639285D01*
X114454142Y-129686904D01*
X114501761Y-129734523D01*
X114549380Y-129829761D01*
X114549380Y-130115476D01*
X114501761Y-130210714D01*
X114454142Y-130258333D01*
X114549380Y-136989238D02*
X114549380Y-137560666D01*
X114549380Y-137274952D02*
X113549380Y-137274952D01*
X113692238Y-137370190D01*
X113787476Y-137465428D01*
X113835095Y-137560666D01*
X113549380Y-136370190D02*
X113549380Y-136274952D01*
X113597000Y-136179714D01*
X113644619Y-136132095D01*
X113739857Y-136084476D01*
X113930333Y-136036857D01*
X114168428Y-136036857D01*
X114358904Y-136084476D01*
X114454142Y-136132095D01*
X114501761Y-136179714D01*
X114549380Y-136274952D01*
X114549380Y-136370190D01*
X114501761Y-136465428D01*
X114454142Y-136513047D01*
X114358904Y-136560666D01*
X114168428Y-136608285D01*
X113930333Y-136608285D01*
X113739857Y-136560666D01*
X113644619Y-136513047D01*
X113597000Y-136465428D01*
X113549380Y-136370190D01*
X114549380Y-135608285D02*
X113549380Y-135608285D01*
X114168428Y-135513047D02*
X114549380Y-135227333D01*
X113882714Y-135227333D02*
X114263666Y-135608285D01*
G04 #@! TO.C,R4*
X137663380Y-142656666D02*
X137187190Y-142990000D01*
X137663380Y-143228095D02*
X136663380Y-143228095D01*
X136663380Y-142847142D01*
X136711000Y-142751904D01*
X136758619Y-142704285D01*
X136853857Y-142656666D01*
X136996714Y-142656666D01*
X137091952Y-142704285D01*
X137139571Y-142751904D01*
X137187190Y-142847142D01*
X137187190Y-143228095D01*
X136996714Y-141799523D02*
X137663380Y-141799523D01*
X136615761Y-142037619D02*
X137330047Y-142275714D01*
X137330047Y-141656666D01*
X137663380Y-137116238D02*
X137663380Y-137687666D01*
X137663380Y-137401952D02*
X136663380Y-137401952D01*
X136806238Y-137497190D01*
X136901476Y-137592428D01*
X136949095Y-137687666D01*
X136663380Y-136497190D02*
X136663380Y-136401952D01*
X136711000Y-136306714D01*
X136758619Y-136259095D01*
X136853857Y-136211476D01*
X137044333Y-136163857D01*
X137282428Y-136163857D01*
X137472904Y-136211476D01*
X137568142Y-136259095D01*
X137615761Y-136306714D01*
X137663380Y-136401952D01*
X137663380Y-136497190D01*
X137615761Y-136592428D01*
X137568142Y-136640047D01*
X137472904Y-136687666D01*
X137282428Y-136735285D01*
X137044333Y-136735285D01*
X136853857Y-136687666D01*
X136758619Y-136640047D01*
X136711000Y-136592428D01*
X136663380Y-136497190D01*
X137663380Y-135735285D02*
X136663380Y-135735285D01*
X137282428Y-135640047D02*
X137663380Y-135354333D01*
X136996714Y-135354333D02*
X137377666Y-135735285D01*
G04 #@! TO.C,R5*
X134615380Y-142656666D02*
X134139190Y-142990000D01*
X134615380Y-143228095D02*
X133615380Y-143228095D01*
X133615380Y-142847142D01*
X133663000Y-142751904D01*
X133710619Y-142704285D01*
X133805857Y-142656666D01*
X133948714Y-142656666D01*
X134043952Y-142704285D01*
X134091571Y-142751904D01*
X134139190Y-142847142D01*
X134139190Y-143228095D01*
X133615380Y-141751904D02*
X133615380Y-142228095D01*
X134091571Y-142275714D01*
X134043952Y-142228095D01*
X133996333Y-142132857D01*
X133996333Y-141894761D01*
X134043952Y-141799523D01*
X134091571Y-141751904D01*
X134186809Y-141704285D01*
X134424904Y-141704285D01*
X134520142Y-141751904D01*
X134567761Y-141799523D01*
X134615380Y-141894761D01*
X134615380Y-142132857D01*
X134567761Y-142228095D01*
X134520142Y-142275714D01*
X133710619Y-137687666D02*
X133663000Y-137640047D01*
X133615380Y-137544809D01*
X133615380Y-137306714D01*
X133663000Y-137211476D01*
X133710619Y-137163857D01*
X133805857Y-137116238D01*
X133901095Y-137116238D01*
X134043952Y-137163857D01*
X134615380Y-137735285D01*
X134615380Y-137116238D01*
X133710619Y-136735285D02*
X133663000Y-136687666D01*
X133615380Y-136592428D01*
X133615380Y-136354333D01*
X133663000Y-136259095D01*
X133710619Y-136211476D01*
X133805857Y-136163857D01*
X133901095Y-136163857D01*
X134043952Y-136211476D01*
X134615380Y-136782904D01*
X134615380Y-136163857D01*
X134615380Y-135735285D02*
X133615380Y-135735285D01*
X134234428Y-135640047D02*
X134615380Y-135354333D01*
X133948714Y-135354333D02*
X134329666Y-135735285D01*
G04 #@! TD*
M02*
